<svg version="1.1" baseProfile="full" xmlns="http://www.w3.org/2000/svg"
width="1012" height="1024"
viewBox="-41 -82 82 83"
>
<rect x="-41" y="-82" width="100%" height="100%" fill="white" />
<path stroke="green" stroke-width="0.04" stroke-linecap="round" fill="none"
transform="scale(1 -1)"
d="	M 0 0
	L 0 1
	L -1 1
	L -1 2
	L 0 2
	L 1.225e-16 1
	L 1 1
	L 1 2
	L 2.22e-16 2
	L 2.22e-16 3
	L -1 3
	L -1 2
	L -2 2
	L -2 3
	L -1 3
	L -1 4
	L -2 4
	L -2 3
	L -3 3
	L -3 4
	L -4 4
	L -4 5
	L -3 5
	L -3 4
	L -2 4
	L -2 5
	L -3 5
	L -3 6
	L -2 6
	L -2 7
	L -1 7
	L -1 6
	L -2 6
	L -2 5
	L -1 5
	L -1 6
	L 2.22e-16 6
	L 3.445e-16 5
	L 4.67e-16 4
	L 5.894e-16 3
	L 1 3
	L 1 4
	L 2 4
	L 2 3
	L 1 3
	L 1 2
	L 2 2
	L 2 3
	L 3 3
	L 3 4
	L 2 4
	L 2 5
	L 3 5
	L 3 4
	L 4 4
	L 4 5
	L 3 5
	L 3 6
	L 2 6
	L 2 5
	L 1 5
	L 1 6
	L 2 6
	L 2 7
	L 1 7
	L 1 6
	L 6.661e-16 6
	L 6.661e-16 7
	L -1 7
	L -1 8
	L 6.661e-16 8
	L 7.886e-16 7
	L 1 7
	L 1 8
	L 8.882e-16 8
	L 8.882e-16 9
	L -1 9
	L -1 8
	L -2 8
	L -2 9
	L -1 9
	L -1 10
	L -2 10
	L -2 9
	L -3 9
	L -3 8
	L -2 8
	L -2 7
	L -3 7
	L -3 8
	L -4 8
	L -4 7
	L -3 7
	L -3 6
	L -4 6
	L -4 5
	L -5 5
	L -5 6
	L -4 6
	L -4 7
	L -5 7
	L -5 6
	L -6 6
	L -6 7
	L -7 7
	L -7 8
	L -6 8
	L -6 7
	L -5 7
	L -5 8
	L -6 8
	L -6 9
	L -5 9
	L -4 9
	L -3 9
	L -3 10
	L -4 10
	L -4 11
	L -3 11
	L -3 10
	L -2 10
	L -2 11
	L -3 11
	L -3 12
	L -4 12
	L -4 11
	L -5 11
	L -5 12
	L -4 12
	L -4 13
	L -5 13
	L -5 12
	L -6 12
	L -6 11
	L -5 11
	L -5 10
	L -6 10
	L -6 11
	L -7 11
	L -7 10
	L -6 10
	L -6 9
	L -7 9
	L -7 8
	L -8 8
	L -8 9
	L -7 9
	L -7 10
	L -8 10
	L -8 9
	L -9 9
	L -9 10
	L -10 10
	L -10 11
	L -9 11
	L -9 10
	L -8 10
	L -8 11
	L -9 11
	L -9 12
	L -10 12
	L -10 11
	L -11 11
	L -11 12
	L -10 12
	L -10 13
	L -11 13
	L -11 12
	L -12 12
	L -12 13
	L -13 13
	L -13 14
	L -12 14
	L -12 13
	L -11 13
	L -11 14
	L -12 14
	L -12 15
	L -11 15
	L -11 16
	L -10 16
	L -10 15
	L -11 15
	L -11 14
	L -10 14
	L -10 15
	L -9 15
	L -9 14
	L -9 13
	L -9 12
	L -8 12
	L -8 13
	L -7 13
	L -7 12
	L -8 12
	L -8 11
	L -7 11
	L -7 12
	L -6 12
	L -6 13
	L -7 13
	L -7 14
	L -6 14
	L -6 13
	L -5 13
	L -5 14
	L -6 14
	L -6 15
	L -7 15
	L -7 14
	L -8 14
	L -8 15
	L -7 15
	L -7 16
	L -8 16
	L -8 15
	L -9 15
	L -9 16
	L -10 16
	L -10 17
	L -9 17
	L -9 16
	L -8 16
	L -8 17
	L -9 17
	L -9 18
	L -8 18
	L -8 19
	L -7 19
	L -7 18
	L -8 18
	L -8 17
	L -7 17
	L -7 18
	L -6 18
	L -6 19
	L -7 19
	L -7 20
	L -6 20
	L -6 19
	L -5 19
	L -5 20
	L -6 20
	L -6 21
	L -5 21
	L -5 22
	L -4 22
	L -4 21
	L -5 21
	L -5 20
	L -4 20
	L -4 21
	L -3 21
	L -3 20
	L -2 20
	L -2 19
	L -3 19
	L -3 20
	L -4 20
	L -4 19
	L -3 19
	L -3 18
	L -4 18
	L -5 18
	L -6 18
	L -6 17
	L -5 17
	L -5 16
	L -6 16
	L -6 17
	L -7 17
	L -7 16
	L -6 16
	L -6 15
	L -5 15
	L -5 16
	L -4 16
	L -4 15
	L -5 15
	L -5 14
	L -4 14
	L -4 15
	L -3 15
	L -3 16
	L -4 16
	L -4 17
	L -3 17
	L -3 16
	L -2 16
	L -2 17
	L -3 17
	L -3 18
	L -2 18
	L -2 19
	L -1 19
	L -1 18
	L -2 18
	L -2 17
	L -1 17
	L -1 18
	L 2.22e-16 18
	L 3.445e-16 17
	L 4.67e-16 16
	L 5.894e-16 15
	L 7.119e-16 14
	L 8.344e-16 13
	L 9.568e-16 12
	L 1.079e-15 11
	L 1.202e-15 10
	L 1.324e-15 9
	L 1 9
	L 1 10
	L 2 10
	L 2 9
	L 1 9
	L 1 8
	L 2 8
	L 2 9
	L 3 9
	L 3 10
	L 2 10
	L 2 11
	L 3 11
	L 3 10
	L 4 10
	L 4 11
	L 3 11
	L 3 12
	L 4 12
	L 4 13
	L 5 13
	L 5 12
	L 4 12
	L 4 11
	L 5 11
	L 5 12
	L 6 12
	L 6 11
	L 7 11
	L 7 10
	L 6 10
	L 6 11
	L 5 11
	L 5 10
	L 6 10
	L 6 9
	L 5 9
	L 4 9
	L 3 9
	L 3 8
	L 4 8
	L 4 7
	L 3 7
	L 3 8
	L 2 8
	L 2 7
	L 3 7
	L 3 6
	L 4 6
	L 4 7
	L 5 7
	L 5 6
	L 4 6
	L 4 5
	L 5 5
	L 5 6
	L 6 6
	L 6 7
	L 5 7
	L 5 8
	L 6 8
	L 6 7
	L 7 7
	L 7 8
	L 6 8
	L 6 9
	L 7 9
	L 7 10
	L 8 10
	L 8 9
	L 7 9
	L 7 8
	L 8 8
	L 8 9
	L 9 9
	L 9 10
	L 8 10
	L 8 11
	L 9 11
	L 9 10
	L 10 10
	L 10 11
	L 9 11
	L 9 12
	L 8 12
	L 8 11
	L 7 11
	L 7 12
	L 8 12
	L 8 13
	L 7 13
	L 7 12
	L 6 12
	L 6 13
	L 5 13
	L 5 14
	L 6 14
	L 6 13
	L 7 13
	L 7 14
	L 6 14
	L 6 15
	L 7 15
	L 7 16
	L 8 16
	L 8 15
	L 7 15
	L 7 14
	L 8 14
	L 8 15
	L 9 15
	L 9 14
	L 9 13
	L 9 12
	L 10 12
	L 10 13
	L 11 13
	L 11 12
	L 10 12
	L 10 11
	L 11 11
	L 11 12
	L 12 12
	L 12 13
	L 11 13
	L 11 14
	L 12 14
	L 12 13
	L 13 13
	L 13 14
	L 12 14
	L 12 15
	L 11 15
	L 11 14
	L 10 14
	L 10 15
	L 11 15
	L 11 16
	L 10 16
	L 10 15
	L 9 15
	L 9 16
	L 8 16
	L 8 17
	L 9 17
	L 9 16
	L 10 16
	L 10 17
	L 9 17
	L 9 18
	L 8 18
	L 8 17
	L 7 17
	L 7 18
	L 8 18
	L 8 19
	L 7 19
	L 7 18
	L 6 18
	L 6 17
	L 7 17
	L 7 16
	L 6 16
	L 6 17
	L 5 17
	L 5 16
	L 6 16
	L 6 15
	L 5 15
	L 5 14
	L 4 14
	L 4 15
	L 5 15
	L 5 16
	L 4 16
	L 4 15
	L 3 15
	L 3 16
	L 2 16
	L 2 17
	L 3 17
	L 3 16
	L 4 16
	L 4 17
	L 3 17
	L 3 18
	L 4 18
	L 5 18
	L 6 18
	L 6 19
	L 5 19
	L 5 20
	L 6 20
	L 6 19
	L 7 19
	L 7 20
	L 6 20
	L 6 21
	L 5 21
	L 5 20
	L 4 20
	L 4 21
	L 5 21
	L 5 22
	L 4 22
	L 4 21
	L 3 21
	L 3 20
	L 4 20
	L 4 19
	L 3 19
	L 3 20
	L 2 20
	L 2 19
	L 3 19
	L 3 18
	L 2 18
	L 2 17
	L 1 17
	L 1 18
	L 2 18
	L 2 19
	L 1 19
	L 1 18
	L 1.554e-15 18
	L 1.554e-15 19
	L -1 19
	L -1 20
	L 1.554e-15 20
	L 1.677e-15 19
	L 1 19
	L 1 20
	L 1.776e-15 20
	L 1.776e-15 21
	L -1 21
	L -1 20
	L -2 20
	L -2 21
	L -1 21
	L -1 22
	L -2 22
	L -2 21
	L -3 21
	L -3 22
	L -4 22
	L -4 23
	L -3 23
	L -3 22
	L -2 22
	L -2 23
	L -3 23
	L -3 24
	L -2 24
	L -2 25
	L -1 25
	L -1 24
	L -2 24
	L -2 23
	L -1 23
	L -1 24
	L 1.998e-15 24
	L 2.121e-15 23
	L 2.243e-15 22
	L 2.366e-15 21
	L 1 21
	L 1 22
	L 2 22
	L 2 21
	L 1 21
	L 1 20
	L 2 20
	L 2 21
	L 3 21
	L 3 22
	L 2 22
	L 2 23
	L 3 23
	L 3 22
	L 4 22
	L 4 23
	L 3 23
	L 3 24
	L 2 24
	L 2 23
	L 1 23
	L 1 24
	L 2 24
	L 2 25
	L 1 25
	L 1 24
	L 2.442e-15 24
	L 2.442e-15 25
	L -1 25
	L -1 26
	L 2.442e-15 26
	L 2.565e-15 25
	L 1 25
	L 1 26
	L 2.665e-15 26
	L 2.665e-15 27
	L -1 27
	L -1 26
	L -2 26
	L -2 27
	L -1 27
	L -1 28
	L -2 28
	L -2 27
	L -3 27
	L -3 26
	L -2 26
	L -2 25
	L -3 25
	L -3 26
	L -4 26
	L -4 25
	L -3 25
	L -3 24
	L -4 24
	L -4 23
	L -5 23
	L -5 24
	L -4 24
	L -4 25
	L -5 25
	L -5 24
	L -6 24
	L -6 25
	L -7 25
	L -7 26
	L -6 26
	L -6 25
	L -5 25
	L -5 26
	L -6 26
	L -6 27
	L -5 27
	L -4 27
	L -3 27
	L -3 28
	L -4 28
	L -4 29
	L -3 29
	L -3 28
	L -2 28
	L -2 29
	L -3 29
	L -3 30
	L -4 30
	L -4 29
	L -5 29
	L -5 30
	L -4 30
	L -4 31
	L -5 31
	L -5 30
	L -6 30
	L -6 29
	L -5 29
	L -5 28
	L -6 28
	L -6 29
	L -7 29
	L -7 28
	L -6 28
	L -6 27
	L -7 27
	L -7 26
	L -8 26
	L -8 27
	L -7 27
	L -7 28
	L -8 28
	L -8 27
	L -9 27
	L -9 26
	L -8 26
	L -8 25
	L -9 25
	L -9 26
	L -10 26
	L -10 25
	L -9 25
	L -9 24
	L -8 24
	L -8 25
	L -7 25
	L -7 24
	L -8 24
	L -8 23
	L -7 23
	L -7 24
	L -6 24
	L -6 23
	L -5 23
	L -5 22
	L -6 22
	L -6 23
	L -7 23
	L -7 22
	L -6 22
	L -6 21
	L -7 21
	L -7 20
	L -8 20
	L -8 21
	L -7 21
	L -7 22
	L -8 22
	L -8 21
	L -9 21
	L -9 22
	L -9 23
	L -9 24
	L -10 24
	L -10 23
	L -11 23
	L -11 24
	L -10 24
	L -10 25
	L -11 25
	L -11 24
	L -12 24
	L -12 23
	L -11 23
	L -11 22
	L -12 22
	L -12 23
	L -13 23
	L -13 22
	L -12 22
	L -12 21
	L -11 21
	L -11 22
	L -10 22
	L -10 21
	L -11 21
	L -11 20
	L -10 20
	L -10 21
	L -9 21
	L -9 20
	L -8 20
	L -8 19
	L -9 19
	L -9 20
	L -10 20
	L -10 19
	L -9 19
	L -9 18
	L -10 18
	L -10 17
	L -11 17
	L -11 18
	L -10 18
	L -10 19
	L -11 19
	L -11 18
	L -12 18
	L -12 17
	L -11 17
	L -11 16
	L -12 16
	L -12 17
	L -13 17
	L -13 16
	L -12 16
	L -12 15
	L -13 15
	L -13 14
	L -14 14
	L -14 15
	L -13 15
	L -13 16
	L -14 16
	L -14 15
	L -15 15
	L -15 16
	L -16 16
	L -16 17
	L -15 17
	L -15 16
	L -14 16
	L -14 17
	L -15 17
	L -15 18
	L -14 18
	L -13 18
	L -12 18
	L -12 19
	L -13 19
	L -13 20
	L -12 20
	L -12 19
	L -11 19
	L -11 20
	L -12 20
	L -12 21
	L -13 21
	L -13 20
	L -14 20
	L -14 21
	L -13 21
	L -13 22
	L -14 22
	L -14 21
	L -15 21
	L -15 20
	L -14 20
	L -14 19
	L -15 19
	L -15 20
	L -16 20
	L -16 19
	L -15 19
	L -15 18
	L -16 18
	L -16 17
	L -17 17
	L -17 18
	L -16 18
	L -16 19
	L -17 19
	L -17 18
	L -18 18
	L -18 19
	L -19 19
	L -19 20
	L -18 20
	L -18 19
	L -17 19
	L -17 20
	L -18 20
	L -18 21
	L -19 21
	L -19 20
	L -20 20
	L -20 21
	L -19 21
	L -19 22
	L -20 22
	L -20 21
	L -21 21
	L -21 22
	L -22 22
	L -22 23
	L -21 23
	L -21 22
	L -20 22
	L -20 23
	L -21 23
	L -21 24
	L -20 24
	L -20 25
	L -19 25
	L -19 24
	L -20 24
	L -20 23
	L -19 23
	L -19 24
	L -18 24
	L -18 23
	L -18 22
	L -18 21
	L -17 21
	L -17 22
	L -16 22
	L -16 21
	L -17 21
	L -17 20
	L -16 20
	L -16 21
	L -15 21
	L -15 22
	L -16 22
	L -16 23
	L -15 23
	L -15 22
	L -14 22
	L -14 23
	L -15 23
	L -15 24
	L -16 24
	L -16 23
	L -17 23
	L -17 24
	L -16 24
	L -16 25
	L -17 25
	L -17 24
	L -18 24
	L -18 25
	L -19 25
	L -19 26
	L -18 26
	L -18 25
	L -17 25
	L -17 26
	L -18 26
	L -18 27
	L -17 27
	L -16 27
	L -15 27
	L -14 27
	L -13 27
	L -12 27
	L -11 27
	L -10 27
	L -9 27
	L -9 28
	L -10 28
	L -10 29
	L -9 29
	L -9 28
	L -8 28
	L -8 29
	L -9 29
	L -9 30
	L -10 30
	L -10 29
	L -11 29
	L -11 30
	L -10 30
	L -10 31
	L -11 31
	L -11 30
	L -12 30
	L -12 31
	L -13 31
	L -13 32
	L -12 32
	L -12 31
	L -11 31
	L -11 32
	L -12 32
	L -12 33
	L -11 33
	L -11 34
	L -10 34
	L -10 33
	L -11 33
	L -11 32
	L -10 32
	L -10 33
	L -9 33
	L -9 32
	L -9 31
	L -9 30
	L -8 30
	L -8 31
	L -7 31
	L -7 30
	L -8 30
	L -8 29
	L -7 29
	L -7 30
	L -6 30
	L -6 31
	L -7 31
	L -7 32
	L -6 32
	L -6 31
	L -5 31
	L -5 32
	L -6 32
	L -6 33
	L -7 33
	L -7 32
	L -8 32
	L -8 33
	L -7 33
	L -7 34
	L -8 34
	L -8 33
	L -9 33
	L -9 34
	L -10 34
	L -10 35
	L -9 35
	L -9 34
	L -8 34
	L -8 35
	L -9 35
	L -9 36
	L -10 36
	L -10 35
	L -11 35
	L -11 36
	L -10 36
	L -10 37
	L -11 37
	L -11 36
	L -12 36
	L -12 35
	L -11 35
	L -11 34
	L -12 34
	L -12 35
	L -13 35
	L -13 34
	L -12 34
	L -12 33
	L -13 33
	L -13 32
	L -14 32
	L -14 33
	L -13 33
	L -13 34
	L -14 34
	L -14 33
	L -15 33
	L -15 34
	L -16 34
	L -16 35
	L -15 35
	L -15 34
	L -14 34
	L -14 35
	L -15 35
	L -15 36
	L -14 36
	L -13 36
	L -12 36
	L -12 37
	L -13 37
	L -13 38
	L -12 38
	L -12 37
	L -11 37
	L -11 38
	L -12 38
	L -12 39
	L -13 39
	L -13 38
	L -14 38
	L -14 39
	L -13 39
	L -13 40
	L -14 40
	L -14 39
	L -15 39
	L -15 38
	L -14 38
	L -14 37
	L -15 37
	L -15 38
	L -16 38
	L -16 37
	L -15 37
	L -15 36
	L -16 36
	L -16 35
	L -17 35
	L -17 36
	L -16 36
	L -16 37
	L -17 37
	L -17 36
	L -18 36
	L -18 35
	L -17 35
	L -17 34
	L -18 34
	L -18 35
	L -19 35
	L -19 34
	L -18 34
	L -18 33
	L -17 33
	L -17 34
	L -16 34
	L -16 33
	L -17 33
	L -17 32
	L -16 32
	L -16 33
	L -15 33
	L -15 32
	L -14 32
	L -14 31
	L -15 31
	L -15 32
	L -16 32
	L -16 31
	L -15 31
	L -15 30
	L -16 30
	L -16 29
	L -17 29
	L -17 30
	L -16 30
	L -16 31
	L -17 31
	L -17 30
	L -18 30
	L -18 31
	L -18 32
	L -18 33
	L -19 33
	L -19 32
	L -20 32
	L -20 33
	L -19 33
	L -19 34
	L -20 34
	L -20 33
	L -21 33
	L -21 32
	L -20 32
	L -20 31
	L -21 31
	L -21 32
	L -22 32
	L -22 31
	L -21 31
	L -21 30
	L -20 30
	L -20 31
	L -19 31
	L -19 30
	L -20 30
	L -20 29
	L -19 29
	L -19 30
	L -18 30
	L -18 29
	L -17 29
	L -17 28
	L -18 28
	L -18 29
	L -19 29
	L -19 28
	L -18 28
	L -18 27
	L -19 27
	L -19 26
	L -20 26
	L -20 27
	L -19 27
	L -19 28
	L -20 28
	L -20 27
	L -21 27
	L -21 26
	L -20 26
	L -20 25
	L -21 25
	L -21 26
	L -22 26
	L -22 25
	L -21 25
	L -21 24
	L -22 24
	L -22 23
	L -23 23
	L -23 24
	L -22 24
	L -22 25
	L -23 25
	L -23 24
	L -24 24
	L -24 25
	L -25 25
	L -25 26
	L -24 26
	L -24 25
	L -23 25
	L -23 26
	L -24 26
	L -24 27
	L -23 27
	L -22 27
	L -21 27
	L -21 28
	L -22 28
	L -22 29
	L -21 29
	L -21 28
	L -20 28
	L -20 29
	L -21 29
	L -21 30
	L -22 30
	L -22 29
	L -23 29
	L -23 30
	L -22 30
	L -22 31
	L -23 31
	L -23 30
	L -24 30
	L -24 29
	L -23 29
	L -23 28
	L -24 28
	L -24 29
	L -25 29
	L -25 28
	L -24 28
	L -24 27
	L -25 27
	L -25 26
	L -26 26
	L -26 27
	L -25 27
	L -25 28
	L -26 28
	L -26 27
	L -27 27
	L -27 28
	L -28 28
	L -28 29
	L -27 29
	L -27 28
	L -26 28
	L -26 29
	L -27 29
	L -27 30
	L -28 30
	L -28 29
	L -29 29
	L -29 30
	L -28 30
	L -28 31
	L -29 31
	L -29 30
	L -30 30
	L -30 31
	L -31 31
	L -31 32
	L -30 32
	L -30 31
	L -29 31
	L -29 32
	L -30 32
	L -30 33
	L -29 33
	L -29 34
	L -28 34
	L -28 33
	L -29 33
	L -29 32
	L -28 32
	L -28 33
	L -27 33
	L -27 32
	L -27 31
	L -27 30
	L -26 30
	L -26 31
	L -25 31
	L -25 30
	L -26 30
	L -26 29
	L -25 29
	L -25 30
	L -24 30
	L -24 31
	L -25 31
	L -25 32
	L -24 32
	L -24 31
	L -23 31
	L -23 32
	L -24 32
	L -24 33
	L -25 33
	L -25 32
	L -26 32
	L -26 33
	L -25 33
	L -25 34
	L -26 34
	L -26 33
	L -27 33
	L -27 34
	L -28 34
	L -28 35
	L -27 35
	L -27 34
	L -26 34
	L -26 35
	L -27 35
	L -27 36
	L -28 36
	L -28 35
	L -29 35
	L -29 36
	L -28 36
	L -28 37
	L -29 37
	L -29 36
	L -30 36
	L -30 35
	L -29 35
	L -29 34
	L -30 34
	L -30 35
	L -31 35
	L -31 34
	L -30 34
	L -30 33
	L -31 33
	L -31 32
	L -32 32
	L -32 33
	L -31 33
	L -31 34
	L -32 34
	L -32 33
	L -33 33
	L -33 34
	L -34 34
	L -34 35
	L -33 35
	L -33 34
	L -32 34
	L -32 35
	L -33 35
	L -33 36
	L -32 36
	L -31 36
	L -30 36
	L -30 37
	L -31 37
	L -31 38
	L -30 38
	L -30 37
	L -29 37
	L -29 38
	L -30 38
	L -30 39
	L -31 39
	L -31 38
	L -32 38
	L -32 39
	L -31 39
	L -31 40
	L -32 40
	L -32 39
	L -33 39
	L -33 38
	L -32 38
	L -32 37
	L -33 37
	L -33 38
	L -34 38
	L -34 37
	L -33 37
	L -33 36
	L -34 36
	L -34 35
	L -35 35
	L -35 36
	L -34 36
	L -34 37
	L -35 37
	L -35 36
	L -36 36
	L -36 37
	L -37 37
	L -37 38
	L -36 38
	L -36 37
	L -35 37
	L -35 38
	L -36 38
	L -36 39
	L -37 39
	L -37 38
	L -38 38
	L -38 39
	L -37 39
	L -37 40
	L -38 40
	L -38 39
	L -39 39
	L -39 40
	L -40 40
	L -40 41
	L -39 41
	L -39 40
	L -38 40
	L -38 41
	L -39 41
	L -39 42
	L -38 42
	L -38 43
	L -37 43
	L -37 42
	L -38 42
	L -38 41
	L -37 41
	L -37 42
	L -36 42
	L -36 41
	L -36 40
	L -36 39
	L -35 39
	L -35 40
	L -34 40
	L -34 39
	L -35 39
	L -35 38
	L -34 38
	L -34 39
	L -33 39
	L -33 40
	L -34 40
	L -34 41
	L -33 41
	L -33 40
	L -32 40
	L -32 41
	L -33 41
	L -33 42
	L -34 42
	L -34 41
	L -35 41
	L -35 42
	L -34 42
	L -34 43
	L -35 43
	L -35 42
	L -36 42
	L -36 43
	L -37 43
	L -37 44
	L -36 44
	L -36 43
	L -35 43
	L -35 44
	L -36 44
	L -36 45
	L -35 45
	L -35 46
	L -34 46
	L -34 45
	L -35 45
	L -35 44
	L -34 44
	L -34 45
	L -33 45
	L -33 46
	L -34 46
	L -34 47
	L -33 47
	L -33 46
	L -32 46
	L -32 47
	L -33 47
	L -33 48
	L -32 48
	L -32 49
	L -31 49
	L -31 48
	L -32 48
	L -32 47
	L -31 47
	L -31 48
	L -30 48
	L -30 47
	L -29 47
	L -29 46
	L -30 46
	L -30 47
	L -31 47
	L -31 46
	L -30 46
	L -30 45
	L -31 45
	L -32 45
	L -33 45
	L -33 44
	L -32 44
	L -32 43
	L -33 43
	L -33 44
	L -34 44
	L -34 43
	L -33 43
	L -33 42
	L -32 42
	L -32 43
	L -31 43
	L -31 42
	L -32 42
	L -32 41
	L -31 41
	L -31 42
	L -30 42
	L -30 43
	L -31 43
	L -31 44
	L -30 44
	L -30 43
	L -29 43
	L -29 44
	L -30 44
	L -30 45
	L -29 45
	L -29 46
	L -28 46
	L -28 45
	L -29 45
	L -29 44
	L -28 44
	L -28 45
	L -27 45
	L -27 44
	L -27 43
	L -27 42
	L -27 41
	L -27 40
	L -27 39
	L -27 38
	L -27 37
	L -27 36
	L -26 36
	L -26 37
	L -25 37
	L -25 36
	L -26 36
	L -26 35
	L -25 35
	L -25 36
	L -24 36
	L -24 37
	L -25 37
	L -25 38
	L -24 38
	L -24 37
	L -23 37
	L -23 38
	L -24 38
	L -24 39
	L -23 39
	L -23 40
	L -22 40
	L -22 39
	L -23 39
	L -23 38
	L -22 38
	L -22 39
	L -21 39
	L -21 38
	L -20 38
	L -20 37
	L -21 37
	L -21 38
	L -22 38
	L -22 37
	L -21 37
	L -21 36
	L -22 36
	L -23 36
	L -24 36
	L -24 35
	L -23 35
	L -23 34
	L -24 34
	L -24 35
	L -25 35
	L -25 34
	L -24 34
	L -24 33
	L -23 33
	L -23 34
	L -22 34
	L -22 33
	L -23 33
	L -23 32
	L -22 32
	L -22 33
	L -21 33
	L -21 34
	L -22 34
	L -22 35
	L -21 35
	L -21 34
	L -20 34
	L -20 35
	L -21 35
	L -21 36
	L -20 36
	L -20 37
	L -19 37
	L -19 36
	L -20 36
	L -20 35
	L -19 35
	L -19 36
	L -18 36
	L -18 37
	L -19 37
	L -19 38
	L -18 38
	L -18 37
	L -17 37
	L -17 38
	L -18 38
	L -18 39
	L -19 39
	L -19 38
	L -20 38
	L -20 39
	L -19 39
	L -19 40
	L -20 40
	L -20 39
	L -21 39
	L -21 40
	L -22 40
	L -22 41
	L -21 41
	L -21 40
	L -20 40
	L -20 41
	L -21 41
	L -21 42
	L -20 42
	L -20 43
	L -19 43
	L -19 42
	L -20 42
	L -20 41
	L -19 41
	L -19 42
	L -18 42
	L -18 41
	L -18 40
	L -18 39
	L -17 39
	L -17 40
	L -16 40
	L -16 39
	L -17 39
	L -17 38
	L -16 38
	L -16 39
	L -15 39
	L -15 40
	L -16 40
	L -16 41
	L -15 41
	L -15 40
	L -14 40
	L -14 41
	L -15 41
	L -15 42
	L -16 42
	L -16 41
	L -17 41
	L -17 42
	L -16 42
	L -16 43
	L -17 43
	L -17 42
	L -18 42
	L -18 43
	L -19 43
	L -19 44
	L -18 44
	L -18 43
	L -17 43
	L -17 44
	L -18 44
	L -18 45
	L -19 45
	L -19 44
	L -20 44
	L -20 45
	L -19 45
	L -19 46
	L -20 46
	L -20 45
	L -21 45
	L -21 44
	L -20 44
	L -20 43
	L -21 43
	L -21 44
	L -22 44
	L -22 43
	L -21 43
	L -21 42
	L -22 42
	L -22 41
	L -23 41
	L -23 42
	L -22 42
	L -22 43
	L -23 43
	L -23 42
	L -24 42
	L -24 43
	L -25 43
	L -25 44
	L -24 44
	L -24 43
	L -23 43
	L -23 44
	L -24 44
	L -24 45
	L -23 45
	L -22 45
	L -21 45
	L -21 46
	L -22 46
	L -22 47
	L -21 47
	L -21 46
	L -20 46
	L -20 47
	L -21 47
	L -21 48
	L -22 48
	L -22 47
	L -23 47
	L -23 48
	L -22 48
	L -22 49
	L -23 49
	L -23 48
	L -24 48
	L -24 47
	L -23 47
	L -23 46
	L -24 46
	L -24 47
	L -25 47
	L -25 46
	L -24 46
	L -24 45
	L -25 45
	L -25 44
	L -26 44
	L -26 45
	L -25 45
	L -25 46
	L -26 46
	L -26 45
	L -27 45
	L -27 46
	L -28 46
	L -28 47
	L -27 47
	L -27 46
	L -26 46
	L -26 47
	L -27 47
	L -27 48
	L -28 48
	L -28 47
	L -29 47
	L -29 48
	L -28 48
	L -28 49
	L -29 49
	L -29 48
	L -30 48
	L -30 49
	L -31 49
	L -31 50
	L -30 50
	L -30 49
	L -29 49
	L -29 50
	L -30 50
	L -30 51
	L -29 51
	L -29 52
	L -28 52
	L -28 51
	L -29 51
	L -29 50
	L -28 50
	L -28 51
	L -27 51
	L -27 50
	L -27 49
	L -27 48
	L -26 48
	L -26 49
	L -25 49
	L -25 48
	L -26 48
	L -26 47
	L -25 47
	L -25 48
	L -24 48
	L -24 49
	L -25 49
	L -25 50
	L -24 50
	L -24 49
	L -23 49
	L -23 50
	L -24 50
	L -24 51
	L -25 51
	L -25 50
	L -26 50
	L -26 51
	L -25 51
	L -25 52
	L -26 52
	L -26 51
	L -27 51
	L -27 52
	L -28 52
	L -28 53
	L -27 53
	L -27 52
	L -26 52
	L -26 53
	L -27 53
	L -27 54
	L -26 54
	L -26 55
	L -25 55
	L -25 54
	L -26 54
	L -26 53
	L -25 53
	L -25 54
	L -24 54
	L -24 55
	L -25 55
	L -25 56
	L -24 56
	L -24 55
	L -23 55
	L -23 56
	L -24 56
	L -24 57
	L -23 57
	L -23 58
	L -22 58
	L -22 57
	L -23 57
	L -23 56
	L -22 56
	L -22 57
	L -21 57
	L -21 56
	L -20 56
	L -20 55
	L -21 55
	L -21 56
	L -22 56
	L -22 55
	L -21 55
	L -21 54
	L -22 54
	L -23 54
	L -24 54
	L -24 53
	L -23 53
	L -23 52
	L -24 52
	L -24 53
	L -25 53
	L -25 52
	L -24 52
	L -24 51
	L -23 51
	L -23 52
	L -22 52
	L -22 51
	L -23 51
	L -23 50
	L -22 50
	L -22 51
	L -21 51
	L -21 52
	L -22 52
	L -22 53
	L -21 53
	L -21 52
	L -20 52
	L -20 53
	L -21 53
	L -21 54
	L -20 54
	L -20 55
	L -19 55
	L -19 54
	L -20 54
	L -20 53
	L -19 53
	L -19 54
	L -18 54
	L -18 55
	L -19 55
	L -19 56
	L -18 56
	L -18 55
	L -17 55
	L -17 56
	L -18 56
	L -18 57
	L -19 57
	L -19 56
	L -20 56
	L -20 57
	L -19 57
	L -19 58
	L -20 58
	L -20 57
	L -21 57
	L -21 58
	L -22 58
	L -22 59
	L -21 59
	L -21 58
	L -20 58
	L -20 59
	L -21 59
	L -21 60
	L -20 60
	L -20 61
	L -19 61
	L -19 60
	L -20 60
	L -20 59
	L -19 59
	L -19 60
	L -18 60
	L -18 59
	L -18 58
	L -18 57
	L -17 57
	L -17 58
	L -16 58
	L -16 57
	L -17 57
	L -17 56
	L -16 56
	L -16 57
	L -15 57
	L -15 58
	L -16 58
	L -16 59
	L -15 59
	L -15 58
	L -14 58
	L -14 59
	L -15 59
	L -15 60
	L -16 60
	L -16 59
	L -17 59
	L -17 60
	L -16 60
	L -16 61
	L -17 61
	L -17 60
	L -18 60
	L -18 61
	L -19 61
	L -19 62
	L -18 62
	L -18 61
	L -17 61
	L -17 62
	L -18 62
	L -18 63
	L -17 63
	L -17 64
	L -16 64
	L -16 63
	L -17 63
	L -17 62
	L -16 62
	L -16 63
	L -15 63
	L -15 64
	L -16 64
	L -16 65
	L -15 65
	L -15 64
	L -14 64
	L -14 65
	L -15 65
	L -15 66
	L -14 66
	L -14 67
	L -13 67
	L -13 66
	L -14 66
	L -14 65
	L -13 65
	L -13 66
	L -12 66
	L -12 65
	L -11 65
	L -11 64
	L -12 64
	L -12 65
	L -13 65
	L -13 64
	L -12 64
	L -12 63
	L -13 63
	L -14 63
	L -15 63
	L -15 62
	L -14 62
	L -14 61
	L -15 61
	L -15 62
	L -16 62
	L -16 61
	L -15 61
	L -15 60
	L -14 60
	L -14 61
	L -13 61
	L -13 60
	L -14 60
	L -14 59
	L -13 59
	L -13 60
	L -12 60
	L -12 61
	L -13 61
	L -13 62
	L -12 62
	L -12 61
	L -11 61
	L -11 62
	L -12 62
	L -12 63
	L -11 63
	L -11 64
	L -10 64
	L -10 63
	L -11 63
	L -11 62
	L -10 62
	L -10 63
	L -9 63
	L -9 62
	L -8 62
	L -8 61
	L -9 61
	L -9 62
	L -10 62
	L -10 61
	L -9 61
	L -9 60
	L -8 60
	L -8 61
	L -7 61
	L -7 60
	L -8 60
	L -8 59
	L -7 59
	L -7 60
	L -6 60
	L -6 59
	L -5 59
	L -5 58
	L -6 58
	L -6 59
	L -7 59
	L -7 58
	L -6 58
	L -6 57
	L -7 57
	L -7 56
	L -8 56
	L -8 57
	L -7 57
	L -7 58
	L -8 58
	L -8 57
	L -9 57
	L -9 58
	L -9 59
	L -9 60
	L -10 60
	L -10 59
	L -11 59
	L -11 60
	L -10 60
	L -10 61
	L -11 61
	L -11 60
	L -12 60
	L -12 59
	L -11 59
	L -11 58
	L -12 58
	L -12 59
	L -13 59
	L -13 58
	L -12 58
	L -12 57
	L -11 57
	L -11 58
	L -10 58
	L -10 57
	L -11 57
	L -11 56
	L -10 56
	L -10 57
	L -9 57
	L -9 56
	L -8 56
	L -8 55
	L -9 55
	L -9 56
	L -10 56
	L -10 55
	L -9 55
	L -9 54
	L -10 54
	L -11 54
	L -12 54
	L -13 54
	L -14 54
	L -15 54
	L -16 54
	L -17 54
	L -18 54
	L -18 53
	L -17 53
	L -17 52
	L -18 52
	L -18 53
	L -19 53
	L -19 52
	L -18 52
	L -18 51
	L -17 51
	L -17 52
	L -16 52
	L -16 51
	L -17 51
	L -17 50
	L -16 50
	L -16 51
	L -15 51
	L -15 50
	L -14 50
	L -14 49
	L -15 49
	L -15 50
	L -16 50
	L -16 49
	L -15 49
	L -15 48
	L -16 48
	L -16 47
	L -17 47
	L -17 48
	L -16 48
	L -16 49
	L -17 49
	L -17 48
	L -18 48
	L -18 49
	L -18 50
	L -18 51
	L -19 51
	L -19 50
	L -20 50
	L -20 51
	L -19 51
	L -19 52
	L -20 52
	L -20 51
	L -21 51
	L -21 50
	L -20 50
	L -20 49
	L -21 49
	L -21 50
	L -22 50
	L -22 49
	L -21 49
	L -21 48
	L -20 48
	L -20 49
	L -19 49
	L -19 48
	L -20 48
	L -20 47
	L -19 47
	L -19 48
	L -18 48
	L -18 47
	L -17 47
	L -17 46
	L -18 46
	L -18 47
	L -19 47
	L -19 46
	L -18 46
	L -18 45
	L -17 45
	L -17 46
	L -16 46
	L -16 45
	L -17 45
	L -17 44
	L -16 44
	L -16 45
	L -15 45
	L -15 46
	L -16 46
	L -16 47
	L -15 47
	L -15 46
	L -14 46
	L -14 47
	L -15 47
	L -15 48
	L -14 48
	L -14 49
	L -13 49
	L -13 48
	L -14 48
	L -14 47
	L -13 47
	L -13 48
	L -12 48
	L -12 47
	L -11 47
	L -11 46
	L -12 46
	L -12 47
	L -13 47
	L -13 46
	L -12 46
	L -12 45
	L -13 45
	L -14 45
	L -15 45
	L -15 44
	L -14 44
	L -14 43
	L -15 43
	L -15 44
	L -16 44
	L -16 43
	L -15 43
	L -15 42
	L -14 42
	L -14 43
	L -13 43
	L -13 42
	L -14 42
	L -14 41
	L -13 41
	L -13 42
	L -12 42
	L -12 43
	L -13 43
	L -13 44
	L -12 44
	L -12 43
	L -11 43
	L -11 44
	L -12 44
	L -12 45
	L -11 45
	L -11 46
	L -10 46
	L -10 45
	L -11 45
	L -11 44
	L -10 44
	L -10 45
	L -9 45
	L -9 46
	L -10 46
	L -10 47
	L -9 47
	L -9 46
	L -8 46
	L -8 47
	L -9 47
	L -9 48
	L -10 48
	L -10 47
	L -11 47
	L -11 48
	L -10 48
	L -10 49
	L -11 49
	L -11 48
	L -12 48
	L -12 49
	L -13 49
	L -13 50
	L -12 50
	L -12 49
	L -11 49
	L -11 50
	L -12 50
	L -12 51
	L -11 51
	L -11 52
	L -10 52
	L -10 51
	L -11 51
	L -11 50
	L -10 50
	L -10 51
	L -9 51
	L -9 50
	L -9 49
	L -9 48
	L -8 48
	L -8 49
	L -7 49
	L -7 48
	L -8 48
	L -8 47
	L -7 47
	L -7 48
	L -6 48
	L -6 49
	L -7 49
	L -7 50
	L -6 50
	L -6 49
	L -5 49
	L -5 50
	L -6 50
	L -6 51
	L -7 51
	L -7 50
	L -8 50
	L -8 51
	L -7 51
	L -7 52
	L -8 52
	L -8 51
	L -9 51
	L -9 52
	L -10 52
	L -10 53
	L -9 53
	L -9 52
	L -8 52
	L -8 53
	L -9 53
	L -9 54
	L -8 54
	L -8 55
	L -7 55
	L -7 54
	L -8 54
	L -8 53
	L -7 53
	L -7 54
	L -6 54
	L -6 55
	L -7 55
	L -7 56
	L -6 56
	L -6 55
	L -5 55
	L -5 56
	L -6 56
	L -6 57
	L -5 57
	L -5 58
	L -4 58
	L -4 57
	L -5 57
	L -5 56
	L -4 56
	L -4 57
	L -3 57
	L -3 56
	L -2 56
	L -2 55
	L -3 55
	L -3 56
	L -4 56
	L -4 55
	L -3 55
	L -3 54
	L -4 54
	L -5 54
	L -6 54
	L -6 53
	L -5 53
	L -5 52
	L -6 52
	L -6 53
	L -7 53
	L -7 52
	L -6 52
	L -6 51
	L -5 51
	L -5 52
	L -4 52
	L -4 51
	L -5 51
	L -5 50
	L -4 50
	L -4 51
	L -3 51
	L -3 52
	L -4 52
	L -4 53
	L -3 53
	L -3 52
	L -2 52
	L -2 53
	L -3 53
	L -3 54
	L -2 54
	L -2 55
	L -1 55
	L -1 54
	L -2 54
	L -2 53
	L -1 53
	L -1 54
	L 2.22e-16 54
	L 3.445e-16 53
	L 4.67e-16 52
	L 5.894e-16 51
	L 7.119e-16 50
	L 8.344e-16 49
	L 9.568e-16 48
	L 1.079e-15 47
	L 1.202e-15 46
	L 1.324e-15 45
	L 1.447e-15 44
	L 1.569e-15 43
	L 1.692e-15 42
	L 1.814e-15 41
	L 1.937e-15 40
	L 2.059e-15 39
	L 2.181e-15 38
	L 2.304e-15 37
	L 2.426e-15 36
	L 2.549e-15 35
	L 2.671e-15 34
	L 2.794e-15 33
	L 2.916e-15 32
	L 3.039e-15 31
	L 3.161e-15 30
	L 3.284e-15 29
	L 3.406e-15 28
	L 3.529e-15 27
	L 1 27
	L 1 28
	L 2 28
	L 2 27
	L 1 27
	L 1 26
	L 2 26
	L 2 27
	L 3 27
	L 3 28
	L 2 28
	L 2 29
	L 3 29
	L 3 28
	L 4 28
	L 4 29
	L 3 29
	L 3 30
	L 4 30
	L 4 31
	L 5 31
	L 5 30
	L 4 30
	L 4 29
	L 5 29
	L 5 30
	L 6 30
	L 6 29
	L 7 29
	L 7 28
	L 6 28
	L 6 29
	L 5 29
	L 5 28
	L 6 28
	L 6 27
	L 5 27
	L 4 27
	L 3 27
	L 3 26
	L 4 26
	L 4 25
	L 3 25
	L 3 26
	L 2 26
	L 2 25
	L 3 25
	L 3 24
	L 4 24
	L 4 25
	L 5 25
	L 5 24
	L 4 24
	L 4 23
	L 5 23
	L 5 24
	L 6 24
	L 6 25
	L 5 25
	L 5 26
	L 6 26
	L 6 25
	L 7 25
	L 7 26
	L 6 26
	L 6 27
	L 7 27
	L 7 28
	L 8 28
	L 8 27
	L 7 27
	L 7 26
	L 8 26
	L 8 27
	L 9 27
	L 9 28
	L 8 28
	L 8 29
	L 9 29
	L 9 28
	L 10 28
	L 10 29
	L 9 29
	L 9 30
	L 8 30
	L 8 29
	L 7 29
	L 7 30
	L 8 30
	L 8 31
	L 7 31
	L 7 30
	L 6 30
	L 6 31
	L 5 31
	L 5 32
	L 6 32
	L 6 31
	L 7 31
	L 7 32
	L 6 32
	L 6 33
	L 7 33
	L 7 34
	L 8 34
	L 8 33
	L 7 33
	L 7 32
	L 8 32
	L 8 33
	L 9 33
	L 9 32
	L 9 31
	L 9 30
	L 10 30
	L 10 31
	L 11 31
	L 11 30
	L 10 30
	L 10 29
	L 11 29
	L 11 30
	L 12 30
	L 12 31
	L 11 31
	L 11 32
	L 12 32
	L 12 31
	L 13 31
	L 13 32
	L 12 32
	L 12 33
	L 11 33
	L 11 32
	L 10 32
	L 10 33
	L 11 33
	L 11 34
	L 10 34
	L 10 33
	L 9 33
	L 9 34
	L 8 34
	L 8 35
	L 9 35
	L 9 34
	L 10 34
	L 10 35
	L 9 35
	L 9 36
	L 10 36
	L 10 37
	L 11 37
	L 11 36
	L 10 36
	L 10 35
	L 11 35
	L 11 36
	L 12 36
	L 12 37
	L 11 37
	L 11 38
	L 12 38
	L 12 37
	L 13 37
	L 13 38
	L 12 38
	L 12 39
	L 13 39
	L 13 40
	L 14 40
	L 14 39
	L 13 39
	L 13 38
	L 14 38
	L 14 39
	L 15 39
	L 15 38
	L 16 38
	L 16 37
	L 15 37
	L 15 38
	L 14 38
	L 14 37
	L 15 37
	L 15 36
	L 14 36
	L 13 36
	L 12 36
	L 12 35
	L 13 35
	L 13 34
	L 12 34
	L 12 35
	L 11 35
	L 11 34
	L 12 34
	L 12 33
	L 13 33
	L 13 34
	L 14 34
	L 14 33
	L 13 33
	L 13 32
	L 14 32
	L 14 33
	L 15 33
	L 15 34
	L 14 34
	L 14 35
	L 15 35
	L 15 34
	L 16 34
	L 16 35
	L 15 35
	L 15 36
	L 16 36
	L 16 37
	L 17 37
	L 17 36
	L 16 36
	L 16 35
	L 17 35
	L 17 36
	L 18 36
	L 18 35
	L 19 35
	L 19 34
	L 18 34
	L 18 35
	L 17 35
	L 17 34
	L 18 34
	L 18 33
	L 19 33
	L 19 34
	L 20 34
	L 20 33
	L 19 33
	L 19 32
	L 20 32
	L 20 33
	L 21 33
	L 21 32
	L 22 32
	L 22 31
	L 21 31
	L 21 32
	L 20 32
	L 20 31
	L 21 31
	L 21 30
	L 20 30
	L 20 29
	L 19 29
	L 19 30
	L 20 30
	L 20 31
	L 19 31
	L 19 30
	L 18 30
	L 18 31
	L 18 32
	L 18 33
	L 17 33
	L 17 32
	L 16 32
	L 16 33
	L 17 33
	L 17 34
	L 16 34
	L 16 33
	L 15 33
	L 15 32
	L 16 32
	L 16 31
	L 15 31
	L 15 32
	L 14 32
	L 14 31
	L 15 31
	L 15 30
	L 16 30
	L 16 31
	L 17 31
	L 17 30
	L 16 30
	L 16 29
	L 17 29
	L 17 30
	L 18 30
	L 18 29
	L 19 29
	L 19 28
	L 18 28
	L 18 29
	L 17 29
	L 17 28
	L 18 28
	L 18 27
	L 17 27
	L 16 27
	L 15 27
	L 14 27
	L 13 27
	L 12 27
	L 11 27
	L 10 27
	L 9 27
	L 9 26
	L 10 26
	L 10 25
	L 9 25
	L 9 26
	L 8 26
	L 8 25
	L 9 25
	L 9 24
	L 10 24
	L 10 25
	L 11 25
	L 11 24
	L 10 24
	L 10 23
	L 11 23
	L 11 24
	L 12 24
	L 12 23
	L 13 23
	L 13 22
	L 12 22
	L 12 23
	L 11 23
	L 11 22
	L 12 22
	L 12 21
	L 11 21
	L 11 20
	L 10 20
	L 10 21
	L 11 21
	L 11 22
	L 10 22
	L 10 21
	L 9 21
	L 9 22
	L 9 23
	L 9 24
	L 8 24
	L 8 23
	L 7 23
	L 7 24
	L 8 24
	L 8 25
	L 7 25
	L 7 24
	L 6 24
	L 6 23
	L 7 23
	L 7 22
	L 6 22
	L 6 23
	L 5 23
	L 5 22
	L 6 22
	L 6 21
	L 7 21
	L 7 22
	L 8 22
	L 8 21
	L 7 21
	L 7 20
	L 8 20
	L 8 21
	L 9 21
	L 9 20
	L 10 20
	L 10 19
	L 9 19
	L 9 20
	L 8 20
	L 8 19
	L 9 19
	L 9 18
	L 10 18
	L 10 19
	L 11 19
	L 11 18
	L 10 18
	L 10 17
	L 11 17
	L 11 18
	L 12 18
	L 12 19
	L 11 19
	L 11 20
	L 12 20
	L 12 19
	L 13 19
	L 13 20
	L 12 20
	L 12 21
	L 13 21
	L 13 22
	L 14 22
	L 14 21
	L 13 21
	L 13 20
	L 14 20
	L 14 21
	L 15 21
	L 15 20
	L 16 20
	L 16 19
	L 15 19
	L 15 20
	L 14 20
	L 14 19
	L 15 19
	L 15 18
	L 14 18
	L 13 18
	L 12 18
	L 12 17
	L 13 17
	L 13 16
	L 12 16
	L 12 17
	L 11 17
	L 11 16
	L 12 16
	L 12 15
	L 13 15
	L 13 16
	L 14 16
	L 14 15
	L 13 15
	L 13 14
	L 14 14
	L 14 15
	L 15 15
	L 15 16
	L 14 16
	L 14 17
	L 15 17
	L 15 16
	L 16 16
	L 16 17
	L 15 17
	L 15 18
	L 16 18
	L 16 19
	L 17 19
	L 17 18
	L 16 18
	L 16 17
	L 17 17
	L 17 18
	L 18 18
	L 18 19
	L 17 19
	L 17 20
	L 18 20
	L 18 19
	L 19 19
	L 19 20
	L 18 20
	L 18 21
	L 17 21
	L 17 20
	L 16 20
	L 16 21
	L 17 21
	L 17 22
	L 16 22
	L 16 21
	L 15 21
	L 15 22
	L 14 22
	L 14 23
	L 15 23
	L 15 22
	L 16 22
	L 16 23
	L 15 23
	L 15 24
	L 16 24
	L 16 25
	L 17 25
	L 17 24
	L 16 24
	L 16 23
	L 17 23
	L 17 24
	L 18 24
	L 18 23
	L 18 22
	L 18 21
	L 19 21
	L 19 22
	L 20 22
	L 20 21
	L 19 21
	L 19 20
	L 20 20
	L 20 21
	L 21 21
	L 21 22
	L 20 22
	L 20 23
	L 21 23
	L 21 22
	L 22 22
	L 22 23
	L 21 23
	L 21 24
	L 20 24
	L 20 23
	L 19 23
	L 19 24
	L 20 24
	L 20 25
	L 19 25
	L 19 24
	L 18 24
	L 18 25
	L 17 25
	L 17 26
	L 18 26
	L 18 25
	L 19 25
	L 19 26
	L 18 26
	L 18 27
	L 19 27
	L 19 28
	L 20 28
	L 20 27
	L 19 27
	L 19 26
	L 20 26
	L 20 27
	L 21 27
	L 21 28
	L 20 28
	L 20 29
	L 21 29
	L 21 28
	L 22 28
	L 22 29
	L 21 29
	L 21 30
	L 22 30
	L 22 31
	L 23 31
	L 23 30
	L 22 30
	L 22 29
	L 23 29
	L 23 30
	L 24 30
	L 24 29
	L 25 29
	L 25 28
	L 24 28
	L 24 29
	L 23 29
	L 23 28
	L 24 28
	L 24 27
	L 23 27
	L 22 27
	L 21 27
	L 21 26
	L 22 26
	L 22 25
	L 21 25
	L 21 26
	L 20 26
	L 20 25
	L 21 25
	L 21 24
	L 22 24
	L 22 25
	L 23 25
	L 23 24
	L 22 24
	L 22 23
	L 23 23
	L 23 24
	L 24 24
	L 24 25
	L 23 25
	L 23 26
	L 24 26
	L 24 25
	L 25 25
	L 25 26
	L 24 26
	L 24 27
	L 25 27
	L 25 28
	L 26 28
	L 26 27
	L 25 27
	L 25 26
	L 26 26
	L 26 27
	L 27 27
	L 27 28
	L 26 28
	L 26 29
	L 27 29
	L 27 28
	L 28 28
	L 28 29
	L 27 29
	L 27 30
	L 26 30
	L 26 29
	L 25 29
	L 25 30
	L 26 30
	L 26 31
	L 25 31
	L 25 30
	L 24 30
	L 24 31
	L 23 31
	L 23 32
	L 24 32
	L 24 31
	L 25 31
	L 25 32
	L 24 32
	L 24 33
	L 25 33
	L 25 34
	L 26 34
	L 26 33
	L 25 33
	L 25 32
	L 26 32
	L 26 33
	L 27 33
	L 27 32
	L 27 31
	L 27 30
	L 28 30
	L 28 31
	L 29 31
	L 29 30
	L 28 30
	L 28 29
	L 29 29
	L 29 30
	L 30 30
	L 30 31
	L 29 31
	L 29 32
	L 30 32
	L 30 31
	L 31 31
	L 31 32
	L 30 32
	L 30 33
	L 29 33
	L 29 32
	L 28 32
	L 28 33
	L 29 33
	L 29 34
	L 28 34
	L 28 33
	L 27 33
	L 27 34
	L 26 34
	L 26 35
	L 27 35
	L 27 34
	L 28 34
	L 28 35
	L 27 35
	L 27 36
	L 26 36
	L 26 35
	L 25 35
	L 25 36
	L 26 36
	L 26 37
	L 25 37
	L 25 36
	L 24 36
	L 24 35
	L 25 35
	L 25 34
	L 24 34
	L 24 35
	L 23 35
	L 23 34
	L 24 34
	L 24 33
	L 23 33
	L 23 32
	L 22 32
	L 22 33
	L 23 33
	L 23 34
	L 22 34
	L 22 33
	L 21 33
	L 21 34
	L 20 34
	L 20 35
	L 21 35
	L 21 34
	L 22 34
	L 22 35
	L 21 35
	L 21 36
	L 22 36
	L 23 36
	L 24 36
	L 24 37
	L 23 37
	L 23 38
	L 24 38
	L 24 37
	L 25 37
	L 25 38
	L 24 38
	L 24 39
	L 23 39
	L 23 38
	L 22 38
	L 22 39
	L 23 39
	L 23 40
	L 22 40
	L 22 39
	L 21 39
	L 21 38
	L 22 38
	L 22 37
	L 21 37
	L 21 38
	L 20 38
	L 20 37
	L 21 37
	L 21 36
	L 20 36
	L 20 35
	L 19 35
	L 19 36
	L 20 36
	L 20 37
	L 19 37
	L 19 36
	L 18 36
	L 18 37
	L 17 37
	L 17 38
	L 18 38
	L 18 37
	L 19 37
	L 19 38
	L 18 38
	L 18 39
	L 17 39
	L 17 38
	L 16 38
	L 16 39
	L 17 39
	L 17 40
	L 16 40
	L 16 39
	L 15 39
	L 15 40
	L 14 40
	L 14 41
	L 15 41
	L 15 40
	L 16 40
	L 16 41
	L 15 41
	L 15 42
	L 16 42
	L 16 43
	L 17 43
	L 17 42
	L 16 42
	L 16 41
	L 17 41
	L 17 42
	L 18 42
	L 18 41
	L 18 40
	L 18 39
	L 19 39
	L 19 40
	L 20 40
	L 20 39
	L 19 39
	L 19 38
	L 20 38
	L 20 39
	L 21 39
	L 21 40
	L 20 40
	L 20 41
	L 21 41
	L 21 40
	L 22 40
	L 22 41
	L 21 41
	L 21 42
	L 20 42
	L 20 41
	L 19 41
	L 19 42
	L 20 42
	L 20 43
	L 19 43
	L 19 42
	L 18 42
	L 18 43
	L 17 43
	L 17 44
	L 18 44
	L 18 43
	L 19 43
	L 19 44
	L 18 44
	L 18 45
	L 19 45
	L 19 46
	L 20 46
	L 20 45
	L 19 45
	L 19 44
	L 20 44
	L 20 45
	L 21 45
	L 21 46
	L 20 46
	L 20 47
	L 21 47
	L 21 46
	L 22 46
	L 22 47
	L 21 47
	L 21 48
	L 22 48
	L 22 49
	L 23 49
	L 23 48
	L 22 48
	L 22 47
	L 23 47
	L 23 48
	L 24 48
	L 24 47
	L 25 47
	L 25 46
	L 24 46
	L 24 47
	L 23 47
	L 23 46
	L 24 46
	L 24 45
	L 23 45
	L 22 45
	L 21 45
	L 21 44
	L 22 44
	L 22 43
	L 21 43
	L 21 44
	L 20 44
	L 20 43
	L 21 43
	L 21 42
	L 22 42
	L 22 43
	L 23 43
	L 23 42
	L 22 42
	L 22 41
	L 23 41
	L 23 42
	L 24 42
	L 24 43
	L 23 43
	L 23 44
	L 24 44
	L 24 43
	L 25 43
	L 25 44
	L 24 44
	L 24 45
	L 25 45
	L 25 46
	L 26 46
	L 26 45
	L 25 45
	L 25 44
	L 26 44
	L 26 45
	L 27 45
	L 27 44
	L 27 43
	L 27 42
	L 27 41
	L 27 40
	L 27 39
	L 27 38
	L 27 37
	L 27 36
	L 28 36
	L 28 37
	L 29 37
	L 29 36
	L 28 36
	L 28 35
	L 29 35
	L 29 36
	L 30 36
	L 30 37
	L 29 37
	L 29 38
	L 30 38
	L 30 37
	L 31 37
	L 31 38
	L 30 38
	L 30 39
	L 31 39
	L 31 40
	L 32 40
	L 32 39
	L 31 39
	L 31 38
	L 32 38
	L 32 39
	L 33 39
	L 33 38
	L 34 38
	L 34 37
	L 33 37
	L 33 38
	L 32 38
	L 32 37
	L 33 37
	L 33 36
	L 32 36
	L 31 36
	L 30 36
	L 30 35
	L 31 35
	L 31 34
	L 30 34
	L 30 35
	L 29 35
	L 29 34
	L 30 34
	L 30 33
	L 31 33
	L 31 34
	L 32 34
	L 32 33
	L 31 33
	L 31 32
	L 32 32
	L 32 33
	L 33 33
	L 33 34
	L 32 34
	L 32 35
	L 33 35
	L 33 34
	L 34 34
	L 34 35
	L 33 35
	L 33 36
	L 34 36
	L 34 37
	L 35 37
	L 35 36
	L 34 36
	L 34 35
	L 35 35
	L 35 36
	L 36 36
	L 36 37
	L 35 37
	L 35 38
	L 36 38
	L 36 37
	L 37 37
	L 37 38
	L 36 38
	L 36 39
	L 35 39
	L 35 38
	L 34 38
	L 34 39
	L 35 39
	L 35 40
	L 34 40
	L 34 39
	L 33 39
	L 33 40
	L 32 40
	L 32 41
	L 33 41
	L 33 40
	L 34 40
	L 34 41
	L 33 41
	L 33 42
	L 34 42
	L 34 43
	L 35 43
	L 35 42
	L 34 42
	L 34 41
	L 35 41
	L 35 42
	L 36 42
	L 36 41
	L 36 40
	L 36 39
	L 37 39
	L 37 40
	L 38 40
	L 38 39
	L 37 39
	L 37 38
	L 38 38
	L 38 39
	L 39 39
	L 39 40
	L 38 40
	L 38 41
	L 39 41
	L 39 40
	L 40 40
	L 40 41
	L 39 41
	L 39 42
	L 38 42
	L 38 41
	L 37 41
	L 37 42
	L 38 42
	L 38 43
	L 37 43
	L 37 42
	L 36 42
	L 36 43
	L 35 43
	L 35 44
	L 36 44
	L 36 43
	L 37 43
	L 37 44
	L 36 44
	L 36 45
	L 35 45
	L 35 44
	L 34 44
	L 34 45
	L 35 45
	L 35 46
	L 34 46
	L 34 45
	L 33 45
	L 33 44
	L 34 44
	L 34 43
	L 33 43
	L 33 44
	L 32 44
	L 32 43
	L 33 43
	L 33 42
	L 32 42
	L 32 41
	L 31 41
	L 31 42
	L 32 42
	L 32 43
	L 31 43
	L 31 42
	L 30 42
	L 30 43
	L 29 43
	L 29 44
	L 30 44
	L 30 43
	L 31 43
	L 31 44
	L 30 44
	L 30 45
	L 31 45
	L 32 45
	L 33 45
	L 33 46
	L 32 46
	L 32 47
	L 33 47
	L 33 46
	L 34 46
	L 34 47
	L 33 47
	L 33 48
	L 32 48
	L 32 47
	L 31 47
	L 31 48
	L 32 48
	L 32 49
	L 31 49
	L 31 48
	L 30 48
	L 30 47
	L 31 47
	L 31 46
	L 30 46
	L 30 47
	L 29 47
	L 29 46
	L 30 46
	L 30 45
	L 29 45
	L 29 44
	L 28 44
	L 28 45
	L 29 45
	L 29 46
	L 28 46
	L 28 45
	L 27 45
	L 27 46
	L 26 46
	L 26 47
	L 27 47
	L 27 46
	L 28 46
	L 28 47
	L 27 47
	L 27 48
	L 26 48
	L 26 47
	L 25 47
	L 25 48
	L 26 48
	L 26 49
	L 25 49
	L 25 48
	L 24 48
	L 24 49
	L 23 49
	L 23 50
	L 24 50
	L 24 49
	L 25 49
	L 25 50
	L 24 50
	L 24 51
	L 25 51
	L 25 52
	L 26 52
	L 26 51
	L 25 51
	L 25 50
	L 26 50
	L 26 51
	L 27 51
	L 27 50
	L 27 49
	L 27 48
	L 28 48
	L 28 49
	L 29 49
	L 29 48
	L 28 48
	L 28 47
	L 29 47
	L 29 48
	L 30 48
	L 30 49
	L 29 49
	L 29 50
	L 30 50
	L 30 49
	L 31 49
	L 31 50
	L 30 50
	L 30 51
	L 29 51
	L 29 50
	L 28 50
	L 28 51
	L 29 51
	L 29 52
	L 28 52
	L 28 51
	L 27 51
	L 27 52
	L 26 52
	L 26 53
	L 27 53
	L 27 52
	L 28 52
	L 28 53
	L 27 53
	L 27 54
	L 26 54
	L 26 53
	L 25 53
	L 25 54
	L 26 54
	L 26 55
	L 25 55
	L 25 54
	L 24 54
	L 24 53
	L 25 53
	L 25 52
	L 24 52
	L 24 53
	L 23 53
	L 23 52
	L 24 52
	L 24 51
	L 23 51
	L 23 50
	L 22 50
	L 22 51
	L 23 51
	L 23 52
	L 22 52
	L 22 51
	L 21 51
	L 21 52
	L 20 52
	L 20 53
	L 21 53
	L 21 52
	L 22 52
	L 22 53
	L 21 53
	L 21 54
	L 22 54
	L 23 54
	L 24 54
	L 24 55
	L 23 55
	L 23 56
	L 24 56
	L 24 55
	L 25 55
	L 25 56
	L 24 56
	L 24 57
	L 23 57
	L 23 56
	L 22 56
	L 22 57
	L 23 57
	L 23 58
	L 22 58
	L 22 57
	L 21 57
	L 21 56
	L 22 56
	L 22 55
	L 21 55
	L 21 56
	L 20 56
	L 20 55
	L 21 55
	L 21 54
	L 20 54
	L 20 53
	L 19 53
	L 19 54
	L 20 54
	L 20 55
	L 19 55
	L 19 54
	L 18 54
	L 18 53
	L 19 53
	L 19 52
	L 18 52
	L 18 53
	L 17 53
	L 17 52
	L 18 52
	L 18 51
	L 19 51
	L 19 52
	L 20 52
	L 20 51
	L 19 51
	L 19 50
	L 20 50
	L 20 51
	L 21 51
	L 21 50
	L 22 50
	L 22 49
	L 21 49
	L 21 50
	L 20 50
	L 20 49
	L 21 49
	L 21 48
	L 20 48
	L 20 47
	L 19 47
	L 19 48
	L 20 48
	L 20 49
	L 19 49
	L 19 48
	L 18 48
	L 18 49
	L 18 50
	L 18 51
	L 17 51
	L 17 50
	L 16 50
	L 16 51
	L 17 51
	L 17 52
	L 16 52
	L 16 51
	L 15 51
	L 15 50
	L 16 50
	L 16 49
	L 15 49
	L 15 50
	L 14 50
	L 14 49
	L 15 49
	L 15 48
	L 16 48
	L 16 49
	L 17 49
	L 17 48
	L 16 48
	L 16 47
	L 17 47
	L 17 48
	L 18 48
	L 18 47
	L 19 47
	L 19 46
	L 18 46
	L 18 47
	L 17 47
	L 17 46
	L 18 46
	L 18 45
	L 17 45
	L 17 44
	L 16 44
	L 16 45
	L 17 45
	L 17 46
	L 16 46
	L 16 45
	L 15 45
	L 15 44
	L 16 44
	L 16 43
	L 15 43
	L 15 44
	L 14 44
	L 14 43
	L 15 43
	L 15 42
	L 14 42
	L 14 41
	L 13 41
	L 13 42
	L 14 42
	L 14 43
	L 13 43
	L 13 42
	L 12 42
	L 12 43
	L 11 43
	L 11 44
	L 12 44
	L 12 43
	L 13 43
	L 13 44
	L 12 44
	L 12 45
	L 13 45
	L 14 45
	L 15 45
	L 15 46
	L 14 46
	L 14 47
	L 15 47
	L 15 46
	L 16 46
	L 16 47
	L 15 47
	L 15 48
	L 14 48
	L 14 47
	L 13 47
	L 13 48
	L 14 48
	L 14 49
	L 13 49
	L 13 48
	L 12 48
	L 12 47
	L 13 47
	L 13 46
	L 12 46
	L 12 47
	L 11 47
	L 11 46
	L 12 46
	L 12 45
	L 11 45
	L 11 44
	L 10 44
	L 10 45
	L 11 45
	L 11 46
	L 10 46
	L 10 45
	L 9 45
	L 9 46
	L 8 46
	L 8 47
	L 9 47
	L 9 46
	L 10 46
	L 10 47
	L 9 47
	L 9 48
	L 8 48
	L 8 47
	L 7 47
	L 7 48
	L 8 48
	L 8 49
	L 7 49
	L 7 48
	L 6 48
	L 6 49
	L 5 49
	L 5 50
	L 6 50
	L 6 49
	L 7 49
	L 7 50
	L 6 50
	L 6 51
	L 7 51
	L 7 52
	L 8 52
	L 8 51
	L 7 51
	L 7 50
	L 8 50
	L 8 51
	L 9 51
	L 9 50
	L 9 49
	L 9 48
	L 10 48
	L 10 49
	L 11 49
	L 11 48
	L 10 48
	L 10 47
	L 11 47
	L 11 48
	L 12 48
	L 12 49
	L 11 49
	L 11 50
	L 12 50
	L 12 49
	L 13 49
	L 13 50
	L 12 50
	L 12 51
	L 11 51
	L 11 50
	L 10 50
	L 10 51
	L 11 51
	L 11 52
	L 10 52
	L 10 51
	L 9 51
	L 9 52
	L 8 52
	L 8 53
	L 9 53
	L 9 52
	L 10 52
	L 10 53
	L 9 53
	L 9 54
	L 10 54
	L 11 54
	L 12 54
	L 13 54
	L 14 54
	L 15 54
	L 16 54
	L 17 54
	L 18 54
	L 18 55
	L 17 55
	L 17 56
	L 18 56
	L 18 55
	L 19 55
	L 19 56
	L 18 56
	L 18 57
	L 17 57
	L 17 56
	L 16 56
	L 16 57
	L 17 57
	L 17 58
	L 16 58
	L 16 57
	L 15 57
	L 15 58
	L 14 58
	L 14 59
	L 15 59
	L 15 58
	L 16 58
	L 16 59
	L 15 59
	L 15 60
	L 16 60
	L 16 61
	L 17 61
	L 17 60
	L 16 60
	L 16 59
	L 17 59
	L 17 60
	L 18 60
	L 18 59
	L 18 58
	L 18 57
	L 19 57
	L 19 58
	L 20 58
	L 20 57
	L 19 57
	L 19 56
	L 20 56
	L 20 57
	L 21 57
	L 21 58
	L 20 58
	L 20 59
	L 21 59
	L 21 58
	L 22 58
	L 22 59
	L 21 59
	L 21 60
	L 20 60
	L 20 59
	L 19 59
	L 19 60
	L 20 60
	L 20 61
	L 19 61
	L 19 60
	L 18 60
	L 18 61
	L 17 61
	L 17 62
	L 18 62
	L 18 61
	L 19 61
	L 19 62
	L 18 62
	L 18 63
	L 17 63
	L 17 62
	L 16 62
	L 16 63
	L 17 63
	L 17 64
	L 16 64
	L 16 63
	L 15 63
	L 15 62
	L 16 62
	L 16 61
	L 15 61
	L 15 62
	L 14 62
	L 14 61
	L 15 61
	L 15 60
	L 14 60
	L 14 59
	L 13 59
	L 13 60
	L 14 60
	L 14 61
	L 13 61
	L 13 60
	L 12 60
	L 12 61
	L 11 61
	L 11 62
	L 12 62
	L 12 61
	L 13 61
	L 13 62
	L 12 62
	L 12 63
	L 13 63
	L 14 63
	L 15 63
	L 15 64
	L 14 64
	L 14 65
	L 15 65
	L 15 64
	L 16 64
	L 16 65
	L 15 65
	L 15 66
	L 14 66
	L 14 65
	L 13 65
	L 13 66
	L 14 66
	L 14 67
	L 13 67
	L 13 66
	L 12 66
	L 12 65
	L 13 65
	L 13 64
	L 12 64
	L 12 65
	L 11 65
	L 11 64
	L 12 64
	L 12 63
	L 11 63
	L 11 62
	L 10 62
	L 10 63
	L 11 63
	L 11 64
	L 10 64
	L 10 63
	L 9 63
	L 9 62
	L 10 62
	L 10 61
	L 9 61
	L 9 62
	L 8 62
	L 8 61
	L 9 61
	L 9 60
	L 10 60
	L 10 61
	L 11 61
	L 11 60
	L 10 60
	L 10 59
	L 11 59
	L 11 60
	L 12 60
	L 12 59
	L 13 59
	L 13 58
	L 12 58
	L 12 59
	L 11 59
	L 11 58
	L 12 58
	L 12 57
	L 11 57
	L 11 56
	L 10 56
	L 10 57
	L 11 57
	L 11 58
	L 10 58
	L 10 57
	L 9 57
	L 9 58
	L 9 59
	L 9 60
	L 8 60
	L 8 59
	L 7 59
	L 7 60
	L 8 60
	L 8 61
	L 7 61
	L 7 60
	L 6 60
	L 6 59
	L 7 59
	L 7 58
	L 6 58
	L 6 59
	L 5 59
	L 5 58
	L 6 58
	L 6 57
	L 7 57
	L 7 58
	L 8 58
	L 8 57
	L 7 57
	L 7 56
	L 8 56
	L 8 57
	L 9 57
	L 9 56
	L 10 56
	L 10 55
	L 9 55
	L 9 56
	L 8 56
	L 8 55
	L 9 55
	L 9 54
	L 8 54
	L 8 53
	L 7 53
	L 7 54
	L 8 54
	L 8 55
	L 7 55
	L 7 54
	L 6 54
	L 6 53
	L 7 53
	L 7 52
	L 6 52
	L 6 53
	L 5 53
	L 5 52
	L 6 52
	L 6 51
	L 5 51
	L 5 50
	L 4 50
	L 4 51
	L 5 51
	L 5 52
	L 4 52
	L 4 51
	L 3 51
	L 3 52
	L 2 52
	L 2 53
	L 3 53
	L 3 52
	L 4 52
	L 4 53
	L 3 53
	L 3 54
	L 4 54
	L 5 54
	L 6 54
	L 6 55
	L 5 55
	L 5 56
	L 6 56
	L 6 55
	L 7 55
	L 7 56
	L 6 56
	L 6 57
	L 5 57
	L 5 56
	L 4 56
	L 4 57
	L 5 57
	L 5 58
	L 4 58
	L 4 57
	L 3 57
	L 3 56
	L 4 56
	L 4 55
	L 3 55
	L 3 56
	L 2 56
	L 2 55
	L 3 55
	L 3 54
	L 2 54
	L 2 53
	L 1 53
	L 1 54
	L 2 54
	L 2 55
	L 1 55
	L 1 54
	L -3.331e-16 54
	L -3.331e-16 55
	L -1 55
	L -1 56
	L -4.441e-16 56
	L -3.216e-16 55
	L 1 55
	L 1 56
	L -3.331e-16 56
	L -3.331e-16 57
	L -1 57
	L -1 56
	L -2 56
	L -2 57
	L -1 57
	L -1 58
	L -2 58
	L -2 57
	L -3 57
	L -3 58
	L -4 58
	L -4 59
	L -3 59
	L -3 58
	L -2 58
	L -2 59
	L -3 59
	L -3 60
	L -2 60
	L -2 61
	L -1 61
	L -1 60
	L -2 60
	L -2 59
	L -1 59
	L -1 60
	L -8.882e-16 60
	L -7.657e-16 59
	L -6.432e-16 58
	L -5.208e-16 57
	L 1 57
	L 1 58
	L 2 58
	L 2 57
	L 1 57
	L 1 56
	L 2 56
	L 2 57
	L 3 57
	L 3 58
	L 2 58
	L 2 59
	L 3 59
	L 3 58
	L 4 58
	L 4 59
	L 3 59
	L 3 60
	L 2 60
	L 2 59
	L 1 59
	L 1 60
	L 2 60
	L 2 61
	L 1 61
	L 1 60
	L -3.331e-16 60
	L -3.331e-16 61
	L -1 61
	L -1 62
	L -4.441e-16 62
	L -3.216e-16 61
	L 1 61
	L 1 62
	L -3.331e-16 62
	L -3.331e-16 63
	L -1 63
	L -1 62
	L -2 62
	L -2 63
	L -1 63
	L -1 64
	L -2 64
	L -2 63
	L -3 63
	L -3 62
	L -2 62
	L -2 61
	L -3 61
	L -3 62
	L -4 62
	L -4 61
	L -3 61
	L -3 60
	L -4 60
	L -4 59
	L -5 59
	L -5 60
	L -4 60
	L -4 61
	L -5 61
	L -5 60
	L -6 60
	L -6 61
	L -7 61
	L -7 62
	L -6 62
	L -6 61
	L -5 61
	L -5 62
	L -6 62
	L -6 63
	L -5 63
	L -4 63
	L -3 63
	L -3 64
	L -4 64
	L -4 65
	L -3 65
	L -3 64
	L -2 64
	L -2 65
	L -3 65
	L -3 66
	L -4 66
	L -4 65
	L -5 65
	L -5 66
	L -4 66
	L -4 67
	L -5 67
	L -5 66
	L -6 66
	L -6 65
	L -5 65
	L -5 64
	L -6 64
	L -6 65
	L -7 65
	L -7 64
	L -6 64
	L -6 63
	L -7 63
	L -7 62
	L -8 62
	L -8 63
	L -7 63
	L -7 64
	L -8 64
	L -8 63
	L -9 63
	L -9 64
	L -10 64
	L -10 65
	L -9 65
	L -9 64
	L -8 64
	L -8 65
	L -9 65
	L -9 66
	L -10 66
	L -10 65
	L -11 65
	L -11 66
	L -10 66
	L -10 67
	L -11 67
	L -11 66
	L -12 66
	L -12 67
	L -13 67
	L -13 68
	L -12 68
	L -12 67
	L -11 67
	L -11 68
	L -12 68
	L -12 69
	L -11 69
	L -11 70
	L -10 70
	L -10 69
	L -11 69
	L -11 68
	L -10 68
	L -10 69
	L -9 69
	L -9 68
	L -9 67
	L -9 66
	L -8 66
	L -8 67
	L -7 67
	L -7 66
	L -8 66
	L -8 65
	L -7 65
	L -7 66
	L -6 66
	L -6 67
	L -7 67
	L -7 68
	L -6 68
	L -6 67
	L -5 67
	L -5 68
	L -6 68
	L -6 69
	L -7 69
	L -7 68
	L -8 68
	L -8 69
	L -7 69
	L -7 70
	L -8 70
	L -8 69
	L -9 69
	L -9 70
	L -10 70
	L -10 71
	L -9 71
	L -9 70
	L -8 70
	L -8 71
	L -9 71
	L -9 72
	L -8 72
	L -8 73
	L -7 73
	L -7 72
	L -8 72
	L -8 71
	L -7 71
	L -7 72
	L -6 72
	L -6 73
	L -7 73
	L -7 74
	L -6 74
	L -6 73
	L -5 73
	L -5 74
	L -6 74
	L -6 75
	L -5 75
	L -5 76
	L -4 76
	L -4 75
	L -5 75
	L -5 74
	L -4 74
	L -4 75
	L -3 75
	L -3 74
	L -2 74
	L -2 73
	L -3 73
	L -3 74
	L -4 74
	L -4 73
	L -3 73
	L -3 72
	L -4 72
	L -5 72
	L -6 72
	L -6 71
	L -5 71
	L -5 70
	L -6 70
	L -6 71
	L -7 71
	L -7 70
	L -6 70
	L -6 69
	L -5 69
	L -5 70
	L -4 70
	L -4 69
	L -5 69
	L -5 68
	L -4 68
	L -4 69
	L -3 69
	L -3 70
	L -4 70
	L -4 71
	L -3 71
	L -3 70
	L -2 70
	L -2 71
	L -3 71
	L -3 72
	L -2 72
	L -2 73
	L -1 73
	L -1 72
	L -2 72
	L -2 71
	L -1 71
	L -1 72
	L 2.22e-16 72
	L 3.445e-16 71
	L 4.67e-16 70
	L 5.894e-16 69
	L 7.119e-16 68
	L 8.344e-16 67
	L 9.568e-16 66
	L 1.079e-15 65
	L 1.202e-15 64
	L 1.324e-15 63
	L 1 63
	L 1 64
	L 2 64
	L 2 63
	L 1 63
	L 1 62
	L 2 62
	L 2 63
	L 3 63
	L 3 64
	L 2 64
	L 2 65
	L 3 65
	L 3 64
	L 4 64
	L 4 65
	L 3 65
	L 3 66
	L 4 66
	L 4 67
	L 5 67
	L 5 66
	L 4 66
	L 4 65
	L 5 65
	L 5 66
	L 6 66
	L 6 65
	L 7 65
	L 7 64
	L 6 64
	L 6 65
	L 5 65
	L 5 64
	L 6 64
	L 6 63
	L 5 63
	L 4 63
	L 3 63
	L 3 62
	L 4 62
	L 4 61
	L 3 61
	L 3 62
	L 2 62
	L 2 61
	L 3 61
	L 3 60
	L 4 60
	L 4 61
	L 5 61
	L 5 60
	L 4 60
	L 4 59
	L 5 59
	L 5 60
	L 6 60
	L 6 61
	L 5 61
	L 5 62
	L 6 62
	L 6 61
	L 7 61
	L 7 62
	L 6 62
	L 6 63
	L 7 63
	L 7 64
	L 8 64
	L 8 63
	L 7 63
	L 7 62
	L 8 62
	L 8 63
	L 9 63
	L 9 64
	L 8 64
	L 8 65
	L 9 65
	L 9 64
	L 10 64
	L 10 65
	L 9 65
	L 9 66
	L 8 66
	L 8 65
	L 7 65
	L 7 66
	L 8 66
	L 8 67
	L 7 67
	L 7 66
	L 6 66
	L 6 67
	L 5 67
	L 5 68
	L 6 68
	L 6 67
	L 7 67
	L 7 68
	L 6 68
	L 6 69
	L 7 69
	L 7 70
	L 8 70
	L 8 69
	L 7 69
	L 7 68
	L 8 68
	L 8 69
	L 9 69
	L 9 68
	L 9 67
	L 9 66
	L 10 66
	L 10 67
	L 11 67
	L 11 66
	L 10 66
	L 10 65
	L 11 65
	L 11 66
	L 12 66
	L 12 67
	L 11 67
	L 11 68
	L 12 68
	L 12 67
	L 13 67
	L 13 68
	L 12 68
	L 12 69
	L 11 69
	L 11 68
	L 10 68
	L 10 69
	L 11 69
	L 11 70
	L 10 70
	L 10 69
	L 9 69
	L 9 70
	L 8 70
	L 8 71
	L 9 71
	L 9 70
	L 10 70
	L 10 71
	L 9 71
	L 9 72
	L 8 72
	L 8 71
	L 7 71
	L 7 72
	L 8 72
	L 8 73
	L 7 73
	L 7 72
	L 6 72
	L 6 71
	L 7 71
	L 7 70
	L 6 70
	L 6 71
	L 5 71
	L 5 70
	L 6 70
	L 6 69
	L 5 69
	L 5 68
	L 4 68
	L 4 69
	L 5 69
	L 5 70
	L 4 70
	L 4 69
	L 3 69
	L 3 70
	L 2 70
	L 2 71
	L 3 71
	L 3 70
	L 4 70
	L 4 71
	L 3 71
	L 3 72
	L 4 72
	L 5 72
	L 6 72
	L 6 73
	L 5 73
	L 5 74
	L 6 74
	L 6 73
	L 7 73
	L 7 74
	L 6 74
	L 6 75
	L 5 75
	L 5 74
	L 4 74
	L 4 75
	L 5 75
	L 5 76
	L 4 76
	L 4 75
	L 3 75
	L 3 74
	L 4 74
	L 4 73
	L 3 73
	L 3 74
	L 2 74
	L 2 73
	L 3 73
	L 3 72
	L 2 72
	L 2 71
	L 1 71
	L 1 72
	L 2 72
	L 2 73
	L 1 73
	L 1 72
	L 1.554e-15 72
	L 1.554e-15 73
	L -1 73
	L -1 74
	L 1.554e-15 74
	L 1.677e-15 73
	L 1 73
	L 1 74
	L 1.776e-15 74
	L 1.776e-15 75
	L -1 75
	L -1 74
	L -2 74
	L -2 75
	L -1 75
	L -1 76
	L -2 76
	L -2 75
	L -3 75
	L -3 76
	L -4 76
	L -4 77
	L -3 77
	L -3 76
	L -2 76
	L -2 77
	L -3 77
	L -3 78
	L -2 78
	L -2 79
	L -1 79
	L -1 78
	L -2 78
	L -2 77
	L -1 77
	L -1 78
	L 1.998e-15 78
	L 2.121e-15 77
	L 2.243e-15 76
	L 2.366e-15 75
	L 1 75
	L 1 76
	L 2 76
	L 2 75
	L 1 75
	L 1 74
	L 2 74
	L 2 75
	L 3 75
	L 3 76
	L 2 76
	L 2 77
	L 3 77
	L 3 76
	L 4 76
	L 4 77
	L 3 77
	L 3 78
	L 2 78
	L 2 77
	L 1 77
	L 1 78
	L 2 78
	L 2 79
	L 1 79
	L 1 78
	L 2.442e-15 78
	L 2.442e-15 79
	L -1 79
	L -1 80
	L 2.442e-15 80
	L 2.565e-15 79
	L 1 79
	L 1 80
	L 2.665e-15 80
	L 2.665e-15 81
"/>
</svg>
