<svg version="1.1" baseProfile="full" xmlns="http://www.w3.org/2000/svg"
width="1024" height="681.3"
viewBox="-23.97 -15.72 32.56 21.66"
>
<rect x="-23.97" y="-15.72" width="100%" height="100%" fill="white" />
<path stroke="green" stroke-width="0.04" stroke-linecap="round" fill="none"
transform="scale(1 -1)"
d="	M 0 0
	L 0 1
	L 0.3827 1.924
	L 1.09 2.631
	L 1.472 3.555
	L 1.472 4.555
	L 1.09 5.479
	L 0.3827 6.186
	L -0.5412 6.569
	L -1.248 7.276
	L -1.631 8.2
	L -1.631 9.2
	L -1.248 10.12
	L -1.248 11.12
	L -1.631 12.05
	L -2.338 12.75
	L -3.262 13.14
	L -4.262 13.14
	L -5.186 12.75
	L -5.893 12.05
	L -6.817 11.66
	L -7.817 11.66
	L -8.741 11.28
	L -9.448 10.57
	L -10.37 10.19
	L -11.08 9.485
	L -11.46 8.561
	L -11.46 7.561
	L -11.08 6.637
	L -11.08 5.637
	L -11.46 4.713
	L -12.17 4.006
	L -13.09 3.624
	M 0 0
	L 1 -1.11e-16
	L 1.924 -0.3827
	L 2.924 -0.3827
	L 3.848 -3.331e-16
	L 4.555 0.7071
	L 4.938 1.631
	L 5.645 2.338
	L 6.027 3.262
	L 6.027 4.262
	L 5.645 5.186
	L 4.938 5.893
	L 4.555 6.817
	L 3.848 7.524
	L 3.465 8.448
	L 2.758 9.155
	L 2.375 10.08
	L 1.668 10.79
	L 1.285 11.71
	L 1.285 12.71
	L 0.9028 13.63
	L 0.1957 14.34
	L -0.7282 14.72
	L -1.728 14.72
	L -2.652 14.34
	L -3.359 13.63
	L -3.742 12.71
	L -3.742 11.71
	L -3.359 10.79
	L -3.359 9.786
	L -2.976 8.862
	L -2.269 8.155
	L -1.887 7.231
	M 0 0
	L -1 -1.11e-16
	L -1.924 0.3827
	L -2.924 0.3827
	L -3.848 0.7654
	L -4.555 1.472
	L -4.938 2.396
	L -4.938 3.396
	L -4.555 4.32
	L -4.555 5.32
	L -4.938 6.244
	L -5.645 6.951
	L -6.569 7.334
	L -7.276 8.041
	L -8.2 8.424
	L -8.907 9.131
	L -9.289 10.05
	L -9.996 10.76
	L -10.92 11.14
	L -11.63 11.85
	L -12.01 12.78
	L -12.72 13.48
	L -13.64 13.87
	L -14.64 13.87
	L -15.56 13.48
	L -16.56 13.48
	L -17.49 13.1
	L -18.49 13.1
	L -19.41 12.72
	L -20.12 12.01
	L -21.04 11.63
	L -22.04 11.63
	L -22.97 11.24
	M 0 0
	L 1.665e-16 -1
	L 0.3827 -1.924
	L 0.3827 -2.924
	L 0.7654 -3.848
	L 1.472 -4.555
	L 2.396 -4.938
	L 3.396 -4.938
	L 4.32 -4.555
	L 5.027 -3.848
	L 5.41 -2.924
	L 6.117 -2.217
	L 6.5 -1.293
	L 7.207 -0.5858
	L 7.59 0.3381
	L 7.59 1.338
	L 7.207 2.262
	L 6.5 2.969
	L 5.576 3.352
	L 4.576 3.352
	L 3.652 2.969
	L 2.945 2.262
	L 2.021 1.879
	L 1.021 1.879
	L 0.09719 1.497
	L -0.9028 1.497
	L -1.827 1.879
	L -2.827 1.879
	L -3.751 1.497
	L -4.458 0.7895
	L -5.382 0.4068
	L -6.382 0.4068
	L -7.305 0.7895
"/>
</svg>
