<svg version="1.1" baseProfile="full" xmlns="http://www.w3.org/2000/svg"
width="807.2" height="1024"
viewBox="-41.26 -193.3 153.2 194.3"
>
<rect x="-41.26" y="-193.3" width="100%" height="100%" fill="white" />
<path stroke="green" stroke-width="0.04" stroke-linecap="round" fill="none"
transform="scale(1 -1)"
d="	M 0 0
	L 0.9877 0.1564
	L 1.975 0.3129
	L 2.926 0.6219
	L 3.877 0.9309
	L 4.829 1.24
	L 5.78 1.549
	L 6.671 2.003
	L 7.562 2.457
	L 8.453 2.911
	L 9.344 3.365
	L 10.15 3.953
	L 10.96 4.54
	L 11.77 5.128
	L 12.58 5.716
	L 13.29 6.423
	L 13.99 7.13
	L 14.7 7.837
	L 15.41 8.544
	L 16.22 9.132
	L 17.03 9.72
	L 17.84 10.31
	L 18.64 10.9
	L 19.35 11.6
	L 20.06 12.31
	L 20.77 13.02
	L 21.47 13.72
	L 22.06 14.53
	L 22.65 15.34
	L 23.24 16.15
	L 23.82 16.96
	L 24.28 17.85
	L 24.73 18.74
	L 25.19 19.63
	L 25.64 20.52
	L 26.23 21.33
	L 26.82 22.14
	L 27.4 22.95
	L 27.99 23.76
	L 28.44 24.65
	L 28.9 25.54
	L 29.35 26.43
	L 29.81 27.32
	L 28.92 27.78
	L 28.33 28.59
	M 28.92 27.78
	L 28.02 28.23
	L 27.02 28.23
	L 26.13 28.69
	M 27.02 28.23
	L 26.02 28.23
	M 28.02 28.23
	L 27.13 28.69
	L 26.13 28.69
	M 27.13 28.69
	L 26.24 29.14
	L 25.66 29.95
	M 26.24 29.14
	L 25.35 29.59
	L 24.35 29.59
	L 23.46 29.14
	M 24.35 29.59
	L 23.35 29.59
	L 22.46 29.14
	L 21.87 28.33
	M 22.46 29.14
	L 21.57 28.69
	L 20.57 28.69
	M 21.57 28.69
	L 20.68 28.23
	M 23.35 29.59
	L 22.35 29.59
	L 21.46 29.14
	M 22.35 29.59
	L 21.35 29.59
	L 20.46 30.05
	M 21.35 29.59
	L 20.35 29.59
	M 25.35 29.59
	L 24.46 30.05
	L 23.46 30.05
	M 24.46 30.05
	L 23.57 30.5
	L 22.98 31.31
	L 22.83 32.3
	M 22.98 31.31
	L 22.39 32.12
	M 23.57 30.5
	L 22.68 30.96
	L 21.68 30.96
	M 22.68 30.96
	L 21.79 31.41
	L 21.2 32.22
	L 21.04 33.21
	M 21.2 32.22
	L 20.61 33.03
	L 19.72 33.48
	L 19.13 34.29
	M 19.72 33.48
	L 18.83 33.94
	M 20.61 33.03
	L 20.02 33.84
	L 19.87 34.82
	M 20.02 33.84
	L 19.44 34.65
	L 19.28 35.63
	L 19.59 36.58
	M 19.28 35.63
	L 19.12 36.62
	L 19.43 37.57
	L 19.28 38.56
	M 19.43 37.57
	L 19.74 38.52
	L 20.45 39.23
	M 19.74 38.52
	L 20.05 39.47
	M 19.12 36.62
	L 18.97 37.61
	L 18.38 38.42
	M 18.97 37.61
	L 18.81 38.6
	L 19.12 39.55
	M 18.81 38.6
	L 18.65 39.58
	M 19.44 34.65
	L 18.85 35.46
	L 17.96 35.91
	M 18.85 35.46
	L 18.26 36.26
	L 18.1 37.25
	M 18.26 36.26
	L 17.67 37.07
	L 16.78 37.53
	L 15.78 37.53
	M 16.78 37.53
	L 15.89 37.98
	M 17.67 37.07
	L 17.09 37.88
	L 16.19 38.34
	M 17.09 37.88
	L 16.5 38.69
	L 16.34 39.68
	L 15.75 40.49
	M 16.34 39.68
	L 16.18 40.67
	M 16.5 38.69
	L 15.91 39.5
	L 15.02 39.95
	M 15.91 39.5
	L 15.32 40.31
	M 21.79 31.41
	L 20.9 31.86
	L 20.31 32.67
	M 20.9 31.86
	L 20.01 32.32
	L 19.01 32.32
	L 18.11 32.77
	M 19.01 32.32
	L 18.01 32.32
	M 20.01 32.32
	L 19.11 32.77
	L 18.11 32.77
	M 19.11 32.77
	L 18.22 33.23
	L 17.64 34.04
	L 16.74 34.49
	M 17.64 34.04
	L 17.05 34.84
	M 18.22 33.23
	L 17.33 33.68
	L 16.33 33.68
	M 17.33 33.68
	L 16.44 34.13
	L 15.85 34.94
	L 14.96 35.4
	M 15.85 34.94
	L 15.27 35.75
	L 15.11 36.74
	M 15.27 35.75
	L 14.68 36.56
	L 14.52 37.55
	L 13.93 38.36
	M 14.52 37.55
	L 14.37 38.54
	M 14.68 36.56
	L 14.09 37.37
	L 13.93 38.36
	M 14.09 37.37
	L 13.5 38.18
	M 16.44 34.13
	L 15.55 34.59
	L 14.55 34.59
	M 15.55 34.59
	L 14.66 35.04
	L 14.07 35.85
	L 13.18 36.31
	M 14.07 35.85
	L 13.48 36.66
	M 14.66 35.04
	L 13.77 35.5
	L 13.18 36.31
	M 13.77 35.5
	L 12.88 35.95
	L 12.29 36.76
	L 11.4 37.21
	M 12.29 36.76
	L 11.7 37.57
	L 11.55 38.56
	M 11.7 37.57
	L 11.11 38.38
	L 10.22 38.83
	L 9.223 38.83
	M 10.22 38.83
	L 9.332 39.29
	L 8.745 40.09
	M 9.332 39.29
	L 8.441 39.74
	M 11.11 38.38
	L 10.53 39.19
	L 9.636 39.64
	M 10.53 39.19
	L 9.939 40
	L 9.782 40.98
	M 9.939 40
	L 9.351 40.8
	L 9.195 41.79
	L 8.607 42.6
	M 9.195 41.79
	L 9.038 42.78
	L 9.347 43.73
	M 9.038 42.78
	L 8.882 43.77
	M 9.351 40.8
	L 8.763 41.61
	L 8.607 42.6
	M 8.763 41.61
	L 8.175 42.42
	L 8.019 43.41
	L 7.431 44.22
	M 8.019 43.41
	L 7.863 44.4
	L 8.172 45.35
	L 8.879 46.06
	M 8.172 45.35
	L 8.481 46.3
	M 7.863 44.4
	L 7.706 45.39
	L 7.118 46.19
	M 7.706 45.39
	L 7.55 46.37
	M 8.175 42.42
	L 7.588 43.23
	L 6.697 43.69
	M 7.588 43.23
	L 7 44.04
	L 6.843 45.03
	M 7 44.04
	L 6.412 44.85
	L 6.256 45.84
	L 6.565 46.79
	M 6.256 45.84
	L 6.099 46.82
	M 6.412 44.85
	L 5.824 45.66
	L 4.933 46.11
	M 5.824 45.66
	L 5.236 46.47
	L 5.08 47.45
	M 5.236 46.47
	L 4.649 47.28
	L 4.492 48.26
	L 3.904 49.07
	M 4.492 48.26
	L 4.336 49.25
	L 4.645 50.2
	M 4.336 49.25
	L 4.179 50.24
	L 4.488 51.19
	L 5.196 51.9
	M 4.488 51.19
	L 4.797 52.14
	M 4.179 50.24
	L 4.023 51.23
	L 4.332 52.18
	M 4.023 51.23
	L 3.867 52.21
	L 3.279 53.02
	L 3.122 54.01
	M 3.279 53.02
	L 2.691 53.83
	L 2.535 54.82
	L 1.947 55.63
	M 2.535 54.82
	L 2.378 55.81
	M 2.691 53.83
	L 2.103 54.64
	L 1.212 55.1
	M 2.103 54.64
	L 1.515 55.45
	L 1.359 56.44
	M 1.515 55.45
	L 0.9276 56.26
	M 3.867 52.21
	L 3.71 53.2
	L 3.122 54.01
	M 3.71 53.2
	L 3.554 54.19
	L 2.966 55
	L 2.075 55.45
	M 2.966 55
	L 2.378 55.81
	M 3.554 54.19
	L 3.397 55.18
	L 3.706 56.13
	M 3.397 55.18
	L 3.241 56.17
	L 3.55 57.12
	L 4.257 57.82
	M 3.55 57.12
	L 3.859 58.07
	L 3.702 59.06
	L 4.011 60.01
	M 3.702 59.06
	L 3.546 60.04
	M 3.859 58.07
	L 4.168 59.02
	L 4.011 60.01
	M 4.168 59.02
	L 4.477 59.97
	L 5.184 60.68
	M 4.477 59.97
	L 4.786 60.92
	M 3.241 56.17
	L 3.084 57.15
	L 2.497 57.96
	M 3.084 57.15
	L 2.928 58.14
	L 2.34 58.95
	L 1.449 59.4
	M 2.34 58.95
	L 1.752 59.76
	M 2.928 58.14
	L 2.771 59.13
	L 2.184 59.94
	M 2.771 59.13
	L 2.615 60.12
	L 2.924 61.07
	M 2.615 60.12
	L 2.459 61.1
	M 4.649 47.28
	L 4.061 48.09
	L 3.17 48.54
	M 4.061 48.09
	L 3.473 48.89
	L 3.317 49.88
	M 3.473 48.89
	L 2.885 49.7
	L 1.994 50.16
	L 0.9943 50.16
	M 1.994 50.16
	L 1.103 50.61
	M 2.885 49.7
	L 2.298 50.51
	L 2.141 51.5
	M 2.298 50.51
	L 1.71 51.32
	L 1.553 52.31
	L 0.9656 53.12
	M 1.553 52.31
	L 1.397 53.3
	L 1.706 54.25
	M 1.397 53.3
	L 1.24 54.28
	M 1.71 51.32
	L 1.122 52.13
	L 0.231 52.58
	M 1.122 52.13
	L 0.5342 52.94
	L 0.3778 53.93
	M 0.5342 52.94
	L -0.05357 53.75
	L -0.21 54.74
	L -0.7978 55.55
	M -0.21 54.74
	L -0.3664 55.72
	L -0.05743 56.67
	L 0.6497 57.38
	M -0.05743 56.67
	L 0.2516 57.63
	M -0.3664 55.72
	L -0.5229 56.71
	L -0.2139 57.66
	M -0.5229 56.71
	L -0.6793 57.7
	M -0.05357 53.75
	L -0.6414 54.56
	L -1.532 55.01
	M -0.6414 54.56
	L -1.229 55.37
	L -1.386 56.35
	M -1.229 55.37
	L -1.817 56.18
	L -2.708 56.63
	L -3.296 57.44
	M -2.708 56.63
	L -3.599 57.08
	M -1.817 56.18
	L -2.405 56.98
	L -3.296 57.44
	M -2.405 56.98
	L -2.993 57.79
	L -3.149 58.78
	M -2.993 57.79
	L -3.58 58.6
	M 12.88 35.95
	L 11.99 36.4
	L 10.99 36.4
	M 11.99 36.4
	L 11.1 36.86
	L 10.1 36.86
	L 9.205 37.31
	M 10.1 36.86
	L 9.096 36.86
	M 11.1 36.86
	L 10.2 37.31
	L 9.205 37.31
	M 10.2 37.31
	L 9.314 37.77
	L 8.314 37.77
	L 7.423 38.22
	M 8.314 37.77
	L 7.314 37.77
	L 6.423 37.31
	L 5.835 36.5
	M 6.423 37.31
	L 5.532 36.86
	M 7.314 37.77
	L 6.314 37.77
	L 5.423 37.31
	M 6.314 37.77
	L 5.314 37.77
	L 4.423 38.22
	M 5.314 37.77
	L 4.314 37.77
	L 3.423 38.22
	L 2.423 38.22
	M 3.423 38.22
	L 2.532 38.67
	L 1.944 39.48
	M 2.532 38.67
	L 1.641 39.13
	M 4.314 37.77
	L 3.314 37.77
	L 2.423 37.31
	M 3.314 37.77
	L 2.314 37.77
	L 1.423 38.22
	M 2.314 37.77
	L 1.314 37.77
	M 9.314 37.77
	L 8.423 38.22
	L 7.423 38.22
	M 8.423 38.22
	L 7.532 38.67
	L 6.532 38.67
	L 5.641 39.13
	M 6.532 38.67
	L 5.532 38.67
	M 7.532 38.67
	L 6.641 39.13
	L 5.641 39.13
	M 6.641 39.13
	L 5.75 39.58
	L 5.162 40.39
	L 4.271 40.84
	M 5.162 40.39
	L 4.574 41.2
	M 5.75 39.58
	L 4.859 40.04
	L 3.859 40.04
	M 4.859 40.04
	L 3.968 40.49
	L 2.968 40.49
	L 2.077 40.04
	M 2.968 40.49
	L 1.968 40.49
	L 1.077 40.04
	L 0.4888 39.23
	M 1.077 40.04
	L 0.1856 39.58
	M 1.968 40.49
	L 0.9676 40.49
	L 0.07663 40.94
	M 0.9676 40.49
	L -0.03236 40.49
	L -0.9234 40.94
	L -1.923 40.94
	M -0.9234 40.94
	L -1.814 41.4
	M -0.03236 40.49
	L -1.032 40.49
	L -1.923 40.04
	M -1.032 40.49
	L -2.032 40.49
	L -2.923 40.94
	M -2.032 40.49
	L -3.032 40.49
	L -3.923 40.94
	L -4.923 40.94
	M -3.923 40.94
	L -4.814 41.4
	L -5.402 42.21
	L -6.293 42.66
	M -5.402 42.21
	L -5.99 43.02
	M -4.814 41.4
	L -5.705 41.85
	L -6.705 41.85
	M -5.705 41.85
	L -6.596 42.31
	M -3.032 40.49
	L -4.032 40.49
	L -4.923 40.04
	M -4.032 40.49
	L -5.032 40.49
	L -5.923 40.94
	M -5.032 40.49
	L -6.032 40.49
	L -6.923 40.04
	L -7.511 39.23
	M -6.923 40.04
	L -7.814 39.58
	L -8.814 39.58
	M -7.814 39.58
	L -8.705 39.13
	M -6.032 40.49
	L -7.032 40.49
	L -7.923 40.04
	M -7.032 40.49
	L -8.032 40.49
	L -8.923 40.94
	M -8.032 40.49
	L -9.032 40.49
	L -9.923 40.94
	L -10.92 40.94
	M -9.923 40.94
	L -10.81 41.4
	L -11.4 42.21
	M -10.81 41.4
	L -11.71 41.85
	M -9.032 40.49
	L -10.03 40.49
	L -10.92 40.04
	M -10.03 40.49
	L -11.03 40.49
	M 3.968 40.49
	L 3.077 40.94
	L 2.489 41.75
	M 3.077 40.94
	L 2.186 41.4
	L 1.186 41.4
	L 0.2946 41.85
	M 1.186 41.4
	L 0.1856 41.4
	M 2.186 41.4
	L 1.295 41.85
	L 0.2946 41.85
	M 1.295 41.85
	L 0.4036 42.31
	L -0.1842 43.11
	L -1.075 43.57
	M -0.1842 43.11
	L -0.772 43.92
	L -0.9284 44.91
	M -0.772 43.92
	L -1.36 44.73
	M 0.4036 42.31
	L -0.4874 42.76
	L -1.487 42.76
	M -0.4874 42.76
	L -1.378 43.21
	L -1.966 44.02
	M -1.378 43.21
	L -2.269 43.67
	L -3.269 43.67
	L -4.16 43.21
	M -3.269 43.67
	L -4.269 43.67
	L -5.16 43.21
	L -6.16 43.21
	M -5.16 43.21
	L -6.051 42.76
	M -4.269 43.67
	L -5.269 43.67
	L -6.16 43.21
	M -5.269 43.67
	L -6.269 43.67
	M -2.269 43.67
	L -3.16 44.12
	L -4.16 44.12
	M -3.16 44.12
	L -4.051 44.58
	L -4.639 45.38
	M -4.051 44.58
	L -4.942 45.03
	L -5.942 45.03
	L -6.833 45.48
	M -5.942 45.03
	L -6.942 45.03
	M -4.942 45.03
	L -5.833 45.48
	L -6.833 45.48
	M -5.833 45.48
	L -6.724 45.94
	L -7.312 46.75
	M -6.724 45.94
	L -7.615 46.39
	M 29.81 27.32
	L 30.26 28.22
	L 30.71 29.11
	L 31.17 30
	L 31.62 30.89
	L 32.21 31.7
	L 32.8 32.51
	L 33.39 33.32
	L 33.97 34.12
	L 33.16 34.71
	L 32.18 34.87
	M 33.16 34.71
	L 32.36 35.3
	L 31.37 35.46
	L 30.42 35.15
	M 31.37 35.46
	L 30.38 35.61
	M 32.36 35.3
	L 31.55 35.89
	L 30.56 36.04
	M 31.55 35.89
	L 30.74 36.48
	L 29.75 36.63
	L 28.94 37.22
	M 29.75 36.63
	L 28.76 36.79
	L 27.95 37.38
	L 26.97 37.53
	M 27.95 37.38
	L 27.14 37.96
	M 28.76 36.79
	L 27.77 36.94
	L 26.82 36.64
	M 27.77 36.94
	L 26.79 37.1
	L 25.98 37.69
	M 26.79 37.1
	L 25.8 37.26
	M 30.74 36.48
	L 29.93 37.06
	L 29.47 37.95
	M 29.93 37.06
	L 29.12 37.65
	L 28.67 38.54
	L 27.86 39.13
	M 28.67 38.54
	L 28.21 39.43
	L 28.21 40.43
	M 28.21 39.43
	L 27.76 40.32
	M 29.12 37.65
	L 28.31 38.24
	L 27.86 39.13
	M 28.31 38.24
	L 27.5 38.83
	L 26.51 38.98
	L 25.56 38.67
	M 26.51 38.98
	L 25.53 39.14
	L 24.58 38.83
	L 23.59 38.99
	M 24.58 38.83
	L 23.62 38.52
	M 25.53 39.14
	L 24.54 39.3
	L 23.59 38.99
	M 24.54 39.3
	L 23.55 39.45
	L 22.74 40.04
	M 23.55 39.45
	L 22.56 39.61
	L 21.61 39.3
	L 20.91 38.59
	M 21.61 39.3
	L 20.66 38.99
	L 19.67 39.15
	M 20.66 38.99
	L 19.71 38.68
	L 19 37.97
	L 18.69 37.02
	M 19 37.97
	L 18.3 37.27
	L 17.34 36.96
	M 18.3 37.27
	L 17.59 36.56
	M 19.71 38.68
	L 18.76 38.37
	L 18.05 37.67
	M 18.76 38.37
	L 17.81 38.06
	L 16.82 38.22
	M 17.81 38.06
	L 16.86 37.75
	L 15.87 37.91
	L 14.92 37.6
	M 15.87 37.91
	L 14.88 38.07
	L 14.07 38.66
	M 14.88 38.07
	L 13.89 38.22
	M 16.86 37.75
	L 15.91 37.45
	L 15.2 36.74
	M 15.91 37.45
	L 14.95 37.14
	M 22.56 39.61
	L 21.58 39.77
	L 20.77 40.35
	M 21.58 39.77
	L 20.59 39.92
	L 19.64 39.61
	L 18.93 38.91
	M 19.64 39.61
	L 18.69 39.3
	L 17.7 39.46
	M 18.69 39.3
	L 17.73 38.99
	M 20.59 39.92
	L 19.6 40.08
	L 18.79 40.67
	M 19.6 40.08
	L 18.61 40.23
	M 27.5 38.83
	L 26.69 39.41
	L 25.71 39.57
	M 26.69 39.41
	L 25.88 40
	L 25.43 40.89
	M 25.88 40
	L 25.07 40.59
	L 24.09 40.75
	L 23.14 40.44
	M 24.09 40.75
	L 23.1 40.9
	M 25.07 40.59
	L 24.27 41.18
	L 23.28 41.33
	M 24.27 41.18
	L 23.46 41.77
	L 23 42.66
	L 22.19 43.24
	M 23 42.66
	L 22.55 43.55
	L 22.55 44.55
	M 22.55 43.55
	L 22.09 44.44
	M 23.46 41.77
	L 22.65 42.35
	L 21.66 42.51
	M 22.65 42.35
	L 21.84 42.94
	L 20.85 43.1
	L 20.04 43.69
	M 20.85 43.1
	L 19.86 43.25
	L 18.91 42.94
	L 18.21 42.24
	M 18.91 42.94
	L 17.96 42.64
	M 19.86 43.25
	L 18.88 43.41
	L 17.92 43.1
	M 18.88 43.41
	L 17.89 43.57
	L 17.08 44.15
	L 16.62 45.05
	M 17.08 44.15
	L 16.27 44.74
	M 17.89 43.57
	L 16.9 43.72
	L 15.95 43.41
	M 16.9 43.72
	L 15.91 43.88
	L 15.1 44.47
	M 15.91 43.88
	L 14.92 44.04
	M 21.84 42.94
	L 21.03 43.53
	L 20.04 43.69
	M 21.03 43.53
	L 20.22 44.12
	L 19.23 44.27
	L 18.28 43.96
	M 19.23 44.27
	L 18.25 44.43
	M 20.22 44.12
	L 19.41 44.7
	L 18.96 45.6
	M 19.41 44.7
	L 18.6 45.29
	L 18.15 46.18
	L 18.15 47.18
	M 18.15 46.18
	L 17.69 47.07
	L 17.69 48.07
	L 17.24 48.97
	M 17.69 48.07
	L 17.69 49.07
	M 17.69 47.07
	L 17.24 47.97
	L 16.43 48.55
	M 17.24 47.97
	L 16.79 48.86
	M 18.6 45.29
	L 17.79 45.88
	L 17.34 46.77
	M 17.79 45.88
	L 16.98 46.47
	L 16.53 47.36
	L 15.72 47.95
	M 16.53 47.36
	L 16.08 48.25
	M 16.98 46.47
	L 16.18 47.06
	L 15.19 47.21
	M 16.18 47.06
	L 15.37 47.64
	L 14.91 48.53
	M 15.37 47.64
	L 14.56 48.23
	L 13.57 48.39
	L 12.62 48.08
	M 13.57 48.39
	L 12.58 48.54
	L 11.63 48.24
	L 10.64 48.39
	M 11.63 48.24
	L 10.68 47.93
	M 12.58 48.54
	L 11.59 48.7
	L 10.64 48.39
	M 11.59 48.7
	L 10.61 48.86
	L 9.798 49.44
	L 8.81 49.6
	M 9.798 49.44
	L 8.989 50.03
	L 8.535 50.92
	M 8.989 50.03
	L 8.18 50.62
	L 7.192 50.78
	L 6.241 50.47
	M 7.192 50.78
	L 6.204 50.93
	L 5.395 51.52
	M 6.204 50.93
	L 5.217 51.09
	M 8.18 50.62
	L 7.371 51.21
	L 6.383 51.36
	M 7.371 51.21
	L 6.562 51.8
	L 6.108 52.69
	M 6.562 51.8
	L 5.753 52.38
	M 10.61 48.86
	L 9.619 49.01
	L 8.668 48.7
	M 9.619 49.01
	L 8.631 49.17
	L 7.68 48.86
	L 6.973 48.15
	M 7.68 48.86
	L 6.729 48.55
	M 8.631 49.17
	L 7.644 49.33
	L 6.835 49.91
	M 7.644 49.33
	L 6.656 49.48
	L 5.847 50.07
	L 5.393 50.96
	M 5.847 50.07
	L 5.038 50.66
	M 6.656 49.48
	L 5.668 49.64
	L 4.717 49.33
	M 5.668 49.64
	L 4.681 49.8
	L 3.73 49.49
	L 3.022 48.78
	M 3.73 49.49
	L 2.779 49.18
	L 2.071 48.47
	L 1.12 48.16
	M 2.071 48.47
	L 1.364 47.76
	M 2.779 49.18
	L 1.827 48.87
	L 1.12 48.16
	M 1.827 48.87
	L 0.8764 48.56
	L -0.1113 48.72
	M 0.8764 48.56
	L -0.07465 48.25
	L -1.062 48.41
	L -2.013 48.1
	M -1.062 48.41
	L -2.05 48.56
	L -2.859 49.15
	M -2.05 48.56
	L -3.038 48.72
	M -0.07465 48.25
	L -1.026 47.94
	L -2.013 48.1
	M -1.026 47.94
	L -1.977 47.63
	L -2.684 46.93
	L -2.993 45.97
	M -2.684 46.93
	L -3.391 46.22
	L -4.342 45.91
	L -5.049 45.2
	M -4.342 45.91
	L -5.293 45.6
	M -3.391 46.22
	L -4.098 45.51
	L -4.407 44.56
	M -4.098 45.51
	L -4.805 44.8
	M -1.977 47.63
	L -2.928 47.32
	L -3.635 46.62
	M -2.928 47.32
	L -3.879 47.01
	L -4.586 46.31
	L -5.537 46
	M -4.586 46.31
	L -5.293 45.6
	M -3.879 47.01
	L -4.83 46.71
	L -5.537 46
	M -4.83 46.71
	L -5.781 46.4
	L -6.769 46.55
	M -5.781 46.4
	L -6.732 46.09
	L -7.72 46.24
	L -8.529 46.83
	M -7.72 46.24
	L -8.707 46.4
	L -9.658 46.09
	L -10.65 46.25
	M -9.658 46.09
	L -10.61 45.78
	M -8.707 46.4
	L -9.695 46.56
	L -10.65 46.25
	M -9.695 46.56
	L -10.68 46.71
	L -11.49 47.3
	M -10.68 46.71
	L -11.67 46.87
	L -12.48 47.46
	L -13.47 47.61
	M -12.48 47.46
	L -13.29 48.05
	M -11.67 46.87
	L -12.66 47.03
	L -13.47 47.61
	M -12.66 47.03
	L -13.65 47.18
	M -6.732 46.09
	L -7.683 45.78
	L -8.671 45.93
	M -7.683 45.78
	L -8.634 45.47
	L -9.341 44.76
	L -9.65 43.81
	M -9.341 44.76
	L -10.05 44.06
	L -11 43.75
	M -10.05 44.06
	L -10.76 43.35
	M -8.634 45.47
	L -9.585 45.16
	L -10.29 44.45
	M -9.585 45.16
	L -10.54 44.85
	L -11.52 45.01
	L -12.48 44.7
	M -11.52 45.01
	L -12.51 45.16
	M -10.54 44.85
	L -11.49 44.54
	L -12.19 43.84
	M -11.49 44.54
	L -12.44 44.23
	M 4.681 49.8
	L 3.693 49.95
	L 2.742 49.64
	M 3.693 49.95
	L 2.705 50.11
	L 1.896 50.7
	L 0.9086 50.85
	M 1.896 50.7
	L 1.087 51.28
	L 0.6332 52.17
	M 1.087 51.28
	L 0.2782 51.87
	M 2.705 50.11
	L 1.718 50.26
	L 0.7665 49.96
	M 1.718 50.26
	L 0.7299 50.42
	L -0.07913 51.01
	M 0.7299 50.42
	L -0.2578 50.58
	L -1.209 50.27
	L -1.916 49.56
	M -1.209 50.27
	L -2.16 49.96
	L -3.148 50.12
	M -2.16 49.96
	L -3.111 49.65
	L -3.818 48.94
	L -4.127 47.99
	M -3.818 48.94
	L -4.525 48.24
	M -3.111 49.65
	L -4.062 49.34
	L -4.769 48.63
	M -4.062 49.34
	L -5.013 49.03
	M -0.2578 50.58
	L -1.245 50.73
	L -2.197 50.43
	M -1.245 50.73
	L -2.233 50.89
	L -3.184 50.58
	L -3.891 49.87
	M -3.184 50.58
	L -4.135 50.27
	M -2.233 50.89
	L -3.221 51.05
	L -4.172 50.74
	M -3.221 51.05
	L -4.209 51.2
	L -5.018 51.79
	L -6.005 51.95
	M -5.018 51.79
	L -5.827 52.38
	L -6.281 53.27
	M -5.827 52.38
	L -6.636 52.97
	M -4.209 51.2
	L -5.196 51.36
	L -6.147 51.05
	M -5.196 51.36
	L -6.184 51.52
	L -6.993 52.1
	L -7.981 52.26
	M -6.993 52.1
	L -7.802 52.69
	L -8.256 53.58
	M -7.802 52.69
	L -8.611 53.28
	L -9.599 53.44
	L -10.41 54.02
	M -9.599 53.44
	L -10.59 53.59
	M -8.611 53.28
	L -9.42 53.87
	L -10.41 54.02
	M -9.42 53.87
	L -10.23 54.46
	M -6.184 51.52
	L -7.172 51.67
	L -8.123 51.36
	M -7.172 51.67
	L -8.159 51.83
	L -9.11 51.52
	L -10.1 51.68
	M -9.11 51.52
	L -10.06 51.21
	M -8.159 51.83
	L -9.147 51.99
	L -10.1 51.68
	M -9.147 51.99
	L -10.13 52.14
	M 14.56 48.23
	L 13.75 48.82
	L 12.76 48.98
	M 13.75 48.82
	L 12.94 49.41
	L 11.95 49.56
	L 11 49.25
	M 11.95 49.56
	L 10.96 49.72
	M 12.94 49.41
	L 12.13 49.99
	L 11.14 50.15
	M 12.13 49.99
	L 11.32 50.58
	L 10.87 51.47
	L 10.06 52.06
	M 10.87 51.47
	L 10.41 52.36
	M 11.32 50.58
	L 10.51 51.17
	L 9.525 51.33
	M 10.51 51.17
	L 9.703 51.76
	L 8.716 51.91
	L 7.765 51.61
	M 8.716 51.91
	L 7.728 52.07
	L 6.919 52.66
	M 7.728 52.07
	L 6.74 52.23
	L 5.789 51.92
	L 5.082 51.21
	M 5.789 51.92
	L 4.838 51.61
	M 6.74 52.23
	L 5.753 52.38
	L 4.802 52.07
	M 5.753 52.38
	L 4.765 52.54
	L 3.956 53.13
	L 2.968 53.28
	M 3.956 53.13
	L 3.147 53.72
	L 2.693 54.61
	M 3.147 53.72
	L 2.338 54.3
	M 4.765 52.54
	L 3.777 52.7
	L 2.968 53.28
	M 3.777 52.7
	L 2.79 52.85
	M 9.703 51.76
	L 8.894 52.35
	L 7.907 52.5
	M 8.894 52.35
	L 8.085 52.93
	L 7.098 53.09
	L 6.147 52.78
	M 7.098 53.09
	L 6.11 53.25
	L 5.301 53.83
	M 6.11 53.25
	L 5.122 53.4
	M 8.085 52.93
	L 7.276 53.52
	L 6.289 53.68
	M 7.276 53.52
	L 6.467 54.11
	L 6.013 55
	L 5.204 55.59
	M 6.013 55
	L 5.559 55.89
	L 5.559 56.89
	M 5.559 55.89
	L 5.105 56.78
	L 4.296 57.37
	L 3.309 57.53
	M 4.296 57.37
	L 3.487 57.96
	M 5.105 56.78
	L 4.651 57.67
	L 4.651 58.67
	M 4.651 57.67
	L 4.197 58.56
	L 4.197 59.56
	L 3.743 60.46
	M 4.197 59.56
	L 4.197 60.56
	M 4.197 58.56
	L 3.743 59.46
	L 2.934 60.04
	M 3.743 59.46
	L 3.289 60.35
	L 3.289 61.35
	L 2.835 62.24
	M 3.289 61.35
	L 3.289 62.35
	L 3.743 63.24
	M 3.289 62.35
	L 3.289 63.35
	L 2.835 64.24
	L 2.026 64.82
	M 2.835 64.24
	L 2.381 65.13
	M 3.289 63.35
	L 3.289 64.35
	L 3.743 65.24
	M 3.289 64.35
	L 3.289 65.35
	M 3.289 60.35
	L 2.835 61.24
	L 2.026 61.82
	M 2.835 61.24
	L 2.381 62.13
	L 2.381 63.13
	M 2.381 62.13
	L 1.927 63.02
	L 1.118 63.61
	L 0.6644 64.5
	M 1.118 63.61
	L 0.3094 64.19
	M 1.927 63.02
	L 1.473 63.91
	L 0.6644 64.5
	M 1.473 63.91
	L 1.019 64.8
	M 6.467 54.11
	L 5.658 54.7
	L 4.671 54.85
	M 5.658 54.7
	L 4.849 55.28
	L 4.395 56.18
	M 4.849 55.28
	L 4.04 55.87
	L 3.586 56.76
	L 2.777 57.35
	M 3.586 56.76
	L 3.132 57.65
	L 3.132 58.65
	M 3.132 57.65
	L 2.678 58.55
	M 4.04 55.87
	L 3.231 56.46
	L 2.244 56.62
	M 3.231 56.46
	L 2.422 57.05
	L 1.968 57.94
	L 1.159 58.53
	M 1.968 57.94
	L 1.514 58.83
	L 0.7053 59.42
	L -0.2824 59.57
	M 0.7053 59.42
	L -0.1037 60.01
	L -0.5577 60.9
	M -0.1037 60.01
	L -0.9128 60.59
	M 1.514 58.83
	L 1.06 59.72
	L 0.2513 60.31
	M 1.06 59.72
	L 0.6063 60.61
	M 2.422 57.05
	L 1.613 57.64
	L 0.6256 57.79
	M 1.613 57.64
	L 0.8042 58.22
	L -0.1835 58.38
	L -0.9925 58.97
	M -0.1835 58.38
	L -1.171 58.54
	M 0.8042 58.22
	L -0.004786 58.81
	L -0.9925 58.97
	M -0.004786 58.81
	L -0.8138 59.4
	L -1.268 60.29
	M -0.8138 59.4
	L -1.623 59.99
	L -2.077 60.88
	L -2.077 61.88
	M -2.077 60.88
	L -2.531 61.77
	M -1.623 59.99
	L -2.432 60.57
	L -3.42 60.73
	M -2.432 60.57
	L -3.241 61.16
	L -3.695 62.05
	L -3.695 63.05
	M -3.695 62.05
	L -4.149 62.94
	L -4.149 63.94
	L -3.695 64.84
	M -4.149 63.94
	L -4.149 64.94
	M -4.149 62.94
	L -4.603 63.84
	L -5.412 64.42
	M -4.603 63.84
	L -5.057 64.73
	L -5.057 65.73
	M -5.057 64.73
	L -5.511 65.62
	L -5.511 66.62
	L -5.965 67.51
	M -5.511 66.62
	L -5.511 67.62
	L -5.057 68.51
	M -5.511 67.62
	L -5.511 68.62
	L -5.965 69.51
	L -5.965 70.51
	M -5.965 69.51
	L -6.419 70.4
	M -5.511 68.62
	L -5.511 69.62
	L -5.965 70.51
	M -5.511 69.62
	L -5.511 70.62
	L -5.057 71.51
	L -4.248 72.1
	M -5.057 71.51
	L -4.603 72.4
	M -5.511 70.62
	L -5.511 71.62
	L -5.965 72.51
	M -5.511 71.62
	L -5.511 72.62
	M -5.511 65.62
	L -5.965 66.51
	L -5.965 67.51
	M -5.965 66.51
	L -6.419 67.4
	L -7.228 67.99
	L -8.215 68.14
	M -7.228 67.99
	L -8.037 68.58
	M -6.419 67.4
	L -6.873 68.29
	L -7.682 68.88
	M -6.873 68.29
	L -7.327 69.18
	L -7.327 70.18
	M -7.327 69.18
	L -7.781 70.07
	L -7.781 71.07
	L -8.235 71.96
	M -7.781 71.07
	L -7.781 72.07
	M -7.781 70.07
	L -8.235 70.96
	L -9.044 71.55
	M -8.235 70.96
	L -8.689 71.85
	L -8.689 72.85
	M -8.689 71.85
	L -9.143 72.75
	L -9.952 73.33
	L -10.94 73.49
	M -9.952 73.33
	L -10.76 73.92
	L -11.75 74.08
	L -12.7 73.77
	M -11.75 74.08
	L -12.74 74.23
	L -13.55 74.82
	M -12.74 74.23
	L -13.72 74.39
	M -10.76 73.92
	L -11.57 74.51
	L -12.02 75.4
	M -11.57 74.51
	L -12.38 75.1
	L -13.37 75.25
	L -14.18 75.84
	M -13.37 75.25
	L -14.35 75.41
	L -15.31 75.1
	L -16.01 74.39
	M -15.31 75.1
	L -16.26 74.79
	L -17.24 74.95
	M -16.26 74.79
	L -17.21 74.48
	M -14.35 75.41
	L -15.34 75.57
	L -16.29 75.26
	M -15.34 75.57
	L -16.33 75.72
	M -12.38 75.1
	L -13.19 75.68
	L -14.18 75.84
	M -13.19 75.68
	L -14 76.27
	L -14.45 77.16
	M -14 76.27
	L -14.81 76.86
	L -15.79 77.02
	L -16.74 76.71
	M -15.79 77.02
	L -16.78 77.17
	M -14.81 76.86
	L -15.61 77.45
	L -16.6 77.6
	M -15.61 77.45
	L -16.42 78.04
	L -16.88 78.93
	M -16.42 78.04
	L -17.23 78.62
	L -17.69 79.51
	L -17.69 80.51
	M -17.69 79.51
	L -18.14 80.41
	M -17.23 78.62
	L -18.04 79.21
	L -19.03 79.37
	M -18.04 79.21
	L -18.85 79.8
	M -9.143 72.75
	L -9.597 73.64
	L -9.597 74.64
	M -9.597 73.64
	L -10.05 74.53
	L -10.86 75.12
	L -11.85 75.27
	M -10.86 75.12
	L -11.67 75.7
	L -12.12 76.59
	M -11.67 75.7
	L -12.48 76.29
	M -10.05 74.53
	L -10.5 75.42
	L -11.31 76.01
	M -10.5 75.42
	L -10.96 76.31
	L -11.77 76.9
	L -12.76 77.05
	M -11.77 76.9
	L -12.58 77.49
	L -13.56 77.64
	L -14.37 78.23
	M -13.56 77.64
	L -14.55 77.8
	M -12.58 77.49
	L -13.39 78.07
	L -14.37 78.23
	M -13.39 78.07
	L -14.19 78.66
	L -14.65 79.55
	M -14.19 78.66
	L -15 79.25
	L -15.46 80.14
	L -16.27 80.73
	M -15.46 80.14
	L -15.91 81.03
	M -15 79.25
	L -15.81 79.84
	L -16.8 79.99
	M -15.81 79.84
	L -16.62 80.42
	L -17.08 81.32
	M -16.62 80.42
	L -17.43 81.01
	M -10.96 76.31
	L -11.41 77.2
	L -12.22 77.79
	M -11.41 77.2
	L -11.87 78.09
	L -11.87 79.09
	M -11.87 78.09
	L -12.32 78.98
	L -13.13 79.57
	L -14.12 79.73
	M -13.13 79.57
	L -13.94 80.16
	M -12.32 78.98
	L -12.77 79.87
	L -13.58 80.46
	M -12.77 79.87
	L -13.23 80.76
	L -13.23 81.76
	L -12.77 82.66
	M -13.23 81.76
	L -13.23 82.76
	M -13.23 80.76
	L -13.68 81.66
	L -13.68 82.66
	M -13.68 81.66
	L -14.14 82.55
	L -14.14 83.55
	L -14.59 84.44
	M -14.14 83.55
	L -14.14 84.55
	L -13.68 85.44
	M -14.14 84.55
	L -14.14 85.55
	L -14.59 86.44
	L -14.59 87.44
	M -14.59 86.44
	L -15.04 87.33
	M -14.14 85.55
	L -14.14 86.55
	L -14.59 87.44
	M -14.14 86.55
	L -14.14 87.55
	L -13.68 88.44
	M -14.14 87.55
	L -14.14 88.55
	L -13.68 89.44
	L -12.87 90.03
	M -13.68 89.44
	L -13.23 90.33
	M -14.14 88.55
	L -14.14 89.55
	L -13.68 90.44
	M -14.14 89.55
	L -14.14 90.55
	M -14.14 82.55
	L -14.59 83.44
	L -15.4 84.03
	M -14.59 83.44
	L -15.04 84.33
	L -15.04 85.33
	L -15.5 86.22
	M -15.04 85.33
	L -15.04 86.33
	M -15.04 84.33
	L -15.5 85.22
	L -15.5 86.22
	M -15.5 85.22
	L -15.95 86.11
	L -15.95 87.11
	L -15.5 88
	M -15.95 87.11
	L -15.95 88.11
	L -16.41 89
	L -17.22 89.59
	M -16.41 89
	L -16.86 89.89
	M -15.95 88.11
	L -15.95 89.11
	L -15.5 90
	M -15.95 89.11
	L -15.95 90.11
	L -15.5 91
	L -15.5 92
	M -15.5 91
	L -15.04 91.89
	L -14.24 92.48
	M -15.04 91.89
	L -14.59 92.78
	M -15.95 90.11
	L -15.95 91.11
	L -16.41 92
	M -15.95 91.11
	L -15.95 92.11
	L -16.41 93
	L -17.22 93.59
	M -16.41 93
	L -16.86 93.89
	L -16.86 94.89
	M -16.86 93.89
	L -17.31 94.78
	L -18.12 95.37
	L -19.11 95.53
	M -18.12 95.37
	L -18.93 95.96
	L -19.39 96.85
	M -18.93 95.96
	L -19.74 96.55
	M -17.31 94.78
	L -17.77 95.67
	L -18.58 96.26
	M -17.77 95.67
	L -18.22 96.57
	L -18.22 97.57
	M -18.22 96.57
	L -18.68 97.46
	L -18.68 98.46
	L -19.13 99.35
	M -18.68 98.46
	L -18.68 99.46
	M -18.68 97.46
	L -19.13 98.35
	L -19.13 99.35
	M -19.13 98.35
	L -19.58 99.24
	M -15.95 92.11
	L -15.95 93.11
	L -16.41 94
	M -15.95 93.11
	L -15.95 94.11
	L -16.41 95
	L -17.22 95.59
	M -16.41 95
	L -16.86 95.89
	L -16.86 96.89
	M -16.86 95.89
	L -17.31 96.78
	M -15.95 94.11
	L -15.95 95.11
	L -16.41 96
	M -15.95 95.11
	L -15.95 96.11
	L -15.5 97
	M -15.95 96.11
	L -15.95 97.11
	L -15.5 98
	L -15.5 99
	M -15.5 98
	L -15.04 98.89
	L -15.04 99.89
	L -14.59 100.8
	M -15.04 99.89
	L -15.04 100.9
	M -15.04 98.89
	L -14.59 99.78
	L -13.78 100.4
	M -14.59 99.78
	L -14.14 100.7
	L -13.33 101.3
	L -12.87 102.2
	M -13.33 101.3
	L -12.52 101.9
	L -11.53 102
	M -12.52 101.9
	L -11.71 102.4
	M -14.14 100.7
	L -13.68 101.6
	L -13.68 102.6
	M -13.68 101.6
	L -13.23 102.5
	M -15.95 97.11
	L -15.95 98.11
	L -16.41 99
	M -15.95 98.11
	L -15.95 99.11
	L -15.5 100
	M -15.95 99.11
	L -15.95 100.1
	L -15.5 101
	L -15.5 102
	M -15.5 101
	L -15.04 101.9
	M -15.95 100.1
	L -15.95 101.1
	L -16.41 102
	M -15.95 101.1
	L -15.95 102.1
	L -15.5 103
	M -15.95 102.1
	L -15.95 103.1
	M -15.95 86.11
	L -16.41 87
	L -17.22 87.59
	M -16.41 87
	L -16.86 87.89
	L -16.86 88.89
	M -16.86 87.89
	L -17.31 88.78
	L -17.31 89.78
	L -16.86 90.67
	M -17.31 89.78
	L -17.31 90.78
	M -17.31 88.78
	L -17.77 89.67
	L -18.58 90.26
	M -17.77 89.67
	L -18.22 90.57
	L -18.22 91.57
	M -18.22 90.57
	L -18.68 91.46
	L -19.49 92.04
	L -20.47 92.2
	M -19.49 92.04
	L -20.29 92.63
	L -20.75 93.52
	M -20.29 92.63
	L -21.1 93.22
	L -22.09 93.38
	L -23.04 93.07
	M -22.09 93.38
	L -23.08 93.53
	M -21.1 93.22
	L -21.91 93.81
	L -22.9 93.96
	M -21.91 93.81
	L -22.72 94.4
	M -18.68 91.46
	L -19.13 92.35
	L -19.13 93.35
	M -19.13 92.35
	L -19.58 93.24
	L -20.39 93.83
	L -21.38 93.98
	M -20.39 93.83
	L -21.2 94.41
	L -21.66 95.31
	M -21.2 94.41
	L -22.01 95
	M -19.58 93.24
	L -20.04 94.13
	L -20.85 94.72
	M -20.04 94.13
	L -20.49 95.02
	L -20.49 96.02
	L -20.04 96.91
	M -20.49 96.02
	L -20.49 97.02
	M -20.49 95.02
	L -20.95 95.91
	L -21.76 96.5
	M -20.95 95.91
	L -21.4 96.8
	L -21.4 97.8
	M -21.4 96.8
	L -21.85 97.69
	M -3.241 61.16
	L -4.05 61.75
	L -5.038 61.91
	M -4.05 61.75
	L -4.859 62.34
	L -5.313 63.23
	M -4.859 62.34
	L -5.668 62.93
	L -6.656 63.08
	L -7.465 63.67
	M -6.656 63.08
	L -7.643 63.24
	M -5.668 62.93
	L -6.477 63.51
	L -7.465 63.67
	M -6.477 63.51
	L -7.286 64.1
	L -8.274 64.26
	L -9.083 64.85
	M -8.274 64.26
	L -9.261 64.41
	L -10.07 65
	L -11.06 65.16
	M -10.07 65
	L -10.88 65.59
	M -9.261 64.41
	L -10.25 64.57
	L -11.2 64.26
	M -10.25 64.57
	L -11.24 64.73
	M -7.286 64.1
	L -8.095 64.69
	L -9.083 64.85
	M -8.095 64.69
	L -8.904 65.28
	L -9.892 65.43
	L -10.84 65.12
	M -9.892 65.43
	L -10.88 65.59
	M -8.904 65.28
	L -9.713 65.86
	L -10.17 66.76
	M -9.713 65.86
	L -10.52 66.45
	L -10.98 67.34
	L -11.79 67.93
	M -10.98 67.34
	L -11.43 68.23
	M -10.52 66.45
	L -11.33 67.04
	L -12.32 67.2
	M -11.33 67.04
	L -12.14 67.63
	L -12.59 68.52
	L -12.59 69.52
	M -12.59 68.52
	L -13.05 69.41
	L -13.05 70.41
	L -13.5 71.3
	M -13.05 70.41
	L -13.05 71.41
	L -12.59 72.3
	M -13.05 71.41
	L -13.05 72.41
	M -13.05 69.41
	L -13.5 70.3
	L -13.5 71.3
	M -13.5 70.3
	L -13.96 71.19
	M -12.14 67.63
	L -12.95 68.22
	L -13.4 69.11
	M -12.95 68.22
	L -13.76 68.8
	L -14.21 69.69
	L -15.02 70.28
	M -14.21 69.69
	L -14.67 70.59
	L -14.67 71.59
	M -14.67 70.59
	L -15.12 71.48
	M -13.76 68.8
	L -14.57 69.39
	L -15.02 70.28
	M -14.57 69.39
	L -15.38 69.98
	L -16.36 70.14
	L -17.31 69.83
	M -16.36 70.14
	L -17.35 70.29
	L -18.3 69.98
	L -19.01 69.28
	M -18.3 69.98
	L -19.25 69.67
	M -17.35 70.29
	L -18.34 70.45
	L -19.15 71.04
	M -18.34 70.45
	L -19.33 70.6
	L -20.14 71.19
	L -21.12 71.35
	M -20.14 71.19
	L -20.94 71.78
	L -21.4 72.67
	M -20.94 71.78
	L -21.75 72.37
	M -19.33 70.6
	L -20.31 70.76
	L -21.12 71.35
	M -20.31 70.76
	L -21.3 70.92
	L -22.25 70.61
	L -23.24 70.77
	M -22.25 70.61
	L -23.2 70.3
	L -23.91 69.59
	L -24.22 68.64
	M -23.91 69.59
	L -24.62 68.89
	M -23.2 70.3
	L -24.16 69.99
	L -24.86 69.28
	M -24.16 69.99
	L -25.11 69.68
	L -26.09 69.84
	L -26.9 70.43
	M -26.09 69.84
	L -27.08 69.99
	M -25.11 69.68
	L -26.06 69.37
	L -27.05 69.53
	M -26.06 69.37
	L -27.01 69.06
	M -21.3 70.92
	L -22.29 71.07
	L -23.24 70.77
	M -22.29 71.07
	L -23.28 71.23
	L -24.23 70.92
	L -25.22 71.08
	M -24.23 70.92
	L -25.18 70.61
	M -23.28 71.23
	L -24.27 71.39
	L -25.07 71.97
	M -24.27 71.39
	L -25.25 71.54
	M -15.38 69.98
	L -16.19 70.57
	L -17.17 70.72
	M -16.19 70.57
	L -16.99 71.15
	L -17.45 72.05
	L -17.45 73.05
	M -17.45 72.05
	L -17.9 72.94
	M -16.99 71.15
	L -17.8 71.74
	L -18.79 71.9
	M -17.8 71.74
	L -18.61 72.33
	L -19.6 72.49
	L -20.55 72.18
	M -19.6 72.49
	L -20.59 72.64
	L -21.54 72.33
	L -22.53 72.49
	M -21.54 72.33
	L -22.49 72.03
	M -20.59 72.64
	L -21.58 72.8
	L -22.53 72.49
	M -21.58 72.8
	L -22.56 72.96
	M -18.61 72.33
	L -19.42 72.92
	L -20.41 73.07
	M -19.42 72.92
	L -20.23 73.51
	L -21.22 73.66
	L -22.17 73.35
	M -21.22 73.66
	L -22.21 73.82
	M -20.23 73.51
	L -21.04 74.09
	L -22.03 74.25
	M -21.04 74.09
	L -21.85 74.68
	L -22.3 75.57
	L -22.3 76.57
	M -22.3 75.57
	L -22.76 76.46
	M -21.85 74.68
	L -22.66 75.27
	L -23.64 75.43
	M -22.66 75.27
	L -23.47 75.86
	L -23.92 76.75
	M -23.47 75.86
	L -24.28 76.44
	L -24.73 77.34
	L -24.73 78.34
	M -24.73 77.34
	L -25.18 78.23
	L -25.99 78.81
	L -26.98 78.97
	M -25.99 78.81
	L -26.8 79.4
	L -27.26 80.29
	M -26.8 79.4
	L -27.61 79.99
	M -25.18 78.23
	L -25.64 79.12
	L -26.45 79.71
	M -25.64 79.12
	L -26.09 80.01
	L -26.09 81.01
	M -26.09 80.01
	L -26.55 80.9
	M -24.28 76.44
	L -25.08 77.03
	L -26.07 77.19
	M -25.08 77.03
	L -25.89 77.62
	L -26.35 78.51
	L -27.16 79.1
	M -26.35 78.51
	L -26.8 79.4
	L -26.8 80.4
	M -26.8 79.4
	L -27.26 80.29
	M -25.89 77.62
	L -26.7 78.21
	L -27.16 79.1
	M -26.7 78.21
	L -27.51 78.8
	L -27.97 79.69
	L -27.97 80.69
	M -27.97 79.69
	L -28.42 80.58
	L -29.23 81.17
	L -30.22 81.32
	M -29.23 81.17
	L -30.04 81.75
	L -30.49 82.64
	M -30.04 81.75
	L -30.85 82.34
	M -28.42 80.58
	L -28.87 81.47
	L -29.68 82.06
	M -28.87 81.47
	L -29.33 82.36
	L -29.33 83.36
	L -28.87 84.25
	M -29.33 83.36
	L -29.33 84.36
	M -29.33 82.36
	L -29.78 83.25
	L -29.78 84.25
	M -29.78 83.25
	L -30.24 84.14
	L -31.04 84.73
	L -32.03 84.89
	M -31.04 84.73
	L -31.85 85.32
	L -32.31 86.21
	M -31.85 85.32
	L -32.66 85.91
	L -33.65 86.06
	L -34.6 85.75
	M -33.65 86.06
	L -34.64 86.22
	M -32.66 85.91
	L -33.47 86.49
	L -34.46 86.65
	M -33.47 86.49
	L -34.28 87.08
	L -34.73 87.97
	M -34.28 87.08
	L -35.09 87.67
	M -30.24 84.14
	L -30.69 85.03
	L -30.69 86.03
	M -30.69 85.03
	L -31.14 85.92
	L -31.95 86.51
	L -32.94 86.67
	M -31.95 86.51
	L -32.76 87.1
	L -33.22 87.99
	M -32.76 87.1
	L -33.57 87.69
	M -31.14 85.92
	L -31.6 86.82
	L -32.41 87.4
	M -31.6 86.82
	L -32.05 87.71
	M -27.51 78.8
	L -28.32 79.38
	L -28.77 80.27
	M -28.32 79.38
	L -29.13 79.97
	L -30.12 80.13
	L -30.93 80.72
	M -30.12 80.13
	L -31.1 80.28
	M -29.13 79.97
	L -29.94 80.56
	L -30.93 80.72
	M -29.94 80.56
	L -30.75 81.15
	L -31.2 82.04
	M -30.75 81.15
	L -31.56 81.73
	L -32.01 82.63
	L -32.82 83.21
	M -32.01 82.63
	L -32.46 83.52
	M -31.56 81.73
	L -32.37 82.32
	L -33.35 82.48
	M -32.37 82.32
	L -33.17 82.91
	L -33.63 83.8
	M -33.17 82.91
	L -33.98 83.5
	L -34.97 83.65
	L -35.78 84.24
	M -34.97 83.65
	L -35.96 83.81
	L -36.77 84.4
	L -37.22 85.29
	M -36.77 84.4
	L -37.58 84.99
	M -35.96 83.81
	L -36.95 83.97
	L -37.76 84.56
	M -36.95 83.97
	L -37.93 84.12
	M -33.98 83.5
	L -34.79 84.09
	L -35.25 84.98
	M -34.79 84.09
	L -35.6 84.67
	L -36.59 84.83
	L -37.54 84.52
	M -36.59 84.83
	L -37.58 84.99
	L -38.39 85.57
	M -37.58 84.99
	L -38.56 85.14
	M -35.6 84.67
	L -36.41 85.26
	L -36.86 86.15
	M -36.41 85.26
	L -37.22 85.85
	M 33.97 34.12
	L 34.56 34.93
	L 35.15 35.74
	L 35.74 36.55
	L 36.33 37.36
	L 36.78 38.25
	L 37.23 39.14
	L 37.69 40.03
	L 38.14 40.92
	L 38.73 41.73
	L 39.32 42.54
	L 39.9 43.35
	L 40.49 44.16
	L 40.95 45.05
	L 41.4 45.94
	L 41.85 46.83
	L 42.31 47.72
	L 42.9 48.53
	L 43.48 49.34
	L 44.07 50.15
	L 44.66 50.96
	L 45.11 51.85
	L 45.57 52.74
	L 46.02 53.63
	L 46.48 54.52
	L 47.06 55.33
	L 47.65 56.14
	L 48.24 56.95
	L 48.83 57.76
	L 49.28 58.65
	L 49.73 59.54
	L 50.19 60.43
	L 50.64 61.32
	L 51.23 62.13
	L 51.82 62.94
	L 52.41 63.75
	L 52.99 64.56
	L 53.45 65.45
	L 53.9 66.34
	L 54.36 67.23
	L 54.81 68.12
	L 55.12 69.08
	L 55.43 70.03
	L 55.74 70.98
	L 56.05 71.93
	L 56.5 72.82
	L 56.95 73.71
	L 57.41 74.6
	L 57.86 75.49
	L 56.97 75.95
	L 55.97 75.95
	M 56.97 75.95
	L 56.08 76.4
	L 55.08 76.4
	L 54.19 75.95
	M 55.08 76.4
	L 54.08 76.4
	L 53.19 76.86
	M 54.08 76.4
	L 53.08 76.4
	M 56.08 76.4
	L 55.19 76.86
	L 54.19 76.86
	M 55.19 76.86
	L 54.3 77.31
	L 53.71 78.12
	L 52.82 78.57
	M 53.71 78.12
	L 53.12 78.93
	M 54.3 77.31
	L 53.41 77.76
	L 52.41 77.76
	M 53.41 77.76
	L 52.52 78.22
	L 51.93 79.03
	M 52.52 78.22
	L 51.62 78.67
	L 50.62 78.67
	L 49.73 78.22
	M 50.62 78.67
	L 49.62 78.67
	L 48.73 78.22
	L 48.15 77.41
	M 48.73 78.22
	L 47.84 77.76
	M 49.62 78.67
	L 48.62 78.67
	L 47.73 78.22
	M 48.62 78.67
	L 47.62 78.67
	L 46.73 79.12
	M 47.62 78.67
	L 46.62 78.67
	L 45.73 79.12
	L 44.73 79.12
	M 45.73 79.12
	L 44.84 79.58
	M 46.62 78.67
	L 45.62 78.67
	L 44.73 78.22
	M 45.62 78.67
	L 44.62 78.67
	M 51.62 78.67
	L 50.73 79.12
	L 49.73 79.12
	M 50.73 79.12
	L 49.84 79.58
	L 49.25 80.39
	M 49.84 79.58
	L 48.95 80.03
	L 47.95 80.03
	L 47.06 79.58
	M 47.95 80.03
	L 46.95 80.03
	L 46.06 80.49
	M 46.95 80.03
	L 45.95 80.03
	M 48.95 80.03
	L 48.06 80.49
	L 47.47 81.3
	M 48.06 80.49
	L 47.17 80.94
	L 46.58 81.75
	L 45.69 82.2
	M 46.58 81.75
	L 45.99 82.56
	M 47.17 80.94
	L 46.28 81.39
	L 45.69 82.2
	M 46.28 81.39
	L 45.39 81.85
	L 44.8 82.66
	L 44.64 83.65
	M 44.8 82.66
	L 44.21 83.47
	L 43.32 83.92
	L 42.32 83.92
	M 43.32 83.92
	L 42.43 84.37
	L 41.84 85.18
	M 42.43 84.37
	L 41.54 84.83
	M 44.21 83.47
	L 43.62 84.28
	L 42.73 84.73
	M 43.62 84.28
	L 43.04 85.08
	L 42.88 86.07
	L 42.29 86.88
	M 42.88 86.07
	L 42.72 87.06
	M 43.04 85.08
	L 42.45 85.89
	L 41.56 86.35
	M 42.45 85.89
	L 41.86 86.7
	L 41.7 87.69
	M 41.86 86.7
	L 41.27 87.51
	M 45.39 81.85
	L 44.5 82.3
	L 43.5 82.3
	M 44.5 82.3
	L 43.61 82.76
	L 43.02 83.57
	M 43.61 82.76
	L 42.71 83.21
	L 41.71 83.21
	L 40.82 83.66
	M 41.71 83.21
	L 40.71 83.21
	M 42.71 83.21
	L 41.82 83.66
	L 41.24 84.47
	M 41.82 83.66
	L 40.93 84.12
	L 40.34 84.93
	L 40.19 85.92
	M 40.34 84.93
	L 39.76 85.74
	M 40.93 84.12
	L 40.04 84.57
	L 39.04 84.57
	M 40.04 84.57
	L 39.15 85.03
	L 38.56 85.84
	M 39.15 85.03
	L 38.26 85.48
	L 37.26 85.48
	L 36.37 85.93
	M 37.26 85.48
	L 36.26 85.48
	L 35.37 85.03
	L 34.78 84.22
	M 35.37 85.03
	L 34.48 84.57
	L 33.48 84.57
	M 34.48 84.57
	L 33.59 84.12
	M 36.26 85.48
	L 35.26 85.48
	L 34.37 85.93
	M 35.26 85.48
	L 34.26 85.48
	L 33.37 85.93
	L 32.78 86.74
	M 33.37 85.93
	L 32.48 86.39
	L 31.89 87.2
	L 31 87.65
	M 31.89 87.2
	L 31.3 88.01
	L 31.15 88.99
	M 31.3 88.01
	L 30.71 88.82
	M 32.48 86.39
	L 31.59 86.84
	L 30.59 86.84
	M 31.59 86.84
	L 30.7 87.3
	L 30.11 88.11
	M 30.7 87.3
	L 29.8 87.75
	M 34.26 85.48
	L 33.26 85.48
	L 32.37 85.93
	M 33.26 85.48
	L 32.26 85.48
	L 31.37 85.03
	L 30.78 84.22
	M 31.37 85.03
	L 30.48 84.57
	M 32.26 85.48
	L 31.26 85.48
	L 30.37 85.03
	M 31.26 85.48
	L 30.26 85.48
	L 29.37 85.93
	M 30.26 85.48
	L 29.26 85.48
	L 28.37 85.93
	L 27.78 86.74
	M 28.37 85.93
	L 27.48 86.39
	M 29.26 85.48
	L 28.26 85.48
	L 27.37 85.03
	M 28.26 85.48
	L 27.26 85.48
	M 38.26 85.48
	L 37.37 85.93
	L 36.37 85.93
	M 37.37 85.93
	L 36.48 86.39
	L 35.89 87.2
	L 35 87.65
	M 35.89 87.2
	L 35.3 88.01
	L 35.15 88.99
	M 35.3 88.01
	L 34.71 88.82
	M 36.48 86.39
	L 35.59 86.84
	L 34.59 86.84
	M 35.59 86.84
	L 34.7 87.3
	L 34.11 88.11
	L 33.22 88.56
	M 34.11 88.11
	L 33.52 88.91
	L 33.36 89.9
	M 33.52 88.91
	L 32.93 89.72
	L 32.78 90.71
	L 32.19 91.52
	M 32.78 90.71
	L 32.62 91.7
	L 32.93 92.65
	M 32.62 91.7
	L 32.46 92.69
	M 32.93 89.72
	L 32.34 90.53
	L 31.45 90.99
	M 32.34 90.53
	L 31.76 91.34
	M 34.7 87.3
	L 33.8 87.75
	L 32.8 87.75
	M 33.8 87.75
	L 32.91 88.2
	L 32.33 89.01
	L 31.43 89.47
	M 32.33 89.01
	L 31.74 89.82
	M 32.91 88.2
	L 32.02 88.66
	L 31.02 88.66
	M 32.02 88.66
	L 31.13 89.11
	L 30.13 89.11
	L 29.24 89.57
	M 30.13 89.11
	L 29.13 89.11
	L 28.24 88.66
	L 27.65 87.85
	M 28.24 88.66
	L 27.35 88.2
	M 29.13 89.11
	L 28.13 89.11
	L 27.24 88.66
	M 28.13 89.11
	L 27.13 89.11
	L 26.24 88.66
	L 25.65 87.85
	M 26.24 88.66
	L 25.35 88.2
	L 24.35 88.2
	M 25.35 88.2
	L 24.46 87.75
	L 23.87 86.94
	L 23.71 85.95
	M 23.87 86.94
	L 23.28 86.13
	L 22.39 85.68
	M 23.28 86.13
	L 22.69 85.32
	M 24.46 87.75
	L 23.57 87.3
	L 22.98 86.49
	M 23.57 87.3
	L 22.68 86.84
	M 27.13 89.11
	L 26.13 89.11
	L 25.24 89.57
	M 26.13 89.11
	L 25.13 89.11
	L 24.24 88.66
	L 23.65 87.85
	M 24.24 88.66
	L 23.35 88.2
	L 22.35 88.2
	M 23.35 88.2
	L 22.46 87.75
	M 25.13 89.11
	L 24.13 89.11
	L 23.24 88.66
	M 24.13 89.11
	L 23.13 89.11
	L 22.24 89.57
	M 23.13 89.11
	L 22.13 89.11
	L 21.24 89.57
	L 20.65 90.38
	M 21.24 89.57
	L 20.35 90.02
	M 22.13 89.11
	L 21.13 89.11
	L 20.24 88.66
	M 21.13 89.11
	L 20.13 89.11
	L 19.24 89.57
	M 20.13 89.11
	L 19.13 89.11
	L 18.24 89.57
	L 17.24 89.57
	M 18.24 89.57
	L 17.35 90.02
	L 16.76 90.83
	L 16.61 91.82
	M 16.76 90.83
	L 16.17 91.64
	M 17.35 90.02
	L 16.46 90.47
	L 15.46 90.47
	M 16.46 90.47
	L 15.57 90.93
	L 14.98 91.74
	M 15.57 90.93
	L 14.68 91.38
	M 19.13 89.11
	L 18.13 89.11
	L 17.24 88.66
	M 18.13 89.11
	L 17.13 89.11
	L 16.24 88.66
	L 15.24 88.66
	M 16.24 88.66
	L 15.35 88.2
	M 17.13 89.11
	L 16.13 89.11
	L 15.24 89.57
	M 16.13 89.11
	L 15.13 89.11
	L 14.24 89.57
	L 13.65 90.38
	M 14.24 89.57
	L 13.35 90.02
	M 15.13 89.11
	L 14.13 89.11
	L 13.24 89.57
	M 14.13 89.11
	L 13.13 89.11
	L 12.24 88.66
	L 11.24 88.66
	M 12.24 88.66
	L 11.35 88.2
	L 10.76 87.4
	L 10.61 86.41
	M 10.76 87.4
	L 10.17 86.59
	M 11.35 88.2
	L 10.46 87.75
	L 9.458 87.75
	M 10.46 87.75
	L 9.567 87.3
	L 8.567 87.3
	L 7.676 86.84
	M 8.567 87.3
	L 7.567 87.3
	M 9.567 87.3
	L 8.676 86.84
	L 8.088 86.03
	M 8.676 86.84
	L 7.785 86.39
	L 7.197 85.58
	L 7.041 84.59
	M 7.197 85.58
	L 6.61 84.77
	L 5.719 84.32
	M 6.61 84.77
	L 6.022 83.96
	L 5.865 82.97
	L 5.278 82.17
	M 5.865 82.97
	L 5.709 81.99
	M 6.022 83.96
	L 5.434 83.15
	L 5.278 82.17
	M 5.434 83.15
	L 4.846 82.34
	L 3.955 81.89
	M 4.846 82.34
	L 4.259 81.53
	M 7.785 86.39
	L 6.894 85.93
	L 6.306 85.13
	M 6.894 85.93
	L 6.003 85.48
	L 5.415 84.67
	L 4.524 84.22
	M 5.415 84.67
	L 4.828 83.86
	M 6.003 85.48
	L 5.112 85.03
	L 4.112 85.03
	M 5.112 85.03
	L 4.221 84.57
	L 3.221 84.57
	L 2.33 84.12
	M 3.221 84.57
	L 2.221 84.57
	M 4.221 84.57
	L 3.33 84.12
	L 2.33 84.12
	M 3.33 84.12
	L 2.439 83.66
	M 13.13 89.11
	L 12.13 89.11
	L 11.24 88.66
	M 12.13 89.11
	L 11.13 89.11
	L 10.24 89.57
	M 11.13 89.11
	L 10.13 89.11
	L 9.24 88.66
	L 8.652 87.85
	M 9.24 88.66
	L 8.349 88.2
	M 10.13 89.11
	L 9.131 89.11
	L 8.24 89.57
	M 9.131 89.11
	L 8.131 89.11
	L 7.24 89.57
	L 6.24 89.57
	M 7.24 89.57
	L 6.349 90.02
	L 5.761 90.83
	M 6.349 90.02
	L 5.458 90.47
	M 8.131 89.11
	L 7.131 89.11
	L 6.24 88.66
	M 7.131 89.11
	L 6.131 89.11
	L 5.24 88.66
	L 4.24 88.66
	M 5.24 88.66
	L 4.349 88.2
	L 3.349 88.2
	L 2.458 87.75
	M 3.349 88.2
	L 2.349 88.2
	L 1.458 88.66
	M 2.349 88.2
	L 1.349 88.2
	M 4.349 88.2
	L 3.458 87.75
	L 2.458 87.75
	M 3.458 87.75
	L 2.567 87.3
	M 6.131 89.11
	L 5.131 89.11
	L 4.24 89.57
	M 5.131 89.11
	L 4.131 89.11
	L 3.24 88.66
	L 2.652 87.85
	M 3.24 88.66
	L 2.349 88.2
	L 1.349 88.2
	M 2.349 88.2
	L 1.458 87.75
	M 4.131 89.11
	L 3.131 89.11
	L 2.24 88.66
	M 3.131 89.11
	L 2.131 89.11
	L 1.24 89.57
	L 0.2403 89.57
	M 1.24 89.57
	L 0.3493 90.02
	L -0.6507 90.02
	L -1.542 90.47
	M -0.6507 90.02
	L -1.651 90.02
	M 0.3493 90.02
	L -0.5417 90.47
	L -1.542 90.47
	M -0.5417 90.47
	L -1.433 90.93
	L -2.021 91.74
	M -1.433 90.93
	L -2.324 91.38
	L -2.912 92.19
	L -3.068 93.18
	M -2.912 92.19
	L -3.499 93
	M -2.324 91.38
	L -3.215 91.84
	L -3.803 92.65
	M -3.215 91.84
	L -4.106 92.29
	L -5.106 92.29
	L -5.997 92.74
	M -5.106 92.29
	L -6.106 92.29
	L -6.997 91.84
	L -7.585 91.03
	M -6.997 91.84
	L -7.888 91.38
	L -8.888 91.38
	M -7.888 91.38
	L -8.779 90.93
	M -6.106 92.29
	L -7.106 92.29
	L -7.997 91.84
	M -7.106 92.29
	L -8.106 92.29
	L -8.997 92.74
	M -8.106 92.29
	L -9.106 92.29
	L -9.997 92.74
	L -11 92.74
	M -9.997 92.74
	L -10.89 93.2
	L -11.48 94.01
	M -10.89 93.2
	L -11.78 93.65
	M -9.106 92.29
	L -10.11 92.29
	L -11 92.74
	M -10.11 92.29
	L -11.11 92.29
	M -4.106 92.29
	L -4.997 92.74
	L -5.997 92.74
	M -4.997 92.74
	L -5.888 93.2
	L -6.476 94.01
	L -6.632 95
	M -6.476 94.01
	L -7.063 94.82
	M -5.888 93.2
	L -6.779 93.65
	L -7.367 94.46
	M -6.779 93.65
	L -7.67 94.11
	M 2.131 89.11
	L 1.131 89.11
	L 0.2403 89.57
	M 1.131 89.11
	L 0.1313 89.11
	L -0.7597 88.66
	L -1.348 87.85
	M -0.7597 88.66
	L -1.651 88.2
	M 0.1313 89.11
	L -0.8687 89.11
	L -1.76 89.57
	M -0.8687 89.11
	L -1.869 89.11
	L -2.76 89.57
	L -3.76 89.57
	M -2.76 89.57
	L -3.651 90.02
	M -1.869 89.11
	L -2.869 89.11
	L -3.76 88.66
	M -2.869 89.11
	L -3.869 89.11
	L -4.76 88.66
	L -5.76 88.66
	M -4.76 88.66
	L -5.651 88.2
	L -6.239 87.4
	L -6.395 86.41
	M -6.239 87.4
	L -6.826 86.59
	M -5.651 88.2
	L -6.542 87.75
	L -7.13 86.94
	M -6.542 87.75
	L -7.433 87.3
	M -3.869 89.11
	L -4.869 89.11
	L -5.76 88.66
	M -4.869 89.11
	L -5.869 89.11
	L -6.76 88.66
	L -7.348 87.85
	M -6.76 88.66
	L -7.651 88.2
	M -5.869 89.11
	L -6.869 89.11
	L -7.76 88.66
	M -6.869 89.11
	L -7.869 89.11
	L -8.76 89.57
	L -9.76 89.57
	M -8.76 89.57
	L -9.651 90.02
	L -10.24 90.83
	M -9.651 90.02
	L -10.54 90.47
	M -7.869 89.11
	L -8.869 89.11
	L -9.76 88.66
	M -8.869 89.11
	L -9.869 89.11
	M 31.13 89.11
	L 30.24 89.57
	L 29.24 89.57
	M 30.24 89.57
	L 29.35 90.02
	L 28.35 90.02
	L 27.46 89.57
	M 28.35 90.02
	L 27.35 90.02
	M 29.35 90.02
	L 28.46 90.47
	L 27.46 90.47
	M 28.46 90.47
	L 27.57 90.93
	L 26.98 91.74
	L 26.09 92.19
	M 26.98 91.74
	L 26.39 92.55
	L 26.24 93.53
	M 26.39 92.55
	L 25.8 93.36
	L 24.91 93.81
	L 23.91 93.81
	M 24.91 93.81
	L 24.02 94.26
	M 25.8 93.36
	L 25.22 94.16
	L 24.33 94.62
	M 25.22 94.16
	L 24.63 94.97
	L 24.47 95.96
	M 24.63 94.97
	L 24.04 95.78
	L 23.88 96.77
	L 24.19 97.72
	M 23.88 96.77
	L 23.73 97.76
	M 24.04 95.78
	L 23.45 96.59
	L 22.56 97.05
	M 23.45 96.59
	L 22.86 97.4
	L 22.71 98.39
	M 22.86 97.4
	L 22.28 98.21
	M 27.57 90.93
	L 26.68 91.38
	L 25.68 91.38
	M 26.68 91.38
	L 25.79 91.84
	L 25.2 92.65
	M 25.79 91.84
	L 24.89 92.29
	L 23.89 92.29
	L 23 92.74
	M 23.89 92.29
	L 22.89 92.29
	M 24.89 92.29
	L 24 92.74
	L 23 92.74
	M 24 92.74
	L 23.11 93.2
	L 22.52 94.01
	M 23.11 93.2
	L 22.22 93.65
	L 21.63 94.46
	L 21.48 95.45
	M 21.63 94.46
	L 21.05 95.27
	M 22.22 93.65
	L 21.33 94.11
	L 20.33 94.11
	M 21.33 94.11
	L 20.44 94.56
	L 19.85 95.37
	M 20.44 94.56
	L 19.55 95.01
	L 18.55 95.01
	L 17.66 94.56
	M 18.55 95.01
	L 17.55 95.01
	L 16.66 95.47
	M 17.55 95.01
	L 16.55 95.01
	L 15.66 94.56
	L 15.07 93.75
	M 15.66 94.56
	L 14.77 94.11
	M 16.55 95.01
	L 15.55 95.01
	L 14.66 94.56
	M 15.55 95.01
	L 14.55 95.01
	L 13.66 95.47
	L 12.66 95.47
	M 13.66 95.47
	L 12.77 95.92
	M 14.55 95.01
	L 13.55 95.01
	L 12.66 95.47
	M 13.55 95.01
	L 12.55 95.01
	L 11.66 95.47
	L 10.66 95.47
	M 11.66 95.47
	L 10.77 95.92
	L 10.18 96.73
	M 10.77 95.92
	L 9.875 96.38
	L 8.875 96.38
	L 7.984 95.92
	M 8.875 96.38
	L 7.875 96.38
	M 9.875 96.38
	L 8.984 96.83
	L 7.984 96.83
	M 8.984 96.83
	L 8.093 97.28
	L 7.505 98.09
	L 6.614 98.55
	M 7.505 98.09
	L 6.918 98.9
	L 6.761 99.89
	M 6.918 98.9
	L 6.33 99.71
	M 8.093 97.28
	L 7.202 97.74
	L 6.202 97.74
	M 7.202 97.74
	L 6.311 98.19
	M 12.55 95.01
	L 11.55 95.01
	L 10.66 94.56
	M 11.55 95.01
	L 10.55 95.01
	L 9.657 95.47
	M 10.55 95.01
	L 9.548 95.01
	L 8.657 94.56
	L 7.657 94.56
	M 8.657 94.56
	L 7.766 94.11
	M 9.548 95.01
	L 8.548 95.01
	L 7.657 95.47
	M 8.548 95.01
	L 7.548 95.01
	L 6.657 95.47
	L 5.657 95.47
	M 6.657 95.47
	L 5.766 95.92
	M 7.548 95.01
	L 6.548 95.01
	L 5.657 94.56
	M 6.548 95.01
	L 5.548 95.01
	M 19.55 95.01
	L 18.66 95.47
	L 18.07 96.28
	M 18.66 95.47
	L 17.77 95.92
	L 17.18 96.73
	L 17.02 97.72
	M 17.18 96.73
	L 16.59 97.54
	M 17.77 95.92
	L 16.88 96.38
	L 16.29 97.19
	M 16.88 96.38
	L 15.98 96.83
	L 15.4 97.64
	L 14.51 98.09
	M 15.4 97.64
	L 14.81 98.45
	L 14.65 99.44
	M 14.81 98.45
	L 14.22 99.26
	L 13.33 99.71
	L 12.33 99.71
	M 13.33 99.71
	L 12.44 100.2
	L 11.85 101
	M 12.44 100.2
	L 11.55 100.6
	M 14.22 99.26
	L 13.63 100.1
	L 13.48 101.1
	M 13.63 100.1
	L 13.05 100.9
	L 12.89 101.9
	L 12.3 102.7
	M 12.89 101.9
	L 12.73 102.9
	L 13.04 103.8
	M 12.73 102.9
	L 12.58 103.8
	M 13.05 100.9
	L 12.46 101.7
	L 11.57 102.1
	M 12.46 101.7
	L 11.87 102.5
	L 11.71 103.5
	M 11.87 102.5
	L 11.28 103.3
	M 15.98 96.83
	L 15.09 97.28
	L 14.51 98.09
	M 15.09 97.28
	L 14.2 97.74
	L 13.2 97.74
	L 12.31 97.28
	M 13.2 97.74
	L 12.2 97.74
	M 14.2 97.74
	L 13.31 98.19
	L 12.31 98.19
	M 13.31 98.19
	L 12.42 98.65
	L 11.83 99.46
	M 12.42 98.65
	L 11.53 99.1
	L 10.94 99.91
	L 10.05 100.4
	M 10.94 99.91
	L 10.35 100.7
	L 9.463 101.2
	L 8.463 101.2
	M 9.463 101.2
	L 8.572 101.6
	L 7.984 102.4
	M 8.572 101.6
	L 7.681 102.1
	M 10.35 100.7
	L 9.766 101.5
	L 8.875 102
	M 9.766 101.5
	L 9.178 102.3
	L 9.022 103.3
	L 9.331 104.3
	M 9.022 103.3
	L 8.865 104.3
	M 9.178 102.3
	L 8.59 103.1
	L 7.699 103.6
	M 8.59 103.1
	L 8.002 104
	L 7.846 104.9
	M 8.002 104
	L 7.415 104.8
	L 6.524 105.2
	L 5.524 105.2
	M 6.524 105.2
	L 5.633 105.7
	L 4.633 105.7
	L 3.742 105.2
	M 4.633 105.7
	L 3.633 105.7
	L 2.742 106.1
	M 3.633 105.7
	L 2.633 105.7
	M 5.633 105.7
	L 4.742 106.1
	L 4.154 106.9
	M 4.742 106.1
	L 3.851 106.6
	M 7.415 104.8
	L 6.827 105.6
	L 6.67 106.6
	M 6.827 105.6
	L 6.239 106.4
	L 5.348 106.8
	L 4.76 107.6
	M 5.348 106.8
	L 4.457 107.3
	M 6.239 106.4
	L 5.651 107.2
	L 4.76 107.6
	M 5.651 107.2
	L 5.063 108
	L 4.907 109
	L 4.319 109.8
	M 4.907 109
	L 4.751 110
	L 5.06 110.9
	M 4.751 110
	L 4.594 111
	M 5.063 108
	L 4.476 108.8
	L 3.585 109.3
	M 4.476 108.8
	L 3.888 109.6
	L 3.731 110.6
	L 3.144 111.4
	M 3.731 110.6
	L 3.575 111.6
	L 3.884 112.5
	M 3.575 111.6
	L 3.419 112.6
	L 3.728 113.5
	L 3.571 114.5
	M 3.728 113.5
	L 4.037 114.5
	M 3.419 112.6
	L 3.262 113.6
	L 2.674 114.4
	M 3.262 113.6
	L 3.106 114.6
	L 3.415 115.5
	M 3.106 114.6
	L 2.949 115.5
	M 3.888 109.6
	L 3.3 110.4
	L 2.409 110.9
	M 3.3 110.4
	L 2.712 111.2
	L 2.556 112.2
	M 2.712 111.2
	L 2.125 112
	L 1.234 112.5
	L 0.2336 112.5
	M 1.234 112.5
	L 0.3426 113
	L -0.2452 113.8
	M 0.3426 113
	L -0.5484 113.4
	M 2.125 112
	L 1.537 112.9
	L 0.6458 113.3
	M 1.537 112.9
	L 0.949 113.7
	L 0.7926 114.7
	L 1.102 115.6
	M 0.7926 114.7
	L 0.6361 115.6
	M 0.949 113.7
	L 0.3612 114.5
	L 0.2048 115.5
	M 0.3612 114.5
	L -0.2266 115.3
	M 11.53 99.1
	L 10.64 99.55
	L 9.638 99.55
	M 10.64 99.55
	L 9.747 100
	L 9.159 100.8
	M 9.747 100
	L 8.856 100.5
	L 7.856 100.5
	L 6.965 100
	M 7.856 100.5
	L 6.856 100.5
	M 8.856 100.5
	L 7.965 100.9
	L 7.377 101.7
	M 7.965 100.9
	L 7.074 101.4
	L 6.486 102.2
	L 5.595 102.6
	M 6.486 102.2
	L 5.899 103
	L 5.742 104
	M 5.899 103
	L 5.311 103.8
	M 7.074 101.4
	L 6.183 101.8
	L 5.183 101.8
	M 6.183 101.8
	L 5.292 102.3
	L 4.292 102.3
	L 3.401 101.8
	M 4.292 102.3
	L 3.292 102.3
	L 2.401 101.8
	L 1.813 101
	M 2.401 101.8
	L 1.51 101.4
	L 0.5101 101.4
	M 1.51 101.4
	L 0.6191 100.9
	M 3.292 102.3
	L 2.292 102.3
	L 1.401 102.7
	M 2.292 102.3
	L 1.292 102.3
	M 5.292 102.3
	L 4.401 102.7
	L 3.401 102.7
	M 4.401 102.7
	L 3.51 103.2
	L 2.922 104
	M 3.51 103.2
	L 2.619 103.6
	L 2.031 104.4
	L 1.875 105.4
	M 2.031 104.4
	L 1.443 105.3
	M 2.619 103.6
	L 1.728 104.1
	L 0.7281 104.1
	M 1.728 104.1
	L 0.8371 104.5
	L 0.2493 105.4
	M 0.8371 104.5
	L -0.05395 105
	L -0.6417 105.8
	L -1.533 106.3
	M -0.6417 105.8
	L -1.23 106.6
	L -1.386 107.6
	M -1.23 106.6
	L -1.817 107.4
	L -2.708 107.9
	L -3.708 107.9
	M -2.708 107.9
	L -3.599 108.3
	L -4.187 109.1
	M -3.599 108.3
	L -4.49 108.8
	M -1.817 107.4
	L -2.405 108.2
	L -2.562 109.2
	M -2.405 108.2
	L -2.993 109
	L -3.149 110
	L -3.737 110.8
	M -3.149 110
	L -3.306 111
	L -2.997 112
	M -3.306 111
	L -3.462 112
	M -2.993 109
	L -3.581 109.9
	L -4.472 110.3
	M -3.581 109.9
	L -4.168 110.7
	M -0.05395 105
	L -0.945 105.5
	L -1.533 106.3
	M -0.945 105.5
	L -1.836 105.9
	L -2.836 105.9
	L -3.727 106.4
	M -2.836 105.9
	L -3.836 105.9
	M -1.836 105.9
	L -2.727 106.4
	L -3.727 106.4
	M -2.727 106.4
	L -3.618 106.8
	L -4.206 107.6
	M -3.618 106.8
	L -4.509 107.3
	L -5.097 108.1
	L -5.988 108.5
	M -5.097 108.1
	L -5.685 108.9
	L -6.576 109.3
	L -7.163 110.2
	M -6.576 109.3
	L -7.467 109.8
	M -5.685 108.9
	L -6.272 109.7
	L -6.429 110.7
	M -6.272 109.7
	L -6.86 110.5
	L -7.017 111.5
	L -6.708 112.4
	M -7.017 111.5
	L -7.173 112.5
	L -6.864 113.4
	L -7.02 114.4
	M -6.864 113.4
	L -6.555 114.4
	L -5.848 115.1
	M -6.555 114.4
	L -6.246 115.3
	M -7.173 112.5
	L -7.329 113.5
	L -7.02 114.4
	M -7.329 113.5
	L -7.486 114.5
	M -6.86 110.5
	L -7.448 111.3
	L -8.339 111.8
	M -7.448 111.3
	L -8.036 112.1
	L -8.192 113.1
	L -7.883 114.1
	M -8.192 113.1
	L -8.349 114.1
	M -8.036 112.1
	L -8.623 112.9
	L -9.514 113.4
	M -8.623 112.9
	L -9.211 113.7
	L -10.1 114.2
	L -10.69 115
	M -10.1 114.2
	L -10.99 114.7
	L -11.58 115.5
	L -12.47 115.9
	M -11.58 115.5
	L -12.17 116.3
	L -12.33 117.3
	M -12.17 116.3
	L -12.76 117.1
	M -10.99 114.7
	L -11.88 115.1
	L -12.88 115.1
	M -11.88 115.1
	L -12.78 115.6
	L -13.36 116.4
	L -14.25 116.8
	M -13.36 116.4
	L -13.95 117.2
	L -14.11 118.2
	L -13.8 119.1
	M -14.11 118.2
	L -14.26 119.2
	M -13.95 117.2
	L -14.54 118
	L -15.43 118.4
	M -14.54 118
	L -15.13 118.8
	M -12.78 115.6
	L -13.67 116
	L -14.67 116
	M -13.67 116
	L -14.56 116.5
	L -15.56 116.5
	L -16.45 116.9
	M -15.56 116.5
	L -16.56 116.5
	M -14.56 116.5
	L -15.45 116.9
	L -16.45 116.9
	M -15.45 116.9
	L -16.34 117.4
	L -16.93 118.2
	L -17.82 118.6
	M -16.93 118.2
	L -17.51 119
	M -16.34 117.4
	L -17.23 117.8
	L -18.23 117.8
	M -17.23 117.8
	L -18.12 118.3
	L -18.71 119.1
	M -18.12 118.3
	L -19.01 118.7
	M -9.211 113.7
	L -9.799 114.6
	L -10.69 115
	M -9.799 114.6
	L -10.39 115.4
	L -11.28 115.8
	L -12.28 115.8
	M -11.28 115.8
	L -12.17 116.3
	M -10.39 115.4
	L -10.97 116.2
	L -11.87 116.6
	M -10.97 116.2
	L -11.56 117
	L -11.72 118
	M -11.56 117
	L -12.15 117.8
	L -13.04 118.2
	L -13.63 119.1
	M -13.04 118.2
	L -13.93 118.7
	L -14.93 118.7
	L -15.82 119.2
	M -14.93 118.7
	L -15.93 118.7
	M -13.93 118.7
	L -14.82 119.2
	L -15.41 120
	M -14.82 119.2
	L -15.71 119.6
	M -12.15 117.8
	L -12.74 118.6
	L -13.63 119.1
	M -12.74 118.6
	L -13.33 119.4
	L -14.22 119.9
	L -15.22 119.9
	M -14.22 119.9
	L -15.11 120.3
	M -13.33 119.4
	L -13.91 120.2
	L -14.07 121.2
	M -13.91 120.2
	L -14.5 121
	L -14.66 122
	L -15.25 122.8
	M -14.66 122
	L -14.81 123
	L -15.4 123.8
	L -16.29 124.3
	M -15.4 123.8
	L -15.99 124.6
	M -14.81 123
	L -14.97 124
	L -15.56 124.8
	M -14.97 124
	L -15.13 125
	L -15.71 125.8
	L -15.87 126.8
	M -15.71 125.8
	L -16.3 126.6
	L -17.19 127
	L -18.19 127
	M -17.19 127
	L -18.08 127.5
	L -18.67 128.3
	M -18.08 127.5
	L -18.98 128
	M -16.3 126.6
	L -16.89 127.4
	L -17.78 127.9
	M -16.89 127.4
	L -17.48 128.2
	M -15.13 125
	L -15.28 126
	L -15.87 126.8
	M -15.28 126
	L -15.44 127
	L -16.03 127.8
	L -16.92 128.2
	M -16.03 127.8
	L -16.62 128.6
	L -16.77 129.6
	M -16.62 128.6
	L -17.2 129.4
	M -15.44 127
	L -15.6 127.9
	L -16.18 128.7
	M -15.6 127.9
	L -15.75 128.9
	L -15.44 129.9
	M -15.75 128.9
	L -15.91 129.9
	M -14.5 121
	L -15.09 121.8
	L -15.98 122.3
	M -15.09 121.8
	L -15.68 122.6
	L -15.83 123.6
	M -15.68 122.6
	L -16.26 123.5
	L -17.16 123.9
	L -18.16 123.9
	M -17.16 123.9
	L -18.05 124.4
	M -16.26 123.5
	L -16.85 124.3
	L -17.74 124.7
	M -16.85 124.3
	L -17.44 125.1
	L -17.6 126.1
	M -17.44 125.1
	L -18.03 125.9
	L -18.18 126.9
	L -18.77 127.7
	M -18.18 126.9
	L -18.34 127.9
	L -18.03 128.8
	M -18.34 127.9
	L -18.5 128.8
	L -19.09 129.7
	L -19.98 130.1
	M -19.09 129.7
	L -19.67 130.5
	L -19.83 131.4
	M -19.67 130.5
	L -20.26 131.3
	M -18.5 128.8
	L -18.65 129.8
	L -19.24 130.6
	M -18.65 129.8
	L -18.81 130.8
	L -18.5 131.8
	L -18.66 132.8
	M -18.5 131.8
	L -18.19 132.7
	L -17.49 133.4
	M -18.19 132.7
	L -17.88 133.7
	M -18.81 130.8
	L -18.97 131.8
	L -19.55 132.6
	M -18.97 131.8
	L -19.12 132.8
	L -18.81 133.7
	M -19.12 132.8
	L -19.28 133.8
	M -18.03 125.9
	L -18.62 126.7
	L -19.51 127.1
	M -18.62 126.7
	L -19.2 127.5
	L -19.36 128.5
	L -19.95 129.3
	M -19.36 128.5
	L -19.52 129.5
	L -19.21 130.4
	M -19.52 129.5
	L -19.67 130.5
	M -19.2 127.5
	L -19.79 128.3
	L -20.68 128.8
	M -19.79 128.3
	L -20.38 129.1
	L -20.54 130.1
	M -20.38 129.1
	L -20.97 129.9
	M -4.509 107.3
	L -5.4 107.7
	L -6.4 107.7
	M -5.4 107.7
	L -6.291 108.2
	L -6.879 109
	M -6.291 108.2
	L -7.182 108.6
	L -8.182 108.6
	L -9.073 109.1
	M -8.182 108.6
	L -9.182 108.6
	M -7.182 108.6
	L -8.073 109.1
	L -9.073 109.1
	M -8.073 109.1
	L -8.964 109.5
	L -9.964 109.5
	L -10.86 109.1
	M -9.964 109.5
	L -10.96 109.5
	L -11.86 110
	M -10.96 109.5
	L -11.96 109.5
	L -12.86 109.1
	L -13.44 108.3
	M -12.86 109.1
	L -13.75 108.6
	L -14.75 108.6
	M -13.75 108.6
	L -14.64 108.2
	M -11.96 109.5
	L -12.96 109.5
	L -13.86 110
	M -12.96 109.5
	L -13.96 109.5
	L -14.86 110
	L -15.86 110
	M -14.86 110
	L -15.75 110.5
	M -13.96 109.5
	L -14.96 109.5
	L -15.86 110
	M -14.96 109.5
	L -15.96 109.5
	M -8.964 109.5
	L -9.855 110
	L -10.44 110.8
	M -9.855 110
	L -10.75 110.5
	L -11.75 110.5
	L -12.64 110.9
	M -11.75 110.5
	L -12.75 110.5
	M -10.75 110.5
	L -11.64 110.9
	L -12.64 110.9
	M -11.64 110.9
	L -12.53 111.4
	L -13.12 112.2
	L -13.27 113.2
	M -13.12 112.2
	L -13.7 113
	M -12.53 111.4
	L -13.42 111.8
	L -14.42 111.8
	M -13.42 111.8
	L -14.31 112.3
	L -14.9 113.1
	L -15.79 113.5
	M -14.9 113.1
	L -15.49 113.9
	L -15.64 114.9
	L -15.33 115.8
	M -15.64 114.9
	L -15.8 115.9
	M -15.49 113.9
	L -16.07 114.7
	L -16.96 115.1
	M -16.07 114.7
	L -16.66 115.5
	L -16.82 116.5
	M -16.66 115.5
	L -17.25 116.3
	M -14.31 112.3
	L -15.2 112.7
	L -15.79 113.5
	M -15.2 112.7
	L -16.09 113.2
	L -16.68 114
	L -16.84 115
	M -16.68 114
	L -17.27 114.8
	M -16.09 113.2
	L -16.98 113.6
	L -17.98 113.6
	M -16.98 113.6
	L -17.87 114.1
	L -18.46 114.9
	M -17.87 114.1
	L -18.77 114.5
	L -19.77 114.5
	L -20.66 114.1
	M -19.77 114.5
	L -20.77 114.5
	L -21.66 115
	M -20.77 114.5
	L -21.77 114.5
	L -22.66 114.1
	L -23.24 113.3
	M -22.66 114.1
	L -23.55 113.6
	L -24.55 113.6
	M -23.55 113.6
	L -24.44 113.2
	M -21.77 114.5
	L -22.77 114.5
	L -23.66 114.1
	M -22.77 114.5
	L -23.77 114.5
	L -24.66 115
	L -25.66 115
	M -24.66 115
	L -25.55 115.4
	M -23.77 114.5
	L -24.77 114.5
	L -25.66 114.1
	M -24.77 114.5
	L -25.77 114.5
	L -26.66 115
	L -27.66 115
	M -26.66 115
	L -27.55 115.4
	L -28.55 115.4
	L -29.44 115
	M -28.55 115.4
	L -29.55 115.4
	M -27.55 115.4
	L -28.44 115.9
	L -29.03 116.7
	M -28.44 115.9
	L -29.33 116.4
	L -29.92 117.2
	L -30.81 117.6
	M -29.92 117.2
	L -30.5 118
	M -29.33 116.4
	L -30.22 116.8
	L -30.81 117.6
	M -30.22 116.8
	L -31.11 117.3
	M -25.77 114.5
	L -26.77 114.5
	L -27.66 115
	M -26.77 114.5
	L -27.77 114.5
	L -28.66 115
	L -29.24 115.8
	M -28.66 115
	L -29.55 115.4
	M -27.77 114.5
	L -28.77 114.5
	L -29.66 115
	M -28.77 114.5
	L -29.77 114.5
	M -18.77 114.5
	L -19.66 115
	L -20.66 115
	M -19.66 115
	L -20.55 115.4
	L -21.13 116.3
	M -20.55 115.4
	L -21.44 115.9
	L -22.03 116.7
	L -22.18 117.7
	M -22.03 116.7
	L -22.61 117.5
	M -21.44 115.9
	L -22.33 116.4
	L -23.33 116.4
	M -22.33 116.4
	L -23.22 116.8
	L -24.22 116.8
	L -25.11 116.4
	M -24.22 116.8
	L -25.22 116.8
	L -26.11 116.4
	L -26.7 115.5
	M -26.11 116.4
	L -27 115.9
	M -25.22 116.8
	L -26.22 116.8
	L -27.11 116.4
	M -26.22 116.8
	L -27.22 116.8
	L -28.11 117.3
	M -27.22 116.8
	L -28.22 116.8
	L -29.11 117.3
	L -30.11 117.3
	M -29.11 117.3
	L -30 117.7
	L -30.59 118.5
	M -30 117.7
	L -30.89 118.2
	M -28.22 116.8
	L -29.22 116.8
	L -30.11 116.4
	M -29.22 116.8
	L -30.22 116.8
	L -31.11 117.3
	M -30.22 116.8
	L -31.22 116.8
	M -23.22 116.8
	L -24.11 117.3
	L -25.11 117.3
	M -24.11 117.3
	L -25 117.7
	L -25.59 118.5
	M -25 117.7
	L -25.89 118.2
	L -26.48 119
	L -27.37 119.4
	M -26.48 119
	L -27.07 119.8
	M -25.89 118.2
	L -26.78 118.6
	L -27.78 118.6
	M -26.78 118.6
	L -27.68 119.1
	L -28.26 119.9
	L -28.42 120.9
	M -28.26 119.9
	L -28.85 120.7
	L -29.01 121.7
	L -29.59 122.5
	M -29.01 121.7
	L -29.16 122.7
	L -28.85 123.6
	M -29.16 122.7
	L -29.32 123.7
	M -28.85 120.7
	L -29.44 121.5
	L -30.33 122
	M -29.44 121.5
	L -30.03 122.3
	L -30.18 123.3
	M -30.03 122.3
	L -30.61 123.1
	L -31.51 123.6
	L -32.51 123.6
	M -31.51 123.6
	L -32.4 124
	L -32.98 124.8
	M -32.4 124
	L -33.29 124.5
	L -33.87 125.3
	L -34.77 125.7
	M -33.87 125.3
	L -34.46 126.1
	L -34.62 127.1
	M -34.46 126.1
	L -35.05 126.9
	M -33.29 124.5
	L -34.18 124.9
	L -35.18 124.9
	M -34.18 124.9
	L -35.07 125.4
	L -35.66 126.2
	M -35.07 125.4
	L -35.96 125.8
	M -30.61 123.1
	L -31.2 123.9
	L -31.36 124.9
	M -31.2 123.9
	L -31.79 124.7
	L -32.68 125.2
	L -33.27 126
	M -32.68 125.2
	L -33.57 125.6
	M -31.79 124.7
	L -32.38 125.5
	L -32.53 126.5
	M -32.38 125.5
	L -32.97 126.4
	M -27.68 119.1
	L -28.57 119.5
	L -29.15 120.3
	M -28.57 119.5
	L -29.46 120
	L -30.46 120
	L -31.35 119.5
	M -30.46 120
	L -31.46 120
	L -32.35 120.4
	M -31.46 120
	L -32.46 120
	M -29.46 120
	L -30.35 120.4
	L -31.35 120.4
	M -30.35 120.4
	L -31.24 120.9
	L -31.83 121.7
	L -32.72 122.2
	M -31.83 121.7
	L -32.41 122.5
	M -31.24 120.9
	L -32.13 121.3
	L -33.13 121.3
	M -32.13 121.3
	L -33.02 121.8
	L -34.02 121.8
	L -34.91 121.3
	M -34.02 121.8
	L -35.02 121.8
	L -35.91 122.3
	L -36.91 122.3
	M -35.91 122.3
	L -36.8 122.7
	L -37.39 123.5
	M -36.8 122.7
	L -37.69 123.2
	M -35.02 121.8
	L -36.02 121.8
	L -36.91 122.3
	M -36.02 121.8
	L -37.02 121.8
	M -33.02 121.8
	L -33.91 122.3
	L -34.91 122.3
	M -33.91 122.3
	L -34.8 122.7
	L -35.39 123.5
	L -35.55 124.5
	M -35.39 123.5
	L -35.98 124.3
	M -34.8 122.7
	L -35.69 123.2
	L -36.69 123.2
	M -35.69 123.2
	L -36.59 123.6
	L -37.17 124.4
	L -37.33 125.4
	M -37.17 124.4
	L -37.76 125.2
	L -37.92 126.2
	L -38.51 127
	M -37.92 126.2
	L -38.07 127.2
	M -37.76 125.2
	L -38.35 126
	L -39.24 126.5
	M -38.35 126
	L -38.94 126.9
	M -36.59 123.6
	L -37.48 124.1
	L -38.48 124.1
	M -37.48 124.1
	L -38.37 124.5
	L -38.96 125.3
	L -39.11 126.3
	M -38.96 125.3
	L -39.54 126.1
	M -38.37 124.5
	L -39.26 125
	L -40.26 125
	M -39.26 125
	L -40.15 125.4
	M 57.86 75.49
	L 58.32 76.38
	L 58.77 77.28
	L 59.22 78.17
	L 59.68 79.06
	L 59.99 80.01
	L 60.3 80.96
	L 60.6 81.91
	L 60.91 82.86
	L 61.07 83.85
	L 61.23 84.84
	L 61.38 85.82
	L 61.54 86.81
	L 61.85 87.76
	L 62.16 88.71
	L 62.47 89.67
	L 62.78 90.62
	L 63.23 91.51
	L 63.68 92.4
	L 64.14 93.29
	L 64.59 94.18
	L 65.18 94.99
	L 65.77 95.8
	L 66.35 96.61
	L 66.94 97.42
	L 67.4 98.31
	L 67.85 99.2
	L 68.3 100.1
	L 68.76 101
	L 69.35 101.8
	L 69.93 102.6
	L 70.52 103.4
	L 71.11 104.2
	L 71.82 104.9
	L 72.52 105.6
	L 73.23 106.3
	L 73.94 107
	L 73.23 107.8
	L 72.28 108.1
	M 73.23 107.8
	L 72.52 108.5
	L 72.21 109.4
	M 72.52 108.5
	L 71.82 109.2
	L 70.87 109.5
	L 70.16 110.2
	M 70.87 109.5
	L 69.91 109.8
	M 71.82 109.2
	L 71.11 109.9
	L 70.16 110.2
	M 71.11 109.9
	L 70.4 110.6
	L 70.09 111.5
	M 70.4 110.6
	L 69.7 111.3
	L 69.39 112.2
	L 68.68 112.9
	M 69.39 112.2
	L 69.08 113.2
	L 69.23 114.2
	L 68.92 115.1
	M 69.23 114.2
	L 69.39 115.2
	M 69.08 113.2
	L 68.77 114.1
	L 68.06 114.8
	M 68.77 114.1
	L 68.46 115.1
	M 69.7 111.3
	L 68.99 112
	L 68.04 112.3
	M 68.99 112
	L 68.28 112.7
	L 67.97 113.7
	M 68.28 112.7
	L 67.57 113.4
	L 66.62 113.7
	L 65.92 114.4
	M 66.62 113.7
	L 65.67 114
	M 67.57 113.4
	L 66.87 114.1
	L 66.56 115.1
	M 66.87 114.1
	L 66.16 114.8
	L 65.85 115.8
	L 65.14 116.5
	M 65.85 115.8
	L 65.54 116.7
	L 65.7 117.7
	L 65.39 118.7
	M 65.7 117.7
	L 65.85 118.7
	L 66.44 119.5
	M 65.85 118.7
	L 66.01 119.7
	M 65.54 116.7
	L 65.23 117.7
	L 64.53 118.4
	M 65.23 117.7
	L 64.92 118.6
	L 65.08 119.6
	M 64.92 118.6
	L 64.61 119.6
	L 63.91 120.3
	L 62.96 120.6
	M 63.91 120.3
	L 63.2 121
	L 62.89 121.9
	M 63.2 121
	L 62.49 121.7
	L 61.54 122
	L 60.55 121.9
	M 61.54 122
	L 60.59 122.3
	L 59.88 123
	M 60.59 122.3
	L 59.64 122.6
	M 62.49 121.7
	L 61.79 122.4
	L 60.84 122.7
	M 61.79 122.4
	L 61.08 123.1
	L 60.77 124.1
	M 61.08 123.1
	L 60.37 123.8
	M 64.61 119.6
	L 64.31 120.5
	L 63.6 121.2
	M 64.31 120.5
	L 64 121.5
	L 64.15 122.5
	M 64 121.5
	L 63.69 122.4
	L 62.98 123.1
	L 62.67 124.1
	M 62.98 123.1
	L 62.27 123.8
	M 63.69 122.4
	L 63.38 123.4
	L 62.67 124.1
	M 63.38 123.4
	L 63.07 124.3
	L 63.23 125.3
	L 62.92 126.3
	M 63.23 125.3
	L 63.38 126.3
	M 63.07 124.3
	L 62.76 125.3
	L 62.05 126
	M 62.76 125.3
	L 62.45 126.2
	L 62.61 127.2
	M 62.45 126.2
	L 62.14 127.2
	L 62.3 128.2
	L 61.99 129.1
	M 62.3 128.2
	L 62.46 129.2
	L 63.04 130
	M 62.46 129.2
	L 62.61 130.1
	L 62.3 131.1
	L 61.6 131.8
	M 62.3 131.1
	L 61.99 132.1
	M 62.61 130.1
	L 62.77 131.1
	L 62.46 132.1
	M 62.77 131.1
	L 62.92 132.1
	L 63.51 132.9
	L 63.67 133.9
	M 63.51 132.9
	L 64.1 133.7
	L 64.99 134.2
	M 64.1 133.7
	L 64.69 134.6
	M 62.92 132.1
	L 63.08 133.1
	L 62.77 134.1
	M 63.08 133.1
	L 63.24 134.1
	L 63.83 134.9
	M 63.24 134.1
	L 63.39 135.1
	M 62.14 127.2
	L 61.83 128.1
	L 61.13 128.8
	M 61.83 128.1
	L 61.52 129.1
	L 60.82 129.8
	L 59.87 130.1
	M 60.82 129.8
	L 60.11 130.5
	M 61.52 129.1
	L 61.22 130
	L 60.51 130.7
	M 61.22 130
	L 60.91 131
	L 61.06 132
	L 60.75 132.9
	M 61.06 132
	L 61.22 133
	L 61.81 133.8
	M 61.22 133
	L 61.38 134
	M 60.91 131
	L 60.6 131.9
	L 60.75 132.9
	M 60.6 131.9
	L 60.29 132.9
	M 66.16 114.8
	L 65.45 115.5
	L 64.5 115.8
	M 65.45 115.5
	L 64.75 116.2
	L 64.44 117.2
	L 64.59 118.2
	M 64.44 117.2
	L 64.13 118.1
	M 64.75 116.2
	L 64.04 116.9
	L 63.73 117.9
	M 64.04 116.9
	L 63.33 117.7
	L 63.02 118.6
	L 63.18 119.6
	M 63.02 118.6
	L 62.71 119.6
	L 62.01 120.3
	L 61.7 121.2
	M 62.01 120.3
	L 61.3 121
	M 62.71 119.6
	L 62.4 120.5
	L 61.7 121.2
	M 62.4 120.5
	L 62.1 121.5
	L 62.25 122.4
	M 62.1 121.5
	L 61.79 122.4
	L 61.94 123.4
	L 61.63 124.3
	M 61.94 123.4
	L 62.1 124.4
	L 62.69 125.2
	M 62.1 124.4
	L 62.26 125.4
	M 61.79 122.4
	L 61.48 123.4
	L 60.77 124.1
	M 61.48 123.4
	L 61.17 124.3
	L 61.32 125.3
	M 61.17 124.3
	L 60.86 125.3
	M 63.33 117.7
	L 62.62 118.4
	L 61.67 118.7
	M 62.62 118.4
	L 61.92 119.1
	L 61.61 120
	M 61.92 119.1
	L 61.21 119.8
	L 60.26 120.1
	L 59.55 120.8
	M 60.26 120.1
	L 59.31 120.4
	M 61.21 119.8
	L 60.5 120.5
	L 60.19 121.4
	M 60.5 120.5
	L 59.8 121.2
	L 59.49 122.1
	L 58.78 122.8
	M 59.49 122.1
	L 59.18 123.1
	L 59.33 124.1
	M 59.18 123.1
	L 58.87 124
	M 59.8 121.2
	L 59.09 121.9
	L 58.14 122.2
	M 59.09 121.9
	L 58.38 122.6
	L 58.07 123.6
	M 58.38 122.6
	L 57.67 123.3
	L 57.37 124.3
	L 56.66 125
	M 57.37 124.3
	L 57.06 125.2
	L 56.35 125.9
	L 56.04 126.9
	M 56.35 125.9
	L 55.64 126.6
	M 57.06 125.2
	L 56.75 126.2
	L 56.04 126.9
	M 56.75 126.2
	L 56.44 127.1
	L 56.59 128.1
	M 56.44 127.1
	L 56.13 128.1
	L 56.29 129.1
	L 56.87 129.9
	M 56.29 129.1
	L 56.44 130
	L 57.03 130.8
	L 57.19 131.8
	M 57.03 130.8
	L 57.62 131.7
	L 58.51 132.1
	M 57.62 131.7
	L 58.21 132.5
	M 56.44 130
	L 56.6 131
	L 56.29 132
	M 56.6 131
	L 56.76 132
	L 57.34 132.8
	M 56.76 132
	L 56.91 133
	M 56.13 128.1
	L 55.82 129
	L 55.98 130
	M 55.82 129
	L 55.51 130
	L 54.8 130.7
	L 53.85 131
	M 54.8 130.7
	L 54.1 131.4
	L 53.79 132.3
	M 54.1 131.4
	L 53.39 132.1
	M 55.51 130
	L 55.2 130.9
	L 54.5 131.6
	M 55.2 130.9
	L 54.89 131.9
	L 55.05 132.9
	L 55.64 133.7
	M 55.05 132.9
	L 55.21 133.8
	M 54.89 131.9
	L 54.58 132.8
	L 53.88 133.5
	M 54.58 132.8
	L 54.28 133.8
	L 53.57 134.5
	L 52.62 134.8
	M 53.57 134.5
	L 52.86 135.2
	L 52.55 136.1
	M 52.86 135.2
	L 52.15 135.9
	L 51.2 136.2
	L 50.5 136.9
	M 51.2 136.2
	L 50.25 136.5
	M 52.15 135.9
	L 51.45 136.6
	L 50.5 136.9
	M 51.45 136.6
	L 50.74 137.3
	L 50.43 138.3
	L 49.72 139
	M 50.43 138.3
	L 50.12 139.2
	M 50.74 137.3
	L 50.03 138
	L 49.08 138.3
	M 50.03 138
	L 49.33 138.7
	L 49.02 139.7
	M 49.33 138.7
	L 48.62 139.4
	L 47.67 139.7
	L 46.96 140.4
	M 47.67 139.7
	L 46.72 140
	L 45.73 139.9
	L 44.92 139.3
	M 45.73 139.9
	L 44.74 139.7
	M 46.72 140
	L 45.77 140.4
	L 44.78 140.2
	M 45.77 140.4
	L 44.81 140.7
	L 44.11 141.4
	L 43.16 141.7
	M 44.11 141.4
	L 43.4 142.1
	L 43.09 143
	M 43.4 142.1
	L 42.69 142.8
	M 44.81 140.7
	L 43.86 141
	L 42.88 140.8
	M 43.86 141
	L 42.91 141.3
	L 42.2 142
	M 42.91 141.3
	L 41.96 141.6
	M 48.62 139.4
	L 47.91 140.1
	L 47.6 141.1
	M 47.91 140.1
	L 47.2 140.8
	L 46.25 141.2
	L 45.55 141.9
	M 46.25 141.2
	L 45.3 141.5
	M 47.2 140.8
	L 46.5 141.5
	L 45.55 141.9
	M 46.5 141.5
	L 45.79 142.3
	L 45.48 143.2
	M 45.79 142.3
	L 45.08 143
	L 44.77 143.9
	L 44.07 144.6
	M 44.77 143.9
	L 44.46 144.9
	M 45.08 143
	L 44.38 143.7
	L 43.42 144
	M 44.38 143.7
	L 43.67 144.4
	M 54.28 133.8
	L 53.97 134.7
	L 53.26 135.4
	M 53.97 134.7
	L 53.66 135.7
	L 53.81 136.7
	M 53.66 135.7
	L 53.35 136.6
	L 52.64 137.3
	L 51.69 137.6
	M 52.64 137.3
	L 51.93 138
	L 51.63 139
	M 51.93 138
	L 51.23 138.7
	M 53.35 136.6
	L 53.04 137.6
	L 53.2 138.6
	M 53.04 137.6
	L 52.73 138.5
	L 52.89 139.5
	L 52.58 140.5
	M 52.89 139.5
	L 53.04 140.5
	M 52.73 138.5
	L 52.42 139.5
	L 51.71 140.2
	M 52.42 139.5
	L 52.11 140.4
	L 51.41 141.1
	L 51.1 142.1
	M 51.41 141.1
	L 50.7 141.8
	L 49.75 142.2
	L 48.76 142
	M 49.75 142.2
	L 48.8 142.5
	L 48.09 143.2
	M 48.8 142.5
	L 47.84 142.8
	M 50.7 141.8
	L 49.99 142.5
	L 49.04 142.9
	M 49.99 142.5
	L 49.28 143.3
	L 48.97 144.2
	M 49.28 143.3
	L 48.58 144
	M 52.11 140.4
	L 51.8 141.4
	L 51.1 142.1
	M 51.8 141.4
	L 51.49 142.3
	L 50.79 143
	L 49.84 143.3
	M 50.79 143
	L 50.08 143.7
	L 49.77 144.7
	M 50.08 143.7
	L 49.37 144.5
	M 51.49 142.3
	L 51.19 143.3
	L 50.48 144
	M 51.19 143.3
	L 50.88 144.2
	L 51.03 145.2
	M 50.88 144.2
	L 50.57 145.2
	M 57.67 123.3
	L 56.97 124
	L 56.02 124.3
	M 56.97 124
	L 56.26 124.7
	L 55.95 125.7
	M 56.26 124.7
	L 55.55 125.4
	L 55.24 126.4
	L 54.54 127.1
	M 55.24 126.4
	L 54.94 127.3
	L 55.09 128.3
	M 54.94 127.3
	L 54.63 128.3
	M 55.55 125.4
	L 54.85 126.1
	L 53.9 126.4
	M 54.85 126.1
	L 54.14 126.8
	L 53.19 127.2
	L 52.48 127.9
	M 53.19 127.2
	L 52.24 127.5
	L 51.53 128.2
	L 51.22 129.1
	M 51.53 128.2
	L 50.82 128.9
	M 52.24 127.5
	L 51.29 127.8
	L 50.3 127.6
	M 51.29 127.8
	L 50.33 128.1
	L 49.63 128.8
	M 50.33 128.1
	L 49.38 128.4
	M 54.14 126.8
	L 53.43 127.6
	L 53.12 128.5
	M 53.43 127.6
	L 52.72 128.3
	L 52.42 129.2
	L 51.71 129.9
	M 52.42 129.2
	L 52.11 130.2
	M 52.72 128.3
	L 52.02 129
	L 51.71 129.9
	M 52.02 129
	L 51.31 129.7
	L 51 130.6
	L 50.29 131.3
	M 51 130.6
	L 50.69 131.6
	L 49.99 132.3
	L 49.03 132.6
	M 49.99 132.3
	L 49.28 133
	L 48.97 133.9
	M 49.28 133
	L 48.57 133.7
	M 50.69 131.6
	L 50.38 132.5
	L 49.68 133.2
	M 50.38 132.5
	L 50.07 133.5
	L 50.23 134.5
	L 49.92 135.4
	M 50.23 134.5
	L 50.39 135.5
	M 50.07 133.5
	L 49.77 134.4
	L 49.92 135.4
	M 49.77 134.4
	L 49.46 135.4
	M 51.31 129.7
	L 50.6 130.4
	L 50.29 131.3
	M 50.6 130.4
	L 49.9 131.1
	L 48.95 131.4
	L 48.24 132.1
	M 48.95 131.4
	L 47.99 131.7
	M 49.9 131.1
	L 49.19 131.8
	L 48.88 132.7
	M 49.19 131.8
	L 48.48 132.5
	L 48.17 133.5
	L 47.47 134.2
	M 48.17 133.5
	L 47.86 134.4
	L 48.02 135.4
	M 47.86 134.4
	L 47.56 135.4
	M 48.48 132.5
	L 47.77 133.2
	L 46.82 133.5
	M 47.77 133.2
	L 47.07 133.9
	L 46.76 134.9
	M 47.07 133.9
	L 46.36 134.6
	L 45.41 134.9
	L 44.42 134.8
	M 45.41 134.9
	L 44.46 135.2
	L 43.75 135.9
	L 42.8 136.3
	M 43.75 135.9
	L 43.04 136.7
	M 44.46 135.2
	L 43.51 135.5
	L 42.8 136.3
	M 43.51 135.5
	L 42.56 135.9
	L 41.57 135.7
	L 40.62 136
	M 41.57 135.7
	L 40.58 135.5
	L 39.77 135
	L 39.32 134.1
	M 39.77 135
	L 38.96 134.4
	M 40.58 135.5
	L 39.59 135.4
	L 38.64 135.7
	M 39.59 135.4
	L 38.61 135.2
	M 42.56 135.9
	L 41.61 136.2
	L 40.9 136.9
	M 41.61 136.2
	L 40.65 136.5
	L 39.95 137.2
	L 39 137.5
	M 39.95 137.2
	L 39.24 137.9
	L 38.93 138.8
	M 39.24 137.9
	L 38.53 138.6
	M 40.65 136.5
	L 39.7 136.8
	L 38.72 136.6
	M 39.7 136.8
	L 38.75 137.1
	M 46.36 134.6
	L 45.65 135.3
	L 44.7 135.6
	M 45.65 135.3
	L 44.95 136
	L 44.64 137
	M 44.95 136
	L 44.24 136.7
	L 43.29 137.1
	L 42.3 136.9
	M 43.29 137.1
	L 42.34 137.4
	L 41.63 138.1
	M 42.34 137.4
	L 41.39 137.7
	M 44.24 136.7
	L 43.53 137.5
	L 42.58 137.8
	M 43.53 137.5
	L 42.83 138.2
	L 42.52 139.1
	L 41.81 139.8
	M 42.52 139.1
	L 42.21 140.1
	L 42.36 141
	M 42.21 140.1
	L 41.9 141
	M 42.83 138.2
	L 42.12 138.9
	L 41.81 139.8
	M 42.12 138.9
	L 41.41 139.6
	L 41.1 140.5
	L 40.39 141.2
	M 41.1 140.5
	L 40.79 141.5
	L 40.95 142.5
	M 40.79 141.5
	L 40.48 142.4
	L 39.78 143.1
	L 38.83 143.4
	M 39.78 143.1
	L 39.07 143.8
	L 38.76 144.8
	M 39.07 143.8
	L 38.36 144.5
	M 40.48 142.4
	L 40.17 143.4
	L 39.47 144.1
	M 40.17 143.4
	L 39.87 144.3
	M 41.41 139.6
	L 40.7 140.3
	L 39.75 140.6
	M 40.7 140.3
	L 40 141
	L 39.69 141.9
	M 40 141
	L 39.29 141.7
	L 38.34 142
	L 37.63 142.7
	M 38.34 142
	L 37.39 142.3
	M 39.29 141.7
	L 38.58 142.4
	L 37.63 142.7
	M 38.58 142.4
	L 37.88 143.1
	L 37.57 144.1
	L 36.86 144.8
	M 37.57 144.1
	L 37.26 145
	L 37.41 146
	M 37.26 145
	L 36.95 146
	M 37.88 143.1
	L 37.17 143.8
	L 36.22 144.1
	M 37.17 143.8
	L 36.46 144.5
	L 36.15 145.5
	M 36.46 144.5
	L 35.75 145.2
	L 35.45 146.2
	L 35.6 147.2
	M 35.45 146.2
	L 35.14 147.1
	L 34.43 147.8
	L 34.12 148.8
	M 34.43 147.8
	L 33.72 148.5
	M 35.14 147.1
	L 34.83 148.1
	L 34.98 149.1
	M 34.83 148.1
	L 34.52 149
	L 33.81 149.7
	L 33.5 150.7
	M 33.81 149.7
	L 33.1 150.4
	L 32.79 151.4
	L 32.09 152.1
	M 32.79 151.4
	L 32.49 152.3
	L 32.64 153.3
	M 32.49 152.3
	L 32.18 153.3
	M 33.1 150.4
	L 32.4 151.2
	L 32.09 152.1
	M 32.4 151.2
	L 31.69 151.9
	M 34.52 149
	L 34.21 150
	L 33.5 150.7
	M 34.21 150
	L 33.9 150.9
	L 34.06 151.9
	M 33.9 150.9
	L 33.59 151.9
	L 33.75 152.9
	L 33.44 153.8
	M 33.75 152.9
	L 33.9 153.9
	L 34.49 154.7
	M 33.9 153.9
	L 34.06 154.8
	M 33.59 151.9
	L 33.28 152.8
	L 32.57 153.5
	M 33.28 152.8
	L 32.97 153.8
	M 35.75 145.2
	L 35.05 145.9
	L 34.1 146.2
	M 35.05 145.9
	L 34.34 146.6
	L 34.03 147.6
	M 34.34 146.6
	L 33.63 147.3
	L 32.68 147.7
	L 31.69 147.5
	M 32.68 147.7
	L 31.73 148
	L 31.02 148.7
	M 31.73 148
	L 30.78 148.3
	M 33.63 147.3
	L 32.93 148.1
	L 32.62 149
	M 32.93 148.1
	L 32.22 148.8
	L 31.91 149.7
	L 32.07 150.7
	M 31.91 149.7
	L 31.6 150.7
	M 32.22 148.8
	L 31.51 149.5
	L 30.56 149.8
	M 31.51 149.5
	L 30.8 150.2
	L 29.85 150.5
	L 29.15 151.2
	M 29.85 150.5
	L 28.9 150.8
	L 27.91 150.6
	L 27.11 150.1
	M 27.91 150.6
	L 26.93 150.5
	L 25.98 150.8
	M 26.93 150.5
	L 25.94 150.3
	M 28.9 150.8
	L 27.95 151.1
	L 26.96 150.9
	M 27.95 151.1
	L 27 151.4
	L 26.29 152.1
	L 25.34 152.4
	M 26.29 152.1
	L 25.59 152.8
	L 25.28 153.8
	M 25.59 152.8
	L 24.88 153.5
	M 27 151.4
	L 26.05 151.7
	L 25.06 151.6
	M 26.05 151.7
	L 25.1 152
	L 24.39 152.7
	M 25.1 152
	L 24.15 152.3
	M 30.8 150.2
	L 30.1 150.9
	L 29.15 151.2
	M 30.1 150.9
	L 29.39 151.6
	L 29.08 152.5
	M 29.39 151.6
	L 28.68 152.3
	L 27.73 152.6
	L 26.74 152.5
	M 27.73 152.6
	L 26.78 152.9
	L 26.07 153.6
	M 26.78 152.9
	L 25.83 153.2
	M 28.68 152.3
	L 27.98 153
	L 27.02 153.3
	M 27.98 153
	L 27.27 153.7
	L 26.96 154.7
	L 26.25 155.4
	M 26.96 154.7
	L 26.65 155.6
	M 27.27 153.7
	L 26.56 154.4
	L 26.25 155.4
	M 26.56 154.4
	L 25.85 155.1
	L 25.55 156.1
	L 24.84 156.8
	M 25.55 156.1
	L 25.24 157
	L 25.39 158
	M 25.24 157
	L 24.93 158
	L 24.22 158.7
	L 23.27 159
	M 24.22 158.7
	L 23.51 159.4
	M 24.93 158
	L 24.62 158.9
	L 23.91 159.6
	M 24.62 158.9
	L 24.31 159.9
	L 24.47 160.9
	M 24.31 159.9
	L 24 160.8
	M 25.85 155.1
	L 25.15 155.8
	L 24.2 156.1
	M 25.15 155.8
	L 24.44 156.5
	L 23.49 156.9
	L 22.5 156.7
	M 23.49 156.9
	L 22.54 157.2
	L 21.83 157.9
	M 22.54 157.2
	L 21.59 157.5
	M 24.44 156.5
	L 23.73 157.2
	L 22.78 157.6
	M 23.73 157.2
	L 23.03 158
	L 22.72 158.9
	M 23.03 158
	L 22.32 158.7
	M 73.94 107
	L 74.65 107.8
	L 75.35 108.5
	L 76.06 109.2
	L 76.77 109.9
	L 77.35 110.7
	L 77.94 111.5
	L 78.53 112.3
	L 79.12 113.1
	L 79.57 114
	L 80.03 114.9
	L 80.48 115.8
	L 80.93 116.7
	L 81.52 117.5
	L 82.11 118.3
	L 82.7 119.1
	L 83.28 119.9
	L 82.48 120.5
	L 82.02 121.4
	M 82.48 120.5
	L 81.67 121.1
	L 81.21 122
	L 80.4 122.6
	M 81.21 122
	L 80.76 122.9
	L 80.76 123.9
	M 80.76 122.9
	L 80.3 123.8
	M 81.67 121.1
	L 80.86 121.7
	L 79.87 121.8
	M 80.86 121.7
	L 80.05 122.3
	L 79.06 122.4
	L 78.11 122.1
	M 79.06 122.4
	L 78.07 122.6
	L 77.26 123.2
	M 78.07 122.6
	L 77.09 122.7
	L 76.28 123.3
	L 75.29 123.5
	M 76.28 123.3
	L 75.47 123.9
	M 77.09 122.7
	L 76.1 122.9
	L 75.15 122.6
	M 76.1 122.9
	L 75.11 123
	M 80.05 122.3
	L 79.24 122.8
	L 78.79 123.7
	M 79.24 122.8
	L 78.43 123.4
	L 77.98 124.3
	L 77.98 125.3
	M 77.98 124.3
	L 77.52 125.2
	M 78.43 123.4
	L 77.62 124
	L 76.63 124.2
	M 77.62 124
	L 76.81 124.6
	L 76.36 125.5
	M 76.81 124.6
	L 76 125.2
	L 75.02 125.4
	L 74.06 125
	M 75.02 125.4
	L 74.03 125.5
	L 73.22 126.1
	M 74.03 125.5
	L 73.04 125.7
	L 72.09 125.4
	L 71.38 124.7
	M 72.09 125.4
	L 71.14 125.1
	L 70.15 125.2
	M 71.14 125.1
	L 70.19 124.7
	M 73.04 125.7
	L 72.05 125.8
	L 71.24 126.4
	M 72.05 125.8
	L 71.07 126
	L 70.26 126.6
	L 69.8 127.5
	M 70.26 126.6
	L 69.45 127.2
	M 71.07 126
	L 70.08 126.1
	L 69.13 125.8
	M 70.08 126.1
	L 69.09 126.3
	L 68.14 126
	L 67.43 125.3
	M 68.14 126
	L 67.19 125.7
	L 66.2 125.8
	M 67.19 125.7
	L 66.24 125.4
	L 65.25 125.5
	L 64.44 126.1
	M 65.25 125.5
	L 64.26 125.7
	M 66.24 125.4
	L 65.29 125.1
	L 64.3 125.2
	M 65.29 125.1
	L 64.33 124.7
	M 69.09 126.3
	L 68.1 126.5
	L 67.29 127
	M 68.1 126.5
	L 67.11 126.6
	L 66.16 126.3
	L 65.46 125.6
	M 66.16 126.3
	L 65.21 126
	M 67.11 126.6
	L 66.13 126.8
	L 65.18 126.5
	M 66.13 126.8
	L 65.14 126.9
	L 64.33 127.5
	L 63.34 127.7
	M 64.33 127.5
	L 63.52 128.1
	M 65.14 126.9
	L 64.15 127.1
	L 63.2 126.8
	M 64.15 127.1
	L 63.16 127.2
	L 62.35 127.8
	L 61.37 128
	M 62.35 127.8
	L 61.55 128.4
	L 61.09 129.3
	L 60.28 129.9
	M 61.09 129.3
	L 60.64 130.2
	L 60.64 131.2
	M 60.64 130.2
	L 60.18 131.1
	M 61.55 128.4
	L 60.74 129
	L 59.75 129.2
	M 60.74 129
	L 59.93 129.6
	L 59.47 130.5
	M 59.93 129.6
	L 59.12 130.2
	M 63.16 127.2
	L 62.18 127.4
	L 61.22 127.1
	M 62.18 127.4
	L 61.19 127.5
	L 60.24 127.2
	L 59.53 126.5
	M 60.24 127.2
	L 59.29 126.9
	M 61.19 127.5
	L 60.2 127.7
	L 59.39 128.3
	M 60.2 127.7
	L 59.21 127.9
	L 58.4 128.4
	L 57.42 128.6
	M 58.4 128.4
	L 57.59 129
	M 59.21 127.9
	L 58.23 128
	L 57.27 127.7
	M 58.23 128
	L 57.24 128.2
	L 56.43 128.8
	M 57.24 128.2
	L 56.25 128.3
	M 76 125.2
	L 75.19 125.8
	L 74.21 125.9
	M 75.19 125.8
	L 74.39 126.4
	L 73.93 127.3
	M 74.39 126.4
	L 73.58 127
	L 72.59 127.1
	L 71.64 126.8
	M 72.59 127.1
	L 71.6 127.3
	M 73.58 127
	L 72.77 127.6
	L 71.78 127.7
	M 72.77 127.6
	L 71.96 128.1
	L 71.5 129
	M 71.96 128.1
	L 71.15 128.7
	L 70.7 129.6
	L 69.89 130.2
	M 70.7 129.6
	L 70.24 130.5
	L 70.24 131.5
	M 70.24 130.5
	L 69.79 131.4
	M 71.15 128.7
	L 70.34 129.3
	L 69.35 129.5
	M 70.34 129.3
	L 69.53 129.9
	L 68.54 130.1
	L 67.59 129.7
	M 68.54 130.1
	L 67.56 130.2
	L 66.6 129.9
	L 65.9 129.2
	M 66.6 129.9
	L 65.65 129.6
	L 64.67 129.8
	M 65.65 129.6
	L 64.7 129.3
	M 67.56 130.2
	L 66.57 130.4
	L 65.76 131
	M 66.57 130.4
	L 65.58 130.5
	M 69.53 129.9
	L 68.72 130.5
	L 68.27 131.4
	M 68.72 130.5
	L 67.91 131.1
	L 67.46 132
	L 66.65 132.6
	M 67.46 132
	L 67.01 132.9
	L 67.01 133.9
	M 67.01 132.9
	L 66.55 133.8
	M 67.91 131.1
	L 67.1 131.7
	L 66.12 131.8
	M 67.1 131.7
	L 66.3 132.3
	L 65.84 133.1
	M 66.3 132.3
	L 65.49 132.8
	L 65.03 133.7
	L 64.22 134.3
	M 65.03 133.7
	L 64.58 134.6
	L 64.58 135.6
	M 64.58 134.6
	L 64.12 135.5
	L 63.32 136.1
	L 62.86 137
	M 63.32 136.1
	L 62.51 136.7
	M 64.12 135.5
	L 63.67 136.4
	L 63.67 137.4
	M 63.67 136.4
	L 63.22 137.3
	L 63.22 138.3
	L 63.67 139.2
	M 63.22 138.3
	L 63.22 139.3
	M 63.22 137.3
	L 62.76 138.2
	L 61.95 138.8
	M 62.76 138.2
	L 62.31 139.1
	L 62.31 140.1
	M 62.31 139.1
	L 61.85 140
	M 65.49 132.8
	L 64.68 133.4
	L 63.69 133.6
	M 64.68 133.4
	L 63.87 134
	L 63.41 134.9
	M 63.87 134
	L 63.06 134.6
	L 62.61 135.5
	L 61.8 136.1
	M 62.61 135.5
	L 62.15 136.4
	L 62.15 137.4
	M 62.15 136.4
	L 61.7 137.3
	M 63.06 134.6
	L 62.25 135.2
	L 61.26 135.3
	M 62.25 135.2
	L 61.44 135.8
	L 60.99 136.7
	M 61.44 135.8
	L 60.63 136.4
	L 60.18 137.3
	L 60.18 138.3
	M 60.18 137.3
	L 59.72 138.1
	L 59.72 139.1
	L 60.18 140
	M 59.72 139.1
	L 59.72 140.1
	M 59.72 138.1
	L 59.27 139
	L 58.46 139.6
	M 59.27 139
	L 58.82 139.9
	L 58.82 140.9
	L 58.36 141.8
	M 58.82 140.9
	L 58.82 141.9
	L 59.27 142.8
	M 58.82 141.9
	L 58.82 142.9
	L 58.36 143.8
	L 57.55 144.4
	M 58.36 143.8
	L 57.91 144.7
	M 58.82 142.9
	L 58.82 143.9
	L 58.36 144.8
	M 58.82 143.9
	L 58.82 144.9
	L 59.27 145.8
	L 59.27 146.8
	M 59.27 145.8
	L 59.72 146.7
	L 60.53 147.3
	M 59.72 146.7
	L 60.18 147.6
	M 58.82 144.9
	L 58.82 145.9
	L 58.36 146.8
	M 58.82 145.9
	L 58.82 146.9
	M 58.82 139.9
	L 58.36 140.8
	L 57.55 141.4
	M 58.36 140.8
	L 57.91 141.7
	L 57.91 142.7
	M 57.91 141.7
	L 57.45 142.6
	L 56.65 143.2
	L 55.66 143.3
	M 56.65 143.2
	L 55.84 143.8
	L 55.38 144.7
	M 55.84 143.8
	L 55.03 144.4
	M 57.45 142.6
	L 57 143.5
	L 57 144.5
	M 57 143.5
	L 56.55 144.4
	M 60.63 136.4
	L 59.82 137
	L 59.37 137.8
	M 59.82 137
	L 59.01 137.5
	L 58.56 138.4
	L 58.56 139.4
	M 58.56 138.4
	L 58.11 139.3
	M 59.01 137.5
	L 58.21 138.1
	L 57.22 138.3
	M 58.21 138.1
	L 57.4 138.7
	L 56.94 139.6
	M 57.4 138.7
	L 56.59 139.3
	L 55.6 139.5
	L 54.65 139.2
	M 55.6 139.5
	L 54.61 139.6
	L 53.66 139.3
	L 52.95 138.6
	M 53.66 139.3
	L 52.71 139
	L 51.72 139.2
	M 52.71 139
	L 51.76 138.7
	M 54.61 139.6
	L 53.62 139.8
	L 52.67 139.5
	M 53.62 139.8
	L 52.64 139.9
	L 51.83 140.5
	L 51.37 141.4
	M 51.83 140.5
	L 51.02 141.1
	M 52.64 139.9
	L 51.65 140.1
	L 50.84 140.7
	M 51.65 140.1
	L 50.66 140.2
	M 56.59 139.3
	L 55.78 139.9
	L 54.79 140.1
	M 55.78 139.9
	L 54.97 140.5
	L 54.52 141.4
	L 53.71 142
	M 54.52 141.4
	L 54.06 142.3
	M 54.97 140.5
	L 54.16 141.1
	L 53.71 142
	M 54.16 141.1
	L 53.35 141.7
	L 52.9 142.5
	L 52.09 143.1
	M 52.9 142.5
	L 52.44 143.4
	L 52.44 144.4
	L 52.9 145.3
	M 52.44 144.4
	L 52.44 145.4
	M 52.44 143.4
	L 51.99 144.3
	L 51.18 144.9
	M 51.99 144.3
	L 51.54 145.2
	M 53.35 141.7
	L 52.54 142.2
	L 52.09 143.1
	M 52.54 142.2
	L 51.73 142.8
	L 51.28 143.7
	L 50.47 144.3
	M 51.28 143.7
	L 50.82 144.6
	M 51.73 142.8
	L 50.92 143.4
	L 50.47 144.3
	M 50.92 143.4
	L 50.11 144
	L 49.13 144.2
	L 48.18 143.9
	M 49.13 144.2
	L 48.14 144.3
	L 47.33 144.9
	M 48.14 144.3
	L 47.15 144.5
	L 46.2 144.2
	L 45.49 143.5
	M 46.2 144.2
	L 45.25 143.9
	L 44.26 144
	M 45.25 143.9
	L 44.3 143.6
	M 47.15 144.5
	L 46.16 144.6
	L 45.21 144.3
	M 46.16 144.6
	L 45.18 144.8
	L 44.37 145.4
	M 45.18 144.8
	L 44.19 144.9
	L 43.24 144.6
	L 42.25 144.8
	M 43.24 144.6
	L 42.29 144.3
	L 41.58 143.6
	L 40.63 143.3
	M 41.58 143.6
	L 40.87 142.9
	M 42.29 144.3
	L 41.34 144
	L 40.35 144.2
	M 41.34 144
	L 40.38 143.7
	L 39.4 143.9
	L 38.59 144.5
	M 39.4 143.9
	L 38.41 144
	M 40.38 143.7
	L 39.43 143.4
	L 38.73 142.7
	M 39.43 143.4
	L 38.48 143.1
	L 37.49 143.2
	M 38.48 143.1
	L 37.53 142.8
	M 44.19 144.9
	L 43.2 145.1
	L 42.25 144.8
	M 43.2 145.1
	L 42.21 145.3
	L 41.4 145.8
	M 42.21 145.3
	L 41.23 145.4
	L 40.27 145.1
	L 39.57 144.4
	M 40.27 145.1
	L 39.32 144.8
	M 41.23 145.4
	L 40.24 145.6
	L 39.29 145.3
	M 40.24 145.6
	L 39.25 145.7
	L 38.44 146.3
	M 39.25 145.7
	L 38.26 145.9
	L 37.45 146.5
	L 37 147.4
	M 37.45 146.5
	L 36.64 147.1
	L 35.66 147.2
	L 34.71 146.9
	M 35.66 147.2
	L 34.67 147.4
	M 36.64 147.1
	L 35.84 147.6
	L 34.85 147.8
	M 35.84 147.6
	L 35.03 148.2
	M 38.26 145.9
	L 37.27 146
	L 36.32 145.7
	M 37.27 146
	L 36.29 146.2
	L 35.48 146.8
	M 36.29 146.2
	L 35.3 146.4
	L 34.49 146.9
	L 33.5 147.1
	M 34.49 146.9
	L 33.68 147.5
	M 35.3 146.4
	L 34.31 146.5
	L 33.36 146.2
	M 34.31 146.5
	L 33.32 146.7
	L 32.52 147.3
	M 33.32 146.7
	L 32.34 146.8
	L 31.39 146.5
	L 30.68 145.8
	M 31.39 146.5
	L 30.43 146.2
	L 29.73 145.5
	L 28.78 145.2
	M 29.73 145.5
	L 29.02 144.8
	M 30.43 146.2
	L 29.48 145.9
	L 28.78 145.2
	M 29.48 145.9
	L 28.53 145.6
	L 27.54 145.7
	M 28.53 145.6
	L 27.58 145.3
	L 26.87 144.6
	L 26.57 143.6
	M 26.87 144.6
	L 26.17 143.9
	L 25.22 143.6
	M 26.17 143.9
	L 25.46 143.2
	L 25.15 142.2
	L 24.44 141.5
	M 25.15 142.2
	L 24.84 141.3
	M 25.46 143.2
	L 24.75 142.5
	L 23.8 142.1
	M 24.75 142.5
	L 24.05 141.7
	L 23.09 141.4
	L 22.39 140.7
	M 23.09 141.4
	L 22.14 141.1
	M 24.05 141.7
	L 23.34 141
	L 23.03 140.1
	M 23.34 141
	L 22.63 140.3
	M 27.58 145.3
	L 26.63 145
	L 25.64 145.1
	M 26.63 145
	L 25.68 144.7
	L 24.97 144
	L 24.66 143
	M 24.97 144
	L 24.26 143.2
	L 23.31 142.9
	M 24.26 143.2
	L 23.56 142.5
	M 25.68 144.7
	L 24.73 144.4
	L 24.02 143.6
	M 24.73 144.4
	L 23.78 144
	L 22.79 144.2
	M 23.78 144
	L 22.83 143.7
	L 21.84 143.9
	L 20.89 143.6
	M 21.84 143.9
	L 20.85 144
	L 20.04 144.6
	L 19.59 145.5
	M 20.04 144.6
	L 19.23 145.2
	M 20.85 144
	L 19.86 144.2
	L 18.91 143.9
	M 19.86 144.2
	L 18.88 144.4
	L 18.07 144.9
	M 18.88 144.4
	L 17.89 144.5
	M 22.83 143.7
	L 21.87 143.4
	L 20.89 143.6
	M 21.87 143.4
	L 20.92 143.1
	L 20.22 142.4
	L 19.91 141.5
	M 20.22 142.4
	L 19.51 141.7
	L 18.56 141.4
	M 19.51 141.7
	L 18.8 141
	M 20.92 143.1
	L 19.97 142.8
	L 19.27 142.1
	M 19.97 142.8
	L 19.02 142.5
	L 18.03 142.7
	M 19.02 142.5
	L 18.07 142.2
	L 17.08 142.3
	L 16.13 142
	M 17.08 142.3
	L 16.1 142.5
	M 18.07 142.2
	L 17.12 141.9
	L 16.13 142
	M 17.12 141.9
	L 16.17 141.6
	M 32.34 146.8
	L 31.35 147
	L 30.4 146.7
	M 31.35 147
	L 30.36 147.1
	L 29.55 147.7
	M 30.36 147.1
	L 29.37 147.3
	L 28.56 147.9
	L 27.58 148
	M 28.56 147.9
	L 27.76 148.5
	L 27.3 149.4
	M 27.76 148.5
	L 26.95 149.1
	M 29.37 147.3
	L 28.39 147.5
	L 27.58 148
	M 28.39 147.5
	L 27.4 147.6
	L 26.45 147.3
	L 25.74 146.6
	M 26.45 147.3
	L 25.5 147
	L 24.79 146.3
	L 23.84 146
	M 24.79 146.3
	L 24.08 145.6
	M 25.5 147
	L 24.54 146.7
	L 23.84 146
	M 24.54 146.7
	L 23.59 146.4
	L 22.61 146.5
	M 23.59 146.4
	L 22.64 146.1
	M 27.4 147.6
	L 26.41 147.8
	L 25.6 148.4
	M 26.41 147.8
	L 25.42 147.9
	L 24.47 147.6
	L 23.48 147.8
	M 24.47 147.6
	L 23.52 147.3
	M 25.42 147.9
	L 24.44 148.1
	L 23.48 147.8
	M 24.44 148.1
	L 23.45 148.2
	L 22.64 148.8
	M 23.45 148.2
	L 22.46 148.4
	L 21.65 149
	L 20.66 149.1
	M 21.65 149
	L 20.84 149.6
	L 20.39 150.5
	M 20.84 149.6
	L 20.03 150.2
	M 22.46 148.4
	L 21.47 148.5
	L 20.52 148.2
	M 21.47 148.5
	L 20.48 148.7
	M 50.11 144
	L 49.31 144.6
	L 48.32 144.8
	M 49.31 144.6
	L 48.5 145.2
	L 48.04 146.1
	M 48.5 145.2
	L 47.69 145.8
	L 47.23 146.7
	L 46.42 147.3
	M 47.23 146.7
	L 46.78 147.6
	M 47.69 145.8
	L 46.88 146.4
	L 45.89 146.5
	M 46.88 146.4
	L 46.07 146.9
	L 45.62 147.8
	M 46.07 146.9
	L 45.26 147.5
	L 44.27 147.7
	L 43.46 148.3
	M 44.27 147.7
	L 43.29 147.8
	L 42.33 147.5
	L 41.35 147.7
	M 42.33 147.5
	L 41.38 147.2
	M 43.29 147.8
	L 42.3 148
	L 41.35 147.7
	M 42.3 148
	L 41.31 148.2
	M 45.26 147.5
	L 44.45 148.1
	L 43.46 148.3
	M 44.45 148.1
	L 43.64 148.7
	L 43.19 149.6
	M 43.64 148.7
	L 42.83 149.3
	L 41.85 149.5
	L 40.9 149.1
	M 41.85 149.5
	L 40.86 149.6
	M 42.83 149.3
	L 42.02 149.9
	L 41.57 150.8
	M 42.02 149.9
	L 41.22 150.5
	L 40.76 151.4
	L 39.95 152
	M 40.76 151.4
	L 40.31 152.3
	L 40.31 153.3
	M 40.31 152.3
	L 39.85 153.1
	M 41.22 150.5
	L 40.41 151.1
	L 39.95 152
	M 40.41 151.1
	L 39.6 151.6
	L 38.61 151.8
	L 37.66 151.5
	M 38.61 151.8
	L 37.62 152
	L 36.81 152.6
	L 35.83 152.7
	M 36.81 152.6
	L 36 153.1
	L 35.55 154
	M 36 153.1
	L 35.2 153.7
	M 37.62 152
	L 36.63 152.1
	L 35.83 152.7
	M 36.63 152.1
	L 35.65 152.3
	L 34.7 152
	L 33.99 151.3
	M 34.7 152
	L 33.74 151.7
	L 32.76 151.8
	M 33.74 151.7
	L 32.79 151.3
	L 32.09 150.6
	L 31.78 149.7
	M 32.09 150.6
	L 31.38 149.9
	L 30.43 149.6
	M 31.38 149.9
	L 30.67 149.2
	M 32.79 151.3
	L 31.84 151
	L 31.14 150.3
	M 31.84 151
	L 30.89 150.7
	M 35.65 152.3
	L 34.66 152.4
	L 33.71 152.1
	M 34.66 152.4
	L 33.67 152.6
	L 32.86 153.2
	M 33.67 152.6
	L 32.68 152.7
	L 31.73 152.4
	L 31.03 151.7
	M 31.73 152.4
	L 30.78 152.1
	L 29.79 152.3
	M 30.78 152.1
	L 29.83 151.8
	M 32.68 152.7
	L 31.7 152.9
	L 30.89 153.5
	M 31.7 152.9
	L 30.71 153.1
	L 29.9 153.6
	L 29.45 154.5
	M 29.9 153.6
	L 29.09 154.2
	M 30.71 153.1
	L 29.72 153.2
	L 28.77 152.9
	M 29.72 153.2
	L 28.73 153.4
	L 27.92 154
	M 28.73 153.4
	L 27.75 153.5
	M 39.6 151.6
	L 38.79 152.2
	L 37.8 152.4
	M 38.79 152.2
	L 37.98 152.8
	L 36.99 153
	L 36.18 153.6
	M 36.99 153
	L 36 153.1
	M 37.98 152.8
	L 37.17 153.4
	L 36.72 154.3
	M 37.17 153.4
	L 36.36 154
	L 35.91 154.9
	L 35.1 155.5
	M 35.91 154.9
	L 35.45 155.8
	M 36.36 154
	L 35.55 154.6
	L 34.56 154.7
	M 35.55 154.6
	L 34.74 155.2
	L 33.76 155.3
	L 32.8 155
	M 33.76 155.3
	L 32.77 155.5
	L 31.96 156.1
	L 30.97 156.2
	M 31.96 156.1
	L 31.15 156.7
	L 30.7 157.6
	M 31.15 156.7
	L 30.34 157.3
	M 32.77 155.5
	L 31.78 155.6
	L 30.97 156.2
	M 31.78 155.6
	L 30.79 155.8
	M 34.74 155.2
	L 33.93 155.8
	L 32.95 155.9
	M 33.93 155.8
	L 33.13 156.4
	L 32.67 157.2
	M 33.13 156.4
	L 32.32 156.9
	L 31.33 157.1
	L 30.38 156.8
	M 31.33 157.1
	L 30.34 157.3
	M 32.32 156.9
	L 31.51 157.5
	L 30.52 157.7
	M 31.51 157.5
	L 30.7 158.1
	L 30.24 159
	L 30.24 160
	M 30.24 159
	L 29.79 159.9
	L 28.98 160.5
	L 27.99 160.6
	M 28.98 160.5
	L 28.17 161.1
	L 27.72 162
	M 28.17 161.1
	L 27.36 161.7
	M 29.79 159.9
	L 29.34 160.8
	L 28.53 161.4
	M 29.34 160.8
	L 28.88 161.7
	L 28.88 162.7
	M 28.88 161.7
	L 28.43 162.6
	L 28.43 163.6
	L 27.97 164.5
	M 28.43 163.6
	L 28.43 164.6
	M 28.43 162.6
	L 27.97 163.5
	L 27.17 164
	M 27.97 163.5
	L 27.52 164.4
	L 27.52 165.4
	M 27.52 164.4
	L 27.07 165.2
	M 30.7 158.1
	L 29.89 158.7
	L 29.44 159.6
	M 29.89 158.7
	L 29.08 159.3
	L 28.63 160.2
	L 28.63 161.2
	M 28.63 160.2
	L 28.17 161.1
	M 29.08 159.3
	L 28.27 159.9
	L 27.28 160
	M 28.27 159.9
	L 27.46 160.5
	L 27.01 161.4
	M 27.46 160.5
	L 26.65 161.1
	L 26.2 161.9
	L 25.39 162.5
	M 26.2 161.9
	L 25.75 162.8
	L 24.94 163.4
	L 24.48 164.3
	M 24.94 163.4
	L 24.13 164
	M 25.75 162.8
	L 25.29 163.7
	L 24.48 164.3
	M 25.29 163.7
	L 24.84 164.6
	L 24.84 165.6
	M 24.84 164.6
	L 24.38 165.5
	L 24.38 166.5
	L 23.93 167.4
	M 24.38 166.5
	L 24.38 167.5
	M 24.38 165.5
	L 23.93 166.4
	L 23.12 167
	M 23.93 166.4
	L 23.48 167.3
	L 23.48 168.3
	M 23.48 167.3
	L 23.02 168.2
	L 23.02 169.2
	L 23.48 170.1
	M 23.02 169.2
	L 23.02 170.2
	L 22.57 171.1
	L 21.76 171.7
	M 22.57 171.1
	L 22.11 172
	L 22.11 173
	M 22.11 172
	L 21.66 172.9
	M 23.02 170.2
	L 23.02 171.2
	L 23.48 172.1
	M 23.02 171.2
	L 23.02 172.2
	M 23.02 168.2
	L 22.57 169.1
	L 21.76 169.7
	M 22.57 169.1
	L 22.11 170
	L 22.11 171
	M 22.11 170
	L 21.66 170.9
	L 21.66 171.9
	L 21.21 172.7
	M 21.66 171.9
	L 21.66 172.9
	M 21.66 170.9
	L 21.21 171.7
	L 20.4 172.3
	M 21.21 171.7
	L 20.75 172.6
	L 20.75 173.6
	M 20.75 172.6
	L 20.3 173.5
	M 26.65 161.1
	L 25.84 161.6
	L 24.86 161.8
	M 25.84 161.6
	L 25.04 162.2
	L 24.05 162.4
	L 23.1 162.1
	M 24.05 162.4
	L 23.06 162.5
	L 22.25 163.1
	M 23.06 162.5
	L 22.07 162.7
	M 25.04 162.2
	L 24.23 162.8
	L 23.77 163.7
	M 24.23 162.8
	L 23.42 163.4
	L 22.96 164.3
	L 22.96 165.3
	M 22.96 164.3
	L 22.51 165.2
	M 23.42 163.4
	L 22.61 164
	L 21.62 164.1
	M 22.61 164
	L 21.8 164.6
	L 21.35 165.5
	L 20.54 166.1
	M 21.35 165.5
	L 20.89 166.4
	L 20.08 167
	L 19.09 167.1
	M 20.08 167
	L 19.27 167.5
	M 20.89 166.4
	L 20.44 167.3
	L 19.63 167.8
	M 20.44 167.3
	L 19.98 168.1
	L 19.98 169.1
	L 19.53 170
	M 19.98 169.1
	L 19.98 170.1
	L 20.44 171
	M 19.98 170.1
	L 19.98 171.1
	M 19.98 168.1
	L 19.53 169
	L 18.72 169.6
	M 19.53 169
	L 19.08 169.9
	L 19.08 170.9
	M 19.08 169.9
	L 18.62 170.8
	M 21.8 164.6
	L 20.99 165.2
	L 20 165.3
	M 20.99 165.2
	L 20.18 165.8
	L 19.73 166.6
	M 20.18 165.8
	L 19.37 166.3
	L 18.92 167.2
	L 18.11 167.8
	M 18.92 167.2
	L 18.46 168.1
	M 19.37 166.3
	L 18.56 166.9
	L 18.11 167.8
	M 18.56 166.9
	L 17.75 167.5
	L 17.3 168.4
	L 17.3 169.4
	M 17.3 168.4
	L 16.85 169.3
	L 16.04 169.9
	L 15.05 170
	M 16.04 169.9
	L 15.23 170.5
	L 14.77 171.4
	M 15.23 170.5
	L 14.42 171.1
	M 16.85 169.3
	L 16.39 170.2
	L 15.58 170.8
	M 16.39 170.2
	L 15.94 171.1
	L 15.94 172.1
	M 15.94 171.1
	L 15.48 172
	L 15.48 173
	L 15.03 173.9
	M 15.48 173
	L 15.48 174
	M 15.48 172
	L 15.03 172.9
	L 14.22 173.5
	M 15.03 172.9
	L 14.58 173.8
	L 13.77 174.3
	L 12.78 174.5
	M 13.77 174.3
	L 12.96 174.9
	L 12.5 175.8
	M 12.96 174.9
	L 12.15 175.5
	L 11.7 176.4
	L 11.7 177.4
	M 11.7 176.4
	L 11.24 177.3
	M 12.15 175.5
	L 11.34 176.1
	L 10.35 176.3
	M 11.34 176.1
	L 10.53 176.7
	M 14.58 173.8
	L 14.12 174.6
	L 13.31 175.2
	M 14.12 174.6
	L 13.67 175.5
	L 13.67 176.5
	L 14.12 177.4
	M 13.67 176.5
	L 13.67 177.5
	M 13.67 175.5
	L 13.21 176.4
	L 13.21 177.4
	M 13.21 176.4
	L 12.76 177.3
	L 12.76 178.3
	L 12.31 179.2
	M 12.76 178.3
	L 12.76 179.3
	L 13.21 180.2
	M 12.76 179.3
	L 12.76 180.3
	L 12.31 181.2
	L 11.5 181.8
	M 12.31 181.2
	L 11.85 182.1
	M 12.76 180.3
	L 12.76 181.3
	L 12.31 182.2
	M 12.76 181.3
	L 12.76 182.3
	L 13.21 183.2
	L 13.21 184.2
	M 13.21 183.2
	L 13.67 184.1
	L 14.48 184.7
	M 13.67 184.1
	L 14.12 185
	M 12.76 182.3
	L 12.76 183.3
	L 12.31 184.2
	M 12.76 183.3
	L 12.76 184.3
	L 13.21 185.2
	M 12.76 184.3
	L 12.76 185.3
	L 12.31 186.2
	L 11.5 186.8
	M 12.31 186.2
	L 11.85 187.1
	L 11.04 187.7
	L 10.06 187.8
	M 11.04 187.7
	L 10.23 188.3
	L 9.78 189.2
	M 10.23 188.3
	L 9.425 188.9
	M 11.85 187.1
	L 11.4 188
	L 11.4 189
	M 11.4 188
	L 10.94 188.9
	M 12.76 185.3
	L 12.76 186.3
	L 13.21 187.2
	M 12.76 186.3
	L 12.76 187.3
	L 12.31 188.2
	L 11.5 188.8
	M 12.31 188.2
	L 11.85 189.1
	L 11.85 190.1
	M 11.85 189.1
	L 11.4 190
	M 12.76 187.3
	L 12.76 188.3
	L 12.31 189.2
	M 12.76 188.3
	L 12.76 189.3
	L 13.21 190.2
	M 12.76 189.3
	L 12.76 190.3
	L 13.21 191.2
	L 13.21 192.2
	M 13.21 191.2
	L 13.67 192.1
	M 12.76 190.3
	L 12.76 191.3
	L 12.31 192.2
	M 12.76 191.3
	L 12.76 192.3
	M 12.76 177.3
	L 12.31 178.2
	L 11.5 178.8
	M 12.31 178.2
	L 11.85 179.1
	L 11.85 180.1
	M 11.85 179.1
	L 11.4 180
	L 11.4 181
	L 11.85 181.9
	M 11.4 181
	L 11.4 182
	M 11.4 180
	L 10.94 180.9
	L 10.14 181.5
	M 10.94 180.9
	L 10.49 181.8
	L 9.681 182.4
	L 8.694 182.5
	M 9.681 182.4
	L 8.872 183
	L 8.418 183.8
	M 8.872 183
	L 8.063 183.5
	L 7.076 183.7
	L 6.267 184.3
	M 7.076 183.7
	L 6.088 183.9
	M 8.063 183.5
	L 7.254 184.1
	L 6.267 184.3
	M 7.254 184.1
	L 6.445 184.7
	L 5.991 185.6
	M 6.445 184.7
	L 5.636 185.3
	M 10.49 181.8
	L 10.04 182.7
	L 10.04 183.7
	M 10.04 182.7
	L 9.582 183.6
	L 9.582 184.6
	L 9.128 185.4
	M 9.582 184.6
	L 9.582 185.6
	M 9.582 183.6
	L 9.128 184.4
	L 8.319 185
	M 9.128 184.4
	L 8.674 185.3
	L 8.674 186.3
	L 8.22 187.2
	M 8.674 186.3
	L 8.674 187.3
	L 9.128 188.2
	L 9.128 189.2
	M 9.128 188.2
	L 9.582 189.1
	L 10.39 189.7
	M 9.582 189.1
	L 10.04 190
	M 8.674 187.3
	L 8.674 188.3
	L 8.22 189.2
	M 8.674 188.3
	L 8.674 189.3
	M 8.674 185.3
	L 8.22 186.2
	L 8.22 187.2
	M 8.22 186.2
	L 7.766 187.1
	L 6.957 187.7
	L 6.503 188.6
	M 6.957 187.7
	L 6.148 188.3
	M 7.766 187.1
	L 7.312 188
	L 7.312 189
	M 7.312 188
	L 6.858 188.9
	M 17.75 167.5
	L 16.95 168.1
	L 15.96 168.3
	M 16.95 168.1
	L 16.14 168.7
	L 15.68 169.6
	M 16.14 168.7
	L 15.33 169.3
	L 14.87 170.2
	L 14.06 170.8
	M 14.87 170.2
	L 14.42 171.1
	L 14.42 172.1
	M 14.42 171.1
	L 13.97 172
	M 15.33 169.3
	L 14.52 169.9
	L 14.06 170.8
	M 14.52 169.9
	L 13.71 170.5
	L 12.72 170.6
	L 11.91 171.2
	M 12.72 170.6
	L 11.73 170.8
	L 10.78 170.5
	L 9.795 170.6
	M 10.78 170.5
	L 9.832 170.2
	M 11.73 170.8
	L 10.75 170.9
	L 9.937 171.5
	M 10.75 170.9
	L 9.758 171.1
	L 8.949 171.7
	L 8.495 172.6
	M 8.949 171.7
	L 8.14 172.3
	M 9.758 171.1
	L 8.771 171.2
	L 7.82 170.9
	M 8.771 171.2
	L 7.783 171.4
	M 13.71 170.5
	L 12.9 171
	L 11.91 171.2
	M 12.9 171
	L 12.09 171.6
	L 11.64 172.5
	L 11.64 173.5
	M 11.64 172.5
	L 11.18 173.4
	M 12.09 171.6
	L 11.28 172.2
	L 10.29 172.4
	M 11.28 172.2
	L 10.47 172.8
	L 10.02 173.7
	M 10.47 172.8
	L 9.664 173.4
	L 8.676 173.6
	L 7.867 174.1
	M 8.676 173.6
	L 7.689 173.7
	L 6.738 173.4
	L 6.031 172.7
	M 6.738 173.4
	L 5.787 173.1
	L 4.799 173.2
	M 5.787 173.1
	L 4.836 172.8
	M 7.689 173.7
	L 6.701 173.9
	L 5.892 174.5
	M 6.701 173.9
	L 5.713 174
	L 4.762 173.7
	L 4.055 173
	M 4.762 173.7
	L 3.811 173.4
	L 3.104 172.7
	L 2.153 172.4
	M 3.104 172.7
	L 2.397 172
	M 3.811 173.4
	L 2.86 173.1
	L 2.153 172.4
	M 2.86 173.1
	L 1.909 172.8
	L 0.9214 172.9
	L 0.1124 173.5
	M 0.9214 172.9
	L -0.06629 173.1
	M 1.909 172.8
	L 0.958 172.5
	L 0.2509 171.8
	M 0.958 172.5
	L 0.006974 172.2
	L -0.9807 172.3
	M 0.006974 172.2
	L -0.9441 171.9
	M 5.713 174
	L 4.726 174.2
	L 3.917 174.8
	M 4.726 174.2
	L 3.738 174.3
	L 2.929 174.9
	L 1.941 175.1
	M 2.929 174.9
	L 2.12 175.5
	L 1.666 176.4
	M 2.12 175.5
	L 1.311 176.1
	M 3.738 174.3
	L 2.75 174.5
	L 1.799 174.2
	M 2.75 174.5
	L 1.763 174.6
	L 0.9535 175.2
	L 0.4996 176.1
	M 0.9535 175.2
	L 0.1445 175.8
	L -0.8432 176
	L -1.652 176.6
	M -0.8432 176
	L -1.831 176.1
	M 0.1445 175.8
	L -0.6645 176.4
	L -1.652 176.6
	M -0.6645 176.4
	L -1.474 177
	L -1.927 177.9
	L -2.737 178.5
	M -1.927 177.9
	L -2.381 178.8
	M -1.474 177
	L -2.283 177.6
	L -2.737 178.5
	M -2.283 177.6
	L -3.092 178.2
	M 1.763 174.6
	L 0.7749 174.8
	L -0.1762 174.5
	M 0.7749 174.8
	L -0.2128 175
	L -1.022 175.6
	L -2.01 175.7
	M -1.022 175.6
	L -1.831 176.1
	M -0.2128 175
	L -1.201 175.1
	L -2.01 175.7
	M -1.201 175.1
	L -2.188 175.3
	M 9.664 173.4
	L 8.855 174
	L 7.867 174.1
	M 8.855 174
	L 8.046 174.6
	L 7.592 175.5
	M 8.046 174.6
	L 7.237 175.2
	L 6.249 175.3
	L 5.44 175.9
	M 6.249 175.3
	L 5.262 175.5
	M 7.237 175.2
	L 6.428 175.7
	L 5.44 175.9
	M 6.428 175.7
	L 5.619 176.3
	L 5.165 177.2
	L 4.356 177.8
	M 5.165 177.2
	L 4.711 178.1
	L 4.711 179.1
	M 4.711 178.1
	L 4.257 179
	M 5.619 176.3
	L 4.81 176.9
	L 3.822 177.1
	M 4.81 176.9
	L 4.001 177.5
	L 3.547 178.4
	L 3.547 179.4
	M 3.547 178.4
	L 3.093 179.3
	L 2.284 179.9
	L 1.296 180
	M 2.284 179.9
	L 1.475 180.5
	M 3.093 179.3
	L 2.639 180.2
	L 2.639 181.2
	M 2.639 180.2
	L 2.185 181.1
	M 4.001 177.5
	L 3.192 178.1
	L 2.738 179
	M 3.192 178.1
	L 2.383 178.7
	L 1.929 179.6
	L 1.12 180.2
	M 1.929 179.6
	L 1.475 180.5
	L 1.475 181.5
	M 1.475 180.5
	L 1.021 181.4
	M 2.383 178.7
	L 1.574 179.3
	L 0.5862 179.4
	M 1.574 179.3
	L 0.7649 179.9
	M 83.28 119.9
	L 83.87 120.7
	L 84.46 121.5
	L 85.05 122.3
	L 85.64 123.1
	L 86.34 123.9
	L 87.05 124.6
	L 87.76 125.3
	L 88.46 126
	L 89.27 126.6
	L 90.08 127.1
	L 90.89 127.7
	L 91.7 128.3
	L 92.41 129
	L 93.11 129.7
	L 93.82 130.4
	L 94.53 131.2
	L 95.12 132
	L 95.7 132.8
	L 96.29 133.6
	L 96.88 134.4
	L 97.59 135.1
	L 98.29 135.8
	L 99 136.5
	L 99.71 137.2
	L 100.3 138
	L 100.9 138.8
	L 101.5 139.6
	L 102.1 140.5
	L 102.8 141.2
	L 103.5 141.9
	L 104.2 142.6
	L 104.9 143.3
	L 105.5 144.1
	L 106.1 144.9
	L 106.7 145.7
	L 107.2 146.5
	L 107.7 147.4
	L 108.1 148.3
	L 108.6 149.2
	L 109.1 150.1
	L 109.4 151
	L 109.7 152
	L 110 152.9
	L 110.3 153.9
	L 110.4 154.9
	L 110.6 155.9
	L 110.8 156.8
	L 110.9 157.8
	L 110.9 158.8
	L 110.9 159.8
	L 110.9 160.8
	L 110.9 161.8
	L 110.8 162.8
	L 110.6 163.8
	L 110.4 164.8
	L 110.3 165.8
	L 110.3 166.8
	L 110.3 167.8
	L 110.3 168.8
	L 110.3 169.8
	L 110.4 170.8
	L 110.6 171.8
	L 110.8 172.8
	L 110.9 173.7
	L 110.9 174.7
	L 110.9 175.7
	L 110.9 176.7
	L 110.9 177.7
	L 110.8 178.7
	L 110.6 179.7
"/>
</svg>
