<svg version="1.1" baseProfile="full" xmlns="http://www.w3.org/2000/svg"
width="660.7" height="1024"
viewBox="-18.97 -22.65 28.9 44.78"
>
<rect x="-18.97" y="-22.65" width="100%" height="100%" fill="white" />
<path stroke="green" stroke-width="0.04" stroke-linecap="round" fill="none"
transform="scale(1 -1)"
d="	M 0 0
	L 0 1
	L 0.3827 1.924
	L 0.3827 2.924
	L 0 3.848
	L 0 4.848
	L -0.3827 5.772
	L -1.09 6.479
	L -2.014 6.861
	L -2.721 7.569
	L -3.645 7.951
	L -4.645 7.951
	L -5.569 7.569
	L -6.569 7.569
	L -7.492 7.186
	L -8.492 7.186
	L -9.416 7.569
	L -10.42 7.569
	L -11.34 7.951
	L -12.05 8.658
	L -12.43 9.582
	L -13.14 10.29
	L -14.06 10.67
	L -14.77 11.38
	L -15.15 12.3
	L -15.15 13.3
	L -14.77 14.23
	L -14.06 14.93
	L -13.14 15.32
	L -12.43 16.02
	L -11.51 16.41
	L -10.51 16.41
	L -9.582 16.02
	M 0 0
	L 1 -1.11e-16
	L 1.924 0.3827
	L 2.924 0.3827
	L 3.848 0.7654
	L 4.555 1.472
	L 4.938 2.396
	L 5.645 3.103
	L 6.027 4.027
	L 6.027 5.027
	L 5.645 5.951
	L 4.938 6.658
	L 4.014 7.041
	L 3.307 7.748
	L 2.383 8.131
	L 1.383 8.131
	L 0.4588 8.513
	L -0.2483 9.221
	L -1.172 9.603
	L -1.879 10.31
	L -2.262 11.23
	L -2.262 12.23
	L -1.879 13.16
	L -1.879 14.16
	L -2.262 15.08
	L -2.969 15.79
	L -3.893 16.17
	L -4.6 16.88
	L -4.983 17.8
	L -4.983 18.8
	L -5.365 19.73
	L -5.365 20.73
	L -4.983 21.65
	M 0 0
	L -1 -1.11e-16
	L -1.924 -0.3827
	L -2.924 -0.3827
	L -3.848 -0.7654
	L -4.555 -1.472
	L -5.479 -1.855
	L -6.186 -2.562
	L -6.569 -3.486
	L -6.569 -4.486
	L -6.186 -5.41
	L -5.479 -6.117
	L -5.096 -7.041
	L -5.096 -8.041
	L -4.713 -8.965
	L -4.006 -9.672
	L -3.624 -10.6
	L -2.916 -11.3
	L -1.993 -11.69
	L -0.9926 -11.69
	L -0.06872 -12.07
	L 0.6384 -12.78
	L 1.021 -13.7
	L 1.728 -14.41
	L 2.652 -14.79
	L 3.652 -14.79
	L 4.576 -15.17
	L 5.283 -15.88
	L 6.207 -16.26
	L 6.914 -16.97
	L 7.838 -17.35
	L 8.545 -18.06
	L 8.928 -18.98
	M 0 0
	L 1.665e-16 -1
	L 0.3827 -1.924
	L 0.3827 -2.924
	L 7.216e-16 -3.848
	L 9.437e-16 -4.848
	L -0.3827 -5.772
	L -1.09 -6.479
	L -1.472 -7.403
	L -2.18 -8.11
	L -3.103 -8.492
	L -4.103 -8.492
	L -5.027 -8.875
	L -6.027 -8.875
	L -6.951 -8.492
	L -7.951 -8.492
	L -8.875 -8.875
	L -9.582 -9.582
	L -9.965 -10.51
	L -10.67 -11.21
	L -11.6 -11.6
	L -12.3 -12.3
	L -12.69 -13.23
	L -13.39 -13.93
	L -13.78 -14.86
	L -14.48 -15.56
	L -14.87 -16.49
	L -14.87 -17.49
	L -15.25 -18.41
	L -15.96 -19.12
	L -16.88 -19.5
	L -17.59 -20.21
	L -17.97 -21.13
"/>
</svg>
