<svg version="1.1" baseProfile="full" xmlns="http://www.w3.org/2000/svg"
width="1024" height="480.1"
viewBox="-1 -1.313 175.4 82.22"
>
<rect x="-1" y="-1.313" width="100%" height="100%" fill="white" />
<path stroke="green" stroke-width="0.04" stroke-linecap="round" fill="none"
transform="scale(1 -1)"
d="	M 0 0
	L 0.9877 0.1564
	L 1.975 0.3129
	L 2.975 0.3129
	L 3.975 0.3129
	L 4.975 0.3129
	L 5.975 0.3129
	L 6.963 0.1564
	L 7.951 7.216e-16
	L 8.938 -0.1564
	L 9.926 -0.3129
	L 10.93 -0.3129
	L 11.93 -0.3129
	L 12.93 -0.3129
	L 13.93 -0.3129
	L 14.91 -0.4693
	L 15.9 -0.6257
	L 16.89 -0.7822
	L 17.88 -0.9386
	L 18.88 -0.9386
	L 19.88 -0.9386
	L 20.88 -0.9386
	L 21.88 -0.9386
	L 22.86 -1.095
	L 23.85 -1.251
	L 24.84 -1.408
	L 25.83 -1.564
	L 26.78 -1.873
	L 27.73 -2.182
	L 28.68 -2.491
	L 29.63 -2.8
	L 30.62 -2.957
	L 31.61 -3.113
	L 32.59 -3.27
	L 33.58 -3.426
	L 34.53 -3.735
	L 35.48 -4.044
	L 36.44 -4.353
	L 37.39 -4.662
	L 38.37 -4.819
	L 39.36 -4.975
	L 40.35 -5.132
	L 41.34 -5.288
	L 42.29 -5.597
	L 43.24 -5.906
	L 44.19 -6.215
	L 45.14 -6.524
	L 46.03 -6.978
	L 46.92 -7.432
	L 47.81 -7.886
	L 48.71 -8.34
	L 49.51 -8.928
	L 50.32 -9.516
	L 51.13 -10.1
	L 51.94 -10.69
	L 52.83 -11.15
	L 53.72 -11.6
	L 54.61 -12.05
	L 55.51 -12.51
	L 56.46 -12.82
	L 57.41 -13.13
	L 58.36 -13.43
	L 59.31 -13.74
	L 60.2 -14.2
	L 61.09 -14.65
	L 61.98 -15.11
	L 62.87 -15.56
	L 63.83 -15.87
	L 64.78 -16.18
	L 65.73 -16.49
	L 66.68 -16.8
	L 67.67 -16.95
	L 68.65 -17.11
	L 69.64 -17.26
	L 70.63 -17.42
	L 71.63 -17.42
	L 72.63 -17.42
	L 73.63 -17.42
	L 74.63 -17.42
	L 75.62 -17.26
	L 76.6 -17.11
	L 77.59 -16.95
	L 78.58 -16.8
	L 79.53 -16.49
	L 80.48 -16.18
	L 81.43 -15.87
	L 82.38 -15.56
	L 83.37 -15.4
	L 84.36 -15.25
	L 85.35 -15.09
	L 86.33 -14.93
	L 87.33 -14.93
	L 88.33 -14.93
	L 89.33 -14.93
	L 90.33 -14.93
	L 91.32 -14.78
	L 92.31 -14.62
	L 93.3 -14.46
	L 94.29 -14.31
	L 95.24 -14
	L 96.19 -13.69
	L 97.14 -13.38
	L 98.09 -13.07
	L 98.98 -12.62
	L 99.87 -12.16
	L 100.8 -11.71
	L 101.7 -11.26
	L 102.6 -10.95
	L 103.6 -10.64
	L 104.5 -10.33
	L 105.5 -10.02
	L 106.4 -9.863
	L 107.4 -9.707
	L 108.4 -9.55
	L 109.4 -9.394
	L 110.4 -9.394
	L 111.4 -9.394
	L 112.4 -9.394
	L 113.4 -9.394
	L 114.4 -9.237
	L 115.4 -9.081
	L 116.4 -8.925
	L 117.4 -8.768
	L 118.4 -8.768
	L 119.4 -8.768
	L 120.4 -8.768
	L 121.4 -8.768
	L 122.3 -8.925
	L 123.3 -9.081
	L 124.3 -9.237
	L 125.3 -9.394
	L 126.3 -9.703
	L 127.2 -10.01
	L 128.2 -10.32
	L 129.1 -10.63
	L 130 -11.08
	L 130.9 -11.54
	L 131.8 -11.99
	L 132.7 -12.45
	L 133.5 -13.03
	L 134.3 -13.62
	L 135.1 -14.21
	L 135.9 -14.8
	L 136.8 -15.25
	L 137.7 -15.7
	L 138.6 -16.16
	L 139.5 -16.61
	L 140.3 -17.2
	L 141.1 -17.79
	L 141.9 -18.38
	L 142.7 -18.96
	L 143.4 -19.67
	L 144.1 -20.38
	L 144.8 -21.09
	L 145.5 -21.79
	L 146.4 -22.38
	L 147.2 -22.97
	L 148 -23.56
	L 148.8 -24.14
	L 149.5 -24.85
	L 150.2 -25.56
	L 150.9 -26.26
	L 151.6 -26.97
	L 152.2 -27.78
	L 152.8 -28.59
	L 153.4 -29.4
	L 154 -30.21
	L 154.4 -31.1
	L 154.9 -31.99
	L 155.3 -32.88
	L 155.8 -33.77
	L 156.4 -34.58
	L 157 -35.39
	L 157.5 -36.2
	L 158.1 -37.01
	L 158.6 -37.9
	L 159 -38.79
	L 159.5 -39.68
	L 159.9 -40.57
	L 160.3 -41.52
	L 160.6 -42.47
	L 160.9 -43.43
	L 161.2 -44.38
	L 161.3 -45.36
	L 161.5 -46.35
	L 161.6 -47.34
	L 161.8 -48.33
	L 162.1 -49.28
	L 162.4 -50.23
	L 162.7 -51.18
	L 163 -52.13
	L 163.2 -53.12
	L 163.4 -54.11
	L 163.5 -55.09
	L 163.7 -56.08
	L 164 -57.03
	L 164.3 -57.98
	L 164.6 -58.94
	L 164.9 -59.89
	L 165.1 -60.87
	L 165.2 -61.86
	L 165.4 -62.85
	L 165.5 -63.84
	L 165.8 -64.79
	L 166.1 -65.74
	L 166.5 -66.69
	L 166.8 -67.64
	L 167.2 -68.53
	L 167.7 -69.42
	L 168.1 -70.31
	L 168.6 -71.21
	L 169.2 -72.01
	L 169.8 -72.82
	L 170.3 -73.63
	L 170.9 -74.44
	L 171.4 -75.33
	L 171.8 -76.22
	L 172.3 -77.11
	L 172.7 -78.01
	L 173.1 -78.96
	L 173.4 -79.91
"/>
</svg>
