<svg version="1.1" baseProfile="full" xmlns="http://www.w3.org/2000/svg"
width="143.8" height="1024"
viewBox="-6.161 -95.35 13.53 96.35"
>
<rect x="-6.161" y="-95.35" width="100%" height="100%" fill="white" />
<path stroke="green" stroke-width="0.04" stroke-linecap="round" fill="none"
transform="scale(1 -1)"
d="	M 0 0
	L 0 1
	L -0.2079 1.978
	M 0 1
	L 0 2
	L 0.2079 2.978
	M 0 2
	L 0 3
	L -0.2079 3.978
	L -0.2079 4.978
	M -0.2079 3.978
	L -0.4158 4.956
	M 0 3
	L 0 4
	L -0.2079 4.978
	M 0 4
	L 0 5
	L 0.2079 5.978
	M 0 5
	L 0 6
	L 0.2079 6.978
	L 0.2079 7.978
	M 0.2079 6.978
	L 0.4158 7.956
	L 0.8226 8.87
	M 0.4158 7.956
	L 0.6237 8.934
	M 0 6
	L 0 7
	L 0.2079 7.978
	M 0 7
	L 0 8
	L -0.2079 8.978
	L -0.6146 9.892
	M -0.2079 8.978
	L -0.4158 9.956
	L -0.4158 10.96
	M -0.4158 9.956
	L -0.6237 10.93
	L -0.6237 11.93
	L -0.4158 12.91
	M -0.6237 11.93
	L -0.6237 12.93
	M -0.6237 10.93
	L -0.8316 11.91
	L -0.8316 12.91
	M -0.8316 11.91
	L -1.04 12.89
	M 0 8
	L 0 9
	L -0.2079 9.978
	M 0 9
	L 0 10
	L -0.2079 10.98
	L -0.2079 11.98
	M -0.2079 10.98
	L -0.4158 11.96
	M 0 10
	L 0 11
	L 0.2079 11.98
	M 0 11
	L 0 12
	L -0.2079 12.98
	L -0.2079 13.98
	M -0.2079 12.98
	L -0.4158 13.96
	L -0.4158 14.96
	L -0.6237 15.93
	M -0.4158 14.96
	L -0.4158 15.96
	L -0.2079 16.93
	M -0.4158 15.96
	L -0.4158 16.96
	M -0.4158 13.96
	L -0.6237 14.93
	L -1.03 15.85
	M -0.6237 14.93
	L -0.8316 15.91
	L -0.8316 16.91
	M -0.8316 15.91
	L -1.04 16.89
	L -1.04 17.89
	L -1.247 18.87
	M -1.04 17.89
	L -1.04 18.89
	L -1.247 19.87
	L -1.654 20.78
	M -1.247 19.87
	L -1.455 20.85
	L -1.455 21.85
	M -1.455 20.85
	L -1.663 21.83
	M -1.04 18.89
	L -1.04 19.89
	L -0.8316 20.87
	M -1.04 19.89
	L -1.04 20.89
	M -1.04 16.89
	L -1.247 17.87
	L -1.654 18.78
	M -1.247 17.87
	L -1.455 18.85
	L -1.455 19.85
	L -1.663 20.83
	M -1.455 19.85
	L -1.455 20.85
	L -1.247 21.83
	M -1.455 20.85
	L -1.455 21.85
	M -1.455 18.85
	L -1.663 19.83
	L -1.663 20.83
	M -1.663 19.83
	L -1.871 20.8
	M 0 12
	L 0 13
	L -0.2079 13.98
	M 0 13
	L 0 14
	L 0.2079 14.98
	M 0 14
	L 0 15
	L -0.2079 15.98
	L -0.6146 16.89
	M -0.2079 15.98
	L -0.4158 16.96
	L -0.4158 17.96
	M -0.4158 16.96
	L -0.6237 17.93
	M 0 15
	L 0 16
	L 0.2079 16.98
	M 0 16
	L 0 17
	L 0.2079 17.98
	L 0.2079 18.98
	M 0.2079 17.98
	L 0.4158 18.96
	L 0.8226 19.87
	M 0.4158 18.96
	L 0.6237 19.93
	M 0 17
	L 0 18
	L -0.2079 18.98
	M 0 18
	L 0 19
	L -0.2079 19.98
	L -0.6146 20.89
	M -0.2079 19.98
	L -0.4158 20.96
	L -0.4158 21.96
	L -0.2079 22.93
	M -0.4158 21.96
	L -0.4158 22.96
	M -0.4158 20.96
	L -0.6237 21.93
	L -1.03 22.85
	M -0.6237 21.93
	L -0.8316 22.91
	M 0 19
	L 0 20
	L -0.2079 20.98
	M 0 20
	L 0 21
	L -0.2079 21.98
	L -0.2079 22.98
	M -0.2079 21.98
	L -0.4158 22.96
	M 0 21
	L 0 22
	L 0.2079 22.98
	M 0 22
	L 0 23
	L 0.2079 23.98
	L 0.6146 24.89
	M 0.2079 23.98
	L 0.4158 24.96
	L 0.4158 25.96
	L 0.2079 26.93
	M 0.4158 25.96
	L 0.4158 26.96
	M 0.4158 24.96
	L 0.6237 25.93
	L 0.6237 26.93
	M 0.6237 25.93
	L 0.8316 26.91
	L 1.238 27.83
	L 1.446 28.8
	M 1.238 27.83
	L 1.645 28.74
	M 0.8316 26.91
	L 1.04 27.89
	L 1.446 28.8
	M 1.04 27.89
	L 1.247 28.87
	M 0 23
	L 0 24
	L -0.2079 24.98
	M 0 24
	L 0 25
	L -0.2079 25.98
	L -0.2079 26.98
	M -0.2079 25.98
	L -0.4158 26.96
	M 0 25
	L 0 26
	L -0.2079 26.98
	M 0 26
	L 0 27
	L 0.2079 27.98
	L 0.2079 28.98
	M 0.2079 27.98
	L 0.4158 28.96
	L 0.8226 29.87
	M 0.4158 28.96
	L 0.6237 29.93
	M 0 27
	L 0 28
	L -0.2079 28.98
	M 0 28
	L 0 29
	L 0.2079 29.98
	L 0.2079 30.98
	M 0.2079 29.98
	L 0.4158 30.96
	L 0.8226 31.87
	M 0.4158 30.96
	L 0.6237 31.93
	L 0.6237 32.93
	L 0.8316 33.91
	M 0.6237 32.93
	L 0.6237 33.93
	M 0.6237 31.93
	L 0.8316 32.91
	L 1.238 33.83
	M 0.8316 32.91
	L 1.04 33.89
	L 1.446 34.8
	L 1.654 35.78
	M 1.446 34.8
	L 1.853 35.72
	L 2.441 36.53
	M 1.853 35.72
	L 2.26 36.63
	M 1.04 33.89
	L 1.247 34.87
	L 1.247 35.87
	M 1.247 34.87
	L 1.455 35.85
	L 1.455 36.85
	L 1.663 37.83
	M 1.455 36.85
	L 1.455 37.85
	L 1.247 38.83
	L 0.8407 39.74
	M 1.247 38.83
	L 1.04 39.8
	L 1.04 40.8
	M 1.04 39.8
	L 0.8316 40.78
	M 1.455 37.85
	L 1.455 38.85
	L 1.663 39.83
	M 1.455 38.85
	L 1.455 39.85
	M 1.455 35.85
	L 1.663 36.83
	L 1.663 37.83
	M 1.663 36.83
	L 1.871 37.8
	L 1.871 38.8
	L 1.663 39.78
	M 1.871 38.8
	L 1.871 39.8
	M 1.871 37.8
	L 2.079 38.78
	L 2.486 39.7
	M 2.079 38.78
	L 2.287 39.76
	L 2.694 40.67
	L 3.282 41.48
	M 2.694 40.67
	L 3.101 41.59
	L 3.688 42.4
	L 4.431 43.06
	M 3.688 42.4
	L 4.276 43.2
	M 3.101 41.59
	L 3.507 42.5
	L 3.715 43.48
	M 3.507 42.5
	L 3.914 43.41
	L 4.502 44.22
	M 3.914 43.41
	L 4.321 44.33
	M 2.287 39.76
	L 2.495 40.74
	L 2.495 41.74
	M 2.495 40.74
	L 2.703 41.72
	L 3.11 42.63
	M 2.703 41.72
	L 2.911 42.69
	L 2.911 43.69
	L 2.703 44.67
	M 2.911 43.69
	L 2.911 44.69
	M 2.911 42.69
	L 3.119 43.67
	L 3.525 44.59
	M 3.119 43.67
	L 3.327 44.65
	L 3.733 45.56
	L 4.321 46.37
	M 3.733 45.56
	L 4.14 46.48
	M 3.327 44.65
	L 3.534 45.63
	L 3.534 46.63
	M 3.534 45.63
	L 3.742 46.61
	M 0 29
	L 0 30
	L 0.2079 30.98
	M 0 30
	L 0 31
	L 0.2079 31.98
	L 0.2079 32.98
	M 0.2079 31.98
	L 0.4158 32.96
	M 0 31
	L 0 32
	L -0.2079 32.98
	M 0 32
	L 0 33
	L 0.2079 33.98
	L 0.6146 34.89
	M 0.2079 33.98
	L 0.4158 34.96
	L 0.4158 35.96
	L 0.6237 36.93
	M 0.4158 35.96
	L 0.4158 36.96
	M 0.4158 34.96
	L 0.6237 35.93
	L 0.6237 36.93
	M 0.6237 35.93
	L 0.8316 36.91
	L 1.238 37.83
	M 0.8316 36.91
	L 1.04 37.89
	L 1.446 38.8
	L 1.654 39.78
	M 1.446 38.8
	L 1.853 39.72
	L 2.441 40.53
	M 1.853 39.72
	L 2.26 40.63
	M 1.04 37.89
	L 1.247 38.87
	L 1.654 39.78
	M 1.247 38.87
	L 1.455 39.85
	M 0 33
	L 0 34
	L -0.2079 34.98
	M 0 34
	L 0 35
	L -0.2079 35.98
	L -0.2079 36.98
	M -0.2079 35.98
	L -0.4158 36.96
	M 0 35
	L 0 36
	L -0.2079 36.98
	M 0 36
	L 0 37
	L 0.2079 37.98
	M 0 37
	L 0 38
	L -0.2079 38.98
	L -0.6146 39.89
	M -0.2079 38.98
	L -0.4158 39.96
	L -0.8226 40.87
	L -1.41 41.68
	M -0.8226 40.87
	L -1.229 41.78
	M -0.4158 39.96
	L -0.6237 40.93
	L -1.03 41.85
	M -0.6237 40.93
	L -0.8316 41.91
	L -0.8316 42.91
	L -1.04 43.89
	M -0.8316 42.91
	L -0.8316 43.91
	M -0.8316 41.91
	L -1.04 42.89
	L -1.04 43.89
	M -1.04 42.89
	L -1.247 43.87
	L -1.247 44.87
	L -1.455 45.85
	M -1.247 44.87
	L -1.247 45.87
	L -1.455 46.85
	L -1.862 47.76
	M -1.455 46.85
	L -1.663 47.83
	L -1.663 48.83
	M -1.663 47.83
	L -1.871 48.8
	M -1.247 45.87
	L -1.247 46.87
	L -1.455 47.85
	M -1.247 46.87
	L -1.247 47.87
	L -1.04 48.85
	L -1.04 49.85
	M -1.04 48.85
	L -0.8316 49.83
	L -0.4249 50.74
	M -0.8316 49.83
	L -0.6237 50.8
	M -1.247 47.87
	L -1.247 48.87
	L -1.455 49.85
	M -1.247 48.87
	L -1.247 49.87
	M -1.247 43.87
	L -1.455 44.85
	L -1.862 45.76
	M -1.455 44.85
	L -1.663 45.83
	L -1.663 46.83
	M -1.663 45.83
	L -1.871 46.8
	L -2.278 47.72
	L -2.866 48.53
	M -2.278 47.72
	L -2.685 48.63
	M -1.871 46.8
	L -2.079 47.78
	L -2.486 48.7
	M -2.079 47.78
	L -2.287 48.76
	L -2.287 49.76
	M -2.287 48.76
	L -2.495 49.74
	L -2.495 50.74
	L -2.287 51.72
	M -2.495 50.74
	L -2.495 51.74
	L -2.703 52.72
	L -2.703 53.72
	M -2.703 52.72
	L -2.911 53.69
	M -2.495 51.74
	L -2.495 52.74
	L -2.287 53.72
	M -2.495 52.74
	L -2.495 53.74
	L -2.287 54.72
	L -2.287 55.72
	M -2.287 54.72
	L -2.079 55.69
	M -2.495 53.74
	L -2.495 54.74
	L -2.287 55.72
	M -2.495 54.74
	L -2.495 55.74
	L -2.703 56.72
	L -3.11 57.63
	M -2.703 56.72
	L -2.911 57.69
	L -2.911 58.69
	M -2.911 57.69
	L -3.119 58.67
	L -3.525 59.59
	L -4.113 60.39
	M -3.525 59.59
	L -3.932 60.5
	M -3.119 58.67
	L -3.327 59.65
	L -3.733 60.56
	M -3.327 59.65
	L -3.534 60.63
	M -2.495 55.74
	L -2.495 56.74
	L -2.703 57.72
	M -2.495 56.74
	L -2.495 57.74
	L -2.287 58.72
	M -2.495 57.74
	L -2.495 58.74
	L -2.703 59.72
	L -3.11 60.63
	M -2.703 59.72
	L -2.911 60.69
	L -2.911 61.69
	M -2.911 60.69
	L -3.119 61.67
	M -2.495 58.74
	L -2.495 59.74
	L -2.703 60.72
	M -2.495 59.74
	L -2.495 60.74
	L -2.287 61.72
	L -2.287 62.72
	M -2.287 61.72
	L -2.079 62.69
	M -2.495 60.74
	L -2.495 61.74
	L -2.703 62.72
	M -2.495 61.74
	L -2.495 62.74
	M -2.495 49.74
	L -2.703 50.72
	L -3.11 51.63
	M -2.703 50.72
	L -2.911 51.69
	L -2.911 52.69
	M -2.911 51.69
	L -3.119 52.67
	L -3.119 53.67
	L -2.911 54.65
	M -3.119 53.67
	L -3.119 54.67
	M -3.119 52.67
	L -3.327 53.65
	L -3.733 54.56
	M -3.327 53.65
	L -3.534 54.63
	L -3.941 55.54
	L -4.529 56.35
	M -3.941 55.54
	L -4.348 56.46
	L -4.556 57.43
	L -4.556 58.43
	M -4.556 57.43
	L -4.764 58.41
	M -4.348 56.46
	L -4.755 57.37
	L -4.963 58.35
	M -4.755 57.37
	L -5.161 58.28
	M -3.534 54.63
	L -3.742 55.61
	L -3.742 56.61
	M -3.742 55.61
	L -3.95 56.58
	L -4.357 57.5
	L -4.945 58.31
	M -4.357 57.5
	L -4.764 58.41
	M -3.95 56.58
	L -4.158 57.56
	L -4.565 58.48
	M -4.158 57.56
	L -4.366 58.54
	M 0 38
	L 0 39
	L 0.2079 39.98
	M 0 39
	L 0 40
	L -0.2079 40.98
	L -0.2079 41.98
	M -0.2079 40.98
	L -0.4158 41.96
	M 0 40
	L 0 41
	L 0.2079 41.98
	M 0 41
	L 0 42
	L 0.2079 42.98
	L 0.6146 43.89
	M 0.2079 42.98
	L 0.4158 43.96
	M 0 42
	L 0 43
	L 0.2079 43.98
	M 0 43
	L 0 44
	L -0.2079 44.98
	L -0.6146 45.89
	M -0.2079 44.98
	L -0.4158 45.96
	L -0.8226 46.87
	L -1.03 47.85
	M -0.8226 46.87
	L -1.229 47.78
	M -0.4158 45.96
	L -0.6237 46.93
	L -0.6237 47.93
	M -0.6237 46.93
	L -0.8316 47.91
	M 0 44
	L 0 45
	L 0.2079 45.98
	M 0 45
	L 0 46
	L 0.2079 46.98
	L 0.2079 47.98
	M 0.2079 46.98
	L 0.4158 47.96
	M 0 46
	L 0 47
	L -0.2079 47.98
	M 0 47
	L 0 48
	L 0.2079 48.98
	L 0.2079 49.98
	M 0.2079 48.98
	L 0.4158 49.96
	L 0.8226 50.87
	M 0.4158 49.96
	L 0.6237 50.93
	L 0.6237 51.93
	L 0.4158 52.91
	M 0.6237 51.93
	L 0.6237 52.93
	M 0.6237 50.93
	L 0.8316 51.91
	L 0.8316 52.91
	M 0.8316 51.91
	L 1.04 52.89
	L 1.446 53.8
	M 1.04 52.89
	L 1.247 53.87
	L 1.654 54.78
	L 1.862 55.76
	M 1.654 54.78
	L 2.061 55.7
	L 2.649 56.5
	M 2.061 55.7
	L 2.468 56.61
	L 2.676 57.59
	L 2.676 58.59
	M 2.676 57.59
	L 2.884 58.57
	L 3.29 59.48
	M 2.884 58.57
	L 3.091 59.54
	M 2.468 56.61
	L 2.874 57.52
	L 3.082 58.5
	M 2.874 57.52
	L 3.281 58.44
	L 3.869 59.25
	M 3.281 58.44
	L 3.688 59.35
	L 4.276 60.16
	L 5.019 60.83
	M 4.276 60.16
	L 4.863 60.97
	M 3.688 59.35
	L 4.095 60.26
	L 4.303 61.24
	M 4.095 60.26
	L 4.501 61.18
	M 1.247 53.87
	L 1.455 54.85
	L 1.862 55.76
	M 1.455 54.85
	L 1.663 55.83
	L 1.663 56.83
	L 1.455 57.8
	M 1.663 56.83
	L 1.663 57.83
	M 1.663 55.83
	L 1.871 56.8
	L 1.871 57.8
	M 1.871 56.8
	L 2.079 57.78
	L 2.486 58.7
	M 2.079 57.78
	L 2.287 58.76
	M 0 48
	L 0 49
	L -0.2079 49.98
	M 0 49
	L 0 50
	L 0.2079 50.98
	M 0 50
	L 0 51
	L -0.2079 51.98
	L -0.6146 52.89
	M -0.2079 51.98
	L -0.4158 52.96
	L -0.4158 53.96
	M -0.4158 52.96
	L -0.6237 53.93
	M 0 51
	L 0 52
	L 0.2079 52.98
	M 0 52
	L 0 53
	L 0.2079 53.98
	L 0.2079 54.98
	M 0.2079 53.98
	L 0.4158 54.96
	L 0.8226 55.87
	M 0.4158 54.96
	L 0.6237 55.93
	L 1.03 56.85
	L 1.238 57.83
	M 1.03 56.85
	L 1.437 57.76
	L 2.025 58.57
	M 1.437 57.76
	L 1.844 58.68
	M 0.6237 55.93
	L 0.8316 56.91
	L 0.8316 57.91
	M 0.8316 56.91
	L 1.04 57.89
	M 0 53
	L 0 54
	L -0.2079 54.98
	M 0 54
	L 0 55
	L -0.2079 55.98
	L -0.2079 56.98
	M -0.2079 55.98
	L -0.4158 56.96
	M 0 55
	L 0 56
	L -0.2079 56.98
	M 0 56
	L 0 57
	L 0.2079 57.98
	M 0 57
	L 0 58
	L 0.2079 58.98
	L 0.6146 59.89
	M 0.2079 58.98
	L 0.4158 59.96
	M 0 58
	L 0 59
	L -0.2079 59.98
	M 0 59
	L 0 60
	L 0.2079 60.98
	L 0.2079 61.98
	M 0.2079 60.98
	L 0.4158 61.96
	L 0.8226 62.87
	M 0.4158 61.96
	L 0.6237 62.93
	L 1.03 63.85
	L 1.618 64.66
	M 1.03 63.85
	L 1.437 64.76
	M 0.6237 62.93
	L 0.8316 63.91
	L 0.8316 64.91
	M 0.8316 63.91
	L 1.04 64.89
	L 1.446 65.8
	L 1.654 66.78
	M 1.446 65.8
	L 1.853 66.72
	L 2.441 67.53
	M 1.853 66.72
	L 2.26 67.63
	L 2.468 68.61
	L 2.468 69.61
	M 2.468 68.61
	L 2.676 69.59
	M 2.26 67.63
	L 2.667 68.54
	L 3.254 69.35
	M 2.667 68.54
	L 3.073 69.46
	L 3.661 70.27
	L 4.068 71.18
	M 3.661 70.27
	L 4.249 71.08
	L 4.992 71.75
	M 4.249 71.08
	L 4.837 71.89
	M 3.073 69.46
	L 3.48 70.37
	L 4.068 71.18
	M 3.48 70.37
	L 3.887 71.29
	M 1.04 64.89
	L 1.247 65.87
	L 1.654 66.78
	M 1.247 65.87
	L 1.455 66.85
	L 1.455 67.85
	L 1.247 68.83
	M 1.455 67.85
	L 1.455 68.85
	L 1.663 69.83
	M 1.455 68.85
	L 1.455 69.85
	M 1.455 66.85
	L 1.663 67.83
	L 2.07 68.74
	M 1.663 67.83
	L 1.871 68.8
	L 1.871 69.8
	L 1.663 70.78
	M 1.871 69.8
	L 1.871 70.8
	L 1.663 71.78
	L 1.663 72.78
	M 1.663 71.78
	L 1.455 72.76
	M 1.871 70.8
	L 1.871 71.8
	L 1.663 72.78
	M 1.871 71.8
	L 1.871 72.8
	L 2.079 73.78
	M 1.871 72.8
	L 1.871 73.8
	L 2.079 74.78
	L 2.079 75.78
	M 2.079 74.78
	L 2.287 75.76
	M 1.871 73.8
	L 1.871 74.8
	L 2.079 75.78
	M 1.871 74.8
	L 1.871 75.8
	L 2.079 76.78
	L 2.079 77.78
	M 2.079 76.78
	L 2.287 77.76
	L 2.694 78.67
	M 2.287 77.76
	L 2.495 78.74
	L 2.495 79.74
	L 2.703 80.72
	M 2.495 79.74
	L 2.495 80.74
	M 2.495 78.74
	L 2.703 79.72
	L 3.11 80.63
	M 2.703 79.72
	L 2.911 80.69
	L 3.318 81.61
	L 3.905 82.42
	M 3.318 81.61
	L 3.724 82.52
	M 2.911 80.69
	L 3.119 81.67
	L 3.525 82.59
	M 3.119 81.67
	L 3.327 82.65
	M 1.871 75.8
	L 1.871 76.8
	L 1.663 77.78
	M 1.871 76.8
	L 1.871 77.8
	L 1.663 78.78
	L 1.257 79.7
	M 1.663 78.78
	L 1.455 79.76
	L 1.455 80.76
	M 1.455 79.76
	L 1.247 80.74
	M 1.871 77.8
	L 1.871 78.8
	L 1.663 79.78
	M 1.871 78.8
	L 1.871 79.8
	L 2.079 80.78
	L 2.079 81.78
	M 2.079 80.78
	L 2.287 81.76
	L 2.694 82.67
	M 2.287 81.76
	L 2.495 82.74
	M 1.871 79.8
	L 1.871 80.8
	L 2.079 81.78
	M 1.871 80.8
	L 1.871 81.8
	M 1.871 68.8
	L 2.079 69.78
	L 2.079 70.78
	M 2.079 69.78
	L 2.287 70.76
	L 2.694 71.67
	M 2.287 70.76
	L 2.495 71.74
	L 2.495 72.74
	L 2.287 73.72
	M 2.495 72.74
	L 2.495 73.74
	L 2.703 74.72
	M 2.495 73.74
	L 2.495 74.74
	M 2.495 71.74
	L 2.703 72.72
	L 2.703 73.72
	M 2.703 72.72
	L 2.911 73.69
	L 3.318 74.61
	L 3.525 75.59
	M 3.318 74.61
	L 3.724 75.52
	L 4.312 76.33
	M 3.724 75.52
	L 4.131 76.43
	M 2.911 73.69
	L 3.119 74.67
	L 3.119 75.67
	M 3.119 74.67
	L 3.327 75.65
	L 3.327 76.65
	L 3.534 77.63
	M 3.327 76.65
	L 3.327 77.65
	L 3.119 78.63
	L 3.119 79.63
	M 3.119 78.63
	L 2.911 79.61
	M 3.327 77.65
	L 3.327 78.65
	L 3.119 79.63
	M 3.327 78.65
	L 3.327 79.65
	M 3.327 75.65
	L 3.534 76.63
	L 3.941 77.54
	M 3.534 76.63
	L 3.742 77.61
	L 3.742 78.61
	L 3.534 79.58
	M 3.742 78.61
	L 3.742 79.61
	M 3.742 77.61
	L 3.95 78.58
	L 3.95 79.58
	M 3.95 78.58
	L 4.158 79.56
	L 4.565 80.48
	L 4.773 81.45
	M 4.565 80.48
	L 4.972 81.39
	L 5.18 82.37
	L 5.586 83.28
	M 5.18 82.37
	L 5.388 83.35
	M 4.972 81.39
	L 5.378 82.3
	L 5.586 83.28
	M 5.378 82.3
	L 5.785 83.22
	L 6.373 84.03
	M 5.785 83.22
	L 6.192 84.13
	M 4.158 79.56
	L 4.366 80.54
	L 4.366 81.54
	M 4.366 80.54
	L 4.574 81.52
	L 4.981 82.43
	M 4.574 81.52
	L 4.782 82.5
	L 4.782 83.5
	L 4.574 84.48
	M 4.782 83.5
	L 4.782 84.5
	M 4.782 82.5
	L 4.99 83.48
	L 5.397 84.39
	M 4.99 83.48
	L 5.198 84.45
	L 5.605 85.37
	L 6.192 86.18
	M 5.605 85.37
	L 6.011 86.28
	M 5.198 84.45
	L 5.406 85.43
	L 5.406 86.43
	M 5.406 85.43
	L 5.614 86.41
	M 0 60
	L 0 61
	L 0.2079 61.98
	M 0 61
	L 0 62
	L -0.2079 62.98
	L -0.6146 63.89
	M -0.2079 62.98
	L -0.4158 63.96
	L -0.4158 64.96
	M -0.4158 63.96
	L -0.6237 64.93
	M 0 62
	L 0 63
	L 0.2079 63.98
	M 0 63
	L 0 64
	L 0.2079 64.98
	L 0.2079 65.98
	M 0.2079 64.98
	L 0.4158 65.96
	L 0.8226 66.87
	M 0.4158 65.96
	L 0.6237 66.93
	M 0 64
	L 0 65
	L -0.2079 65.98
	M 0 65
	L 0 66
	L 0.2079 66.98
	M 0 66
	L 0 67
	L -0.2079 67.98
	L -0.6146 68.89
	M -0.2079 67.98
	L -0.4158 68.96
	L -0.8226 69.87
	L -1.41 70.68
	M -0.8226 69.87
	L -1.229 70.78
	M -0.4158 68.96
	L -0.6237 69.93
	L -1.03 70.85
	M -0.6237 69.93
	L -0.8316 70.91
	L -0.8316 71.91
	L -0.6237 72.89
	M -0.8316 71.91
	L -0.8316 72.91
	M -0.8316 70.91
	L -1.04 71.89
	L -1.04 72.89
	M -1.04 71.89
	L -1.247 72.87
	M 0 67
	L 0 68
	L -0.2079 68.98
	M 0 68
	L 0 69
	L -0.2079 69.98
	L -0.6146 70.89
	M -0.2079 69.98
	L -0.4158 70.96
	M 0 69
	L 0 70
	L 0.2079 70.98
	M 0 70
	L 0 71
	L 0.2079 71.98
	L 0.2079 72.98
	M 0.2079 71.98
	L 0.4158 72.96
	M 0 71
	L 0 72
	L 0.2079 72.98
	M 0 72
	L 0 73
	L 0.2079 73.98
	L 0.2079 74.98
	M 0.2079 73.98
	L 0.4158 74.96
	L 0.8226 75.87
	L 1.41 76.68
	M 0.8226 75.87
	L 1.229 76.78
	M 0.4158 74.96
	L 0.6237 75.93
	L 0.6237 76.93
	M 0.6237 75.93
	L 0.8316 76.91
	L 1.238 77.83
	M 0.8316 76.91
	L 1.04 77.89
	M 0 73
	L 0 74
	L 0.2079 74.98
	M 0 74
	L 0 75
	L -0.2079 75.98
	L -0.6146 76.89
	M -0.2079 75.98
	L -0.4158 76.96
	M 0 75
	L 0 76
	L -0.2079 76.98
	M 0 76
	L 0 77
	L 0.2079 77.98
	M 0 77
	L 0 78
	L 0.2079 78.98
	L 0.6146 79.89
	M 0.2079 78.98
	L 0.4158 79.96
	M 0 78
	L 0 79
	L 0.2079 79.98
	M 0 79
	L 0 80
	L 0.2079 80.98
	L 0.6146 81.89
	M 0.2079 80.98
	L 0.4158 81.96
	L 0.4158 82.96
	L 0.6237 83.93
	M 0.4158 82.96
	L 0.4158 83.96
	M 0.4158 81.96
	L 0.6237 82.93
	L 0.6237 83.93
	M 0.6237 82.93
	L 0.8316 83.91
	L 1.238 84.83
	M 0.8316 83.91
	L 1.04 84.89
	L 1.04 85.89
	L 0.8316 86.87
	M 1.04 85.89
	L 1.04 86.89
	L 1.247 87.87
	M 1.04 86.89
	L 1.04 87.89
	L 0.8316 88.87
	L 0.4249 89.78
	M 0.8316 88.87
	L 0.6237 89.85
	M 1.04 87.89
	L 1.04 88.89
	L 1.247 89.87
	M 1.04 88.89
	L 1.04 89.89
	M 1.04 84.89
	L 1.247 85.87
	L 1.247 86.87
	M 1.247 85.87
	L 1.455 86.85
	L 1.862 87.76
	M 1.455 86.85
	L 1.663 87.83
	L 1.663 88.83
	L 1.871 89.8
	M 1.663 88.83
	L 1.663 89.83
	M 1.663 87.83
	L 1.871 88.8
	L 2.278 89.72
	M 1.871 88.8
	L 2.079 89.78
	L 2.486 90.7
	L 3.074 91.5
	M 2.486 90.7
	L 2.893 91.61
	L 3.101 92.59
	L 3.507 93.5
	M 3.101 92.59
	L 3.308 93.56
	M 2.893 91.61
	L 3.299 92.52
	L 3.507 93.5
	M 3.299 92.52
	L 3.706 93.44
	L 4.294 94.24
	M 3.706 93.44
	L 4.113 94.35
	M 2.079 89.78
	L 2.287 90.76
	L 2.287 91.76
	M 2.287 90.76
	L 2.495 91.74
	L 2.902 92.65
	L 3.11 93.63
	M 2.902 92.65
	L 3.308 93.56
	M 2.495 91.74
	L 2.703 92.72
	L 2.703 93.72
	M 2.703 92.72
	L 2.911 93.69
	M 0 80
	L 0 81
	L 0.2079 81.98
	M 0 81
	L 0 82
	L -0.2079 82.98
	L -0.2079 83.98
	M -0.2079 82.98
	L -0.4158 83.96
	M 0 82
	L 0 83
	L -0.2079 83.98
	M 0 83
	L 0 84
	L -0.2079 84.98
	L -0.6146 85.89
	M -0.2079 84.98
	L -0.4158 85.96
	L -0.4158 86.96
	M -0.4158 85.96
	L -0.6237 86.93
	L -1.03 87.85
	L -1.618 88.66
	M -1.03 87.85
	L -1.437 88.76
	M -0.6237 86.93
	L -0.8316 87.91
	L -1.238 88.83
	M -0.8316 87.91
	L -1.04 88.89
	L -1.04 89.89
	L -0.8316 90.87
	M -1.04 89.89
	L -1.04 90.89
	M -1.04 88.89
	L -1.247 89.87
	L -1.654 90.78
	M -1.247 89.87
	L -1.455 90.85
	M 0 84
	L 0 85
	L 0.2079 85.98
	M 0 85
	L 0 86
	L -0.2079 86.98
	L -0.6146 87.89
	M -0.2079 86.98
	L -0.4158 87.96
	L -0.4158 88.96
	M -0.4158 87.96
	L -0.6237 88.93
	M 0 86
	L 0 87
	L -0.2079 87.98
	M 0 87
	L 0 88
	L 0.2079 88.98
	M 0 88
	L 0 89
	L 0.2079 89.98
	L 0.6146 90.89
	M 0.2079 89.98
	L 0.4158 90.96
	M 0 89
	L 0 90
	L -0.2079 90.98
	M 0 90
	L 0 91
	L 0.2079 91.98
	M 0 91
	L 0 92
"/>
</svg>
