<svg version="1.1" baseProfile="full" xmlns="http://www.w3.org/2000/svg"
width="233.1" height="1024"
viewBox="-10.04 -95.26 21.91 96.26"
>
<rect x="-10.04" y="-95.26" width="100%" height="100%" fill="white" />
<path stroke="green" stroke-width="0.04" stroke-linecap="round" fill="none"
transform="scale(1 -1)"
d="	M 0 0
	L 0 1
	L 0.2079 1.978
	M 0 1
	L 0 2
	L -0.2079 2.978
	L -0.2079 3.978
	M -0.2079 2.978
	L -0.4158 3.956
	M 0 2
	L 0 3
	L -0.2079 3.978
	M 0 3
	L 0 4
	L 0.2079 4.978
	M 0 4
	L 0 5
	L -0.2079 5.978
	L -0.2079 6.978
	M -0.2079 5.978
	L -0.4158 6.956
	L -0.8226 7.87
	L -1.41 8.679
	M -0.8226 7.87
	L -1.229 8.783
	M -0.4158 6.956
	L -0.6237 7.934
	L -1.03 8.848
	M -0.6237 7.934
	L -0.8316 8.913
	M 0 5
	L 0 6
	L -0.2079 6.978
	M 0 6
	L 0 7
	L -0.2079 7.978
	L -0.6146 8.892
	M -0.2079 7.978
	L -0.4158 8.956
	L -0.4158 9.956
	M -0.4158 8.956
	L -0.6237 9.934
	M 0 7
	L 0 8
	L 0.2079 8.978
	M 0 8
	L 0 9
	L 0.2079 9.978
	L 0.2079 10.98
	M 0.2079 9.978
	L 0.4158 10.96
	M 0 9
	L 0 10
	L -0.2079 10.98
	M 0 10
	L 0 11
	L -0.2079 11.98
	L -0.6146 12.89
	M -0.2079 11.98
	L -0.4158 12.96
	L -0.4158 13.96
	M -0.4158 12.96
	L -0.6237 13.93
	L -1.03 14.85
	L -1.618 15.66
	M -1.03 14.85
	L -1.437 15.76
	L -1.645 16.74
	M -1.437 15.76
	L -1.844 16.68
	M -0.6237 13.93
	L -0.8316 14.91
	L -1.238 15.83
	M -0.8316 14.91
	L -1.04 15.89
	L -1.446 16.8
	L -2.034 17.61
	M -1.446 16.8
	L -1.853 17.72
	L -2.061 18.7
	M -1.853 17.72
	L -2.26 18.63
	L -2.468 19.61
	L -2.874 20.52
	M -2.468 19.61
	L -2.676 20.59
	L -2.676 21.59
	M -2.676 20.59
	L -2.884 21.57
	M -2.26 18.63
	L -2.667 19.54
	L -2.874 20.52
	M -2.667 19.54
	L -3.073 20.46
	M -1.04 15.89
	L -1.247 16.87
	L -1.247 17.87
	M -1.247 16.87
	L -1.455 17.85
	L -1.455 18.85
	L -1.663 19.83
	M -1.455 18.85
	L -1.455 19.85
	M -1.455 17.85
	L -1.663 18.83
	L -2.07 19.74
	M -1.663 18.83
	L -1.871 19.8
	L -1.871 20.8
	L -2.079 21.78
	M -1.871 20.8
	L -1.871 21.8
	L -1.663 22.78
	L -1.663 23.78
	M -1.663 22.78
	L -1.455 23.76
	M -1.871 21.8
	L -1.871 22.8
	L -2.079 23.78
	M -1.871 22.8
	L -1.871 23.8
	M -1.871 19.8
	L -2.079 20.78
	L -2.486 21.7
	M -2.079 20.78
	L -2.287 21.76
	L -2.287 22.76
	L -2.495 23.74
	M -2.287 22.76
	L -2.287 23.76
	M -2.287 21.76
	L -2.495 22.74
	L -2.902 23.65
	M -2.495 22.74
	L -2.703 23.72
	L -2.703 24.72
	M -2.703 23.72
	L -2.911 24.69
	M 0 11
	L 0 12
	L -0.2079 12.98
	M 0 12
	L 0 13
	L 0.2079 13.98
	L 0.2079 14.98
	M 0.2079 13.98
	L 0.4158 14.96
	M 0 13
	L 0 14
	L -0.2079 14.98
	M 0 14
	L 0 15
	L 0.2079 15.98
	M 0 15
	L 0 16
	L -0.2079 16.98
	L -0.6146 17.89
	M -0.2079 16.98
	L -0.4158 17.96
	L -0.8226 18.87
	L -1.41 19.68
	M -0.8226 18.87
	L -1.229 19.78
	L -1.437 20.76
	M -1.229 19.78
	L -1.636 20.7
	M -0.4158 17.96
	L -0.6237 18.93
	L -0.6237 19.93
	M -0.6237 18.93
	L -0.8316 19.91
	L -0.8316 20.91
	L -1.04 21.89
	M -0.8316 20.91
	L -0.8316 21.91
	L -0.6237 22.89
	M -0.8316 21.91
	L -0.8316 22.91
	M -0.8316 19.91
	L -1.04 20.89
	L -1.446 21.8
	M -1.04 20.89
	L -1.247 21.87
	L -1.247 22.87
	M -1.247 21.87
	L -1.455 22.85
	M 0 16
	L 0 17
	L 0.2079 17.98
	M 0 17
	L 0 18
	L 0.2079 18.98
	L 0.2079 19.98
	M 0.2079 18.98
	L 0.4158 19.96
	M 0 18
	L 0 19
	L -0.2079 19.98
	M 0 19
	L 0 20
	L 0.2079 20.98
	L 0.2079 21.98
	M 0.2079 20.98
	L 0.4158 21.96
	L 0.8226 22.87
	M 0.4158 21.96
	L 0.6237 22.93
	L 0.6237 23.93
	L 0.4158 24.91
	M 0.6237 23.93
	L 0.6237 24.93
	L 0.8316 25.91
	M 0.6237 24.93
	L 0.6237 25.93
	M 0.6237 22.93
	L 0.8316 23.91
	L 1.238 24.83
	M 0.8316 23.91
	L 1.04 24.89
	M 0 20
	L 0 21
	L -0.2079 21.98
	M 0 21
	L 0 22
	L -0.2079 22.98
	L -0.2079 23.98
	M -0.2079 22.98
	L -0.4158 23.96
	M 0 22
	L 0 23
	L 0.2079 23.98
	M 0 23
	L 0 24
	L 0.2079 24.98
	L 0.2079 25.98
	M 0.2079 24.98
	L 0.4158 25.96
	M 0 24
	L 0 25
	L 0.2079 25.98
	M 0 25
	L 0 26
	L 0.2079 26.98
	L 0.6146 27.89
	M 0.2079 26.98
	L 0.4158 27.96
	L 0.4158 28.96
	L 0.6237 29.93
	M 0.4158 28.96
	L 0.4158 29.96
	M 0.4158 27.96
	L 0.6237 28.93
	L 1.03 29.85
	M 0.6237 28.93
	L 0.8316 29.91
	L 1.238 30.83
	L 1.826 31.64
	M 1.238 30.83
	L 1.645 31.74
	M 0.8316 29.91
	L 1.04 30.89
	L 1.04 31.89
	M 1.04 30.89
	L 1.247 31.87
	L 1.654 32.78
	M 1.247 31.87
	L 1.455 32.85
	L 1.455 33.85
	L 1.663 34.83
	M 1.455 33.85
	L 1.455 34.85
	L 1.663 35.83
	L 2.07 36.74
	M 1.663 35.83
	L 1.871 36.8
	M 1.455 34.85
	L 1.455 35.85
	L 1.247 36.83
	M 1.455 35.85
	L 1.455 36.85
	M 1.455 32.85
	L 1.663 33.83
	L 1.663 34.83
	M 1.663 33.83
	L 1.871 34.8
	L 2.278 35.72
	M 1.871 34.8
	L 2.079 35.78
	L 2.486 36.7
	L 2.694 37.67
	M 2.486 36.7
	L 2.893 37.61
	L 3.48 38.42
	M 2.893 37.61
	L 3.299 38.52
	M 2.079 35.78
	L 2.287 36.76
	L 2.694 37.67
	M 2.287 36.76
	L 2.495 37.74
	M 0 26
	L 0 27
	L -0.2079 27.98
	M 0 27
	L 0 28
	L 0.2079 28.98
	M 0 28
	L 0 29
	L -0.2079 29.98
	L -0.6146 30.89
	M -0.2079 29.98
	L -0.4158 30.96
	M 0 29
	L 0 30
	L -0.2079 30.98
	M 0 30
	L 0 31
	L 0.2079 31.98
	M 0 31
	L 0 32
	L 0.2079 32.98
	L 0.2079 33.98
	M 0.2079 32.98
	L 0.4158 33.96
	M 0 32
	L 0 33
	L -0.2079 33.98
	M 0 33
	L 0 34
	L 0.2079 34.98
	L 0.2079 35.98
	M 0.2079 34.98
	L 0.4158 35.96
	L 0.4158 36.96
	L 0.6237 37.93
	M 0.4158 36.96
	L 0.4158 37.96
	M 0.4158 35.96
	L 0.6237 36.93
	L 0.6237 37.93
	M 0.6237 36.93
	L 0.8316 37.91
	M 0 34
	L 0 35
	L -0.2079 35.98
	M 0 35
	L 0 36
	L 0.2079 36.98
	M 0 36
	L 0 37
	L -0.2079 37.98
	L -0.6146 38.89
	M -0.2079 37.98
	L -0.4158 38.96
	L -0.4158 39.96
	M -0.4158 38.96
	L -0.6237 39.93
	M 0 37
	L 0 38
	L -0.2079 38.98
	M 0 38
	L 0 39
	L 0.2079 39.98
	L 0.2079 40.98
	M 0.2079 39.98
	L 0.4158 40.96
	M 0 39
	L 0 40
	L -0.2079 40.98
	M 0 40
	L 0 41
	L 0.2079 41.98
	M 0 41
	L 0 42
	L -0.2079 42.98
	L -0.6146 43.89
	M -0.2079 42.98
	L -0.4158 43.96
	L -0.4158 44.96
	M -0.4158 43.96
	L -0.6237 44.93
	L -1.03 45.85
	L -1.238 46.83
	M -1.03 45.85
	L -1.437 46.76
	M -0.6237 44.93
	L -0.8316 45.91
	L -0.8316 46.91
	M -0.8316 45.91
	L -1.04 46.89
	L -1.446 47.8
	L -2.034 48.61
	M -1.446 47.8
	L -1.853 48.72
	L -2.061 49.7
	M -1.853 48.72
	L -2.26 49.63
	L -2.848 50.44
	L -3.254 51.35
	M -2.848 50.44
	L -3.435 51.25
	M -2.26 49.63
	L -2.667 50.54
	L -3.254 51.35
	M -2.667 50.54
	L -3.073 51.46
	M -1.04 46.89
	L -1.247 47.87
	L -1.654 48.78
	M -1.247 47.87
	L -1.455 48.85
	L -1.455 49.85
	M -1.455 48.85
	L -1.663 49.83
	L -2.07 50.74
	L -2.658 51.55
	M -2.07 50.74
	L -2.477 51.65
	M -1.663 49.83
	L -1.871 50.8
	L -2.278 51.72
	M -1.871 50.8
	L -2.079 51.78
	L -2.486 52.7
	L -3.074 53.5
	M -2.486 52.7
	L -2.893 53.61
	L -3.101 54.59
	M -2.893 53.61
	L -3.299 54.52
	L -3.887 55.33
	L -4.63 56
	M -3.887 55.33
	L -4.475 56.14
	L -4.882 57.05
	M -4.475 56.14
	L -5.063 56.95
	M -3.299 54.52
	L -3.706 55.44
	L -4.294 56.24
	M -3.706 55.44
	L -4.113 56.35
	L -4.321 57.33
	L -4.321 58.33
	M -4.321 57.33
	L -4.529 58.31
	M -4.113 56.35
	L -4.52 57.26
	L -4.727 58.24
	M -4.52 57.26
	L -4.926 58.18
	L -5.514 58.99
	L -5.921 59.9
	M -5.514 58.99
	L -6.102 59.79
	L -6.845 60.46
	L -7.433 61.27
	M -6.845 60.46
	L -7.588 61.13
	M -6.102 59.79
	L -6.69 60.6
	L -7.096 61.52
	M -6.69 60.6
	L -7.277 61.41
	L -7.684 62.33
	L -8.272 63.13
	M -7.684 62.33
	L -8.091 63.24
	M -7.277 61.41
	L -7.865 62.22
	L -8.608 62.89
	M -7.865 62.22
	L -8.453 63.03
	L -8.86 63.94
	M -8.453 63.03
	L -9.041 63.84
	M -4.926 58.18
	L -5.333 59.09
	L -5.541 60.07
	M -5.333 59.09
	L -5.74 60
	L -6.328 60.81
	L -7.071 61.48
	M -6.328 60.81
	L -6.915 61.62
	L -7.322 62.53
	M -6.915 61.62
	L -7.503 62.43
	M -5.74 60
	L -6.146 60.92
	L -6.734 61.73
	M -6.146 60.92
	L -6.553 61.83
	M -2.079 51.78
	L -2.287 52.76
	L -2.694 53.67
	M -2.287 52.76
	L -2.495 53.74
	L -2.495 54.74
	L -2.703 55.72
	M -2.495 54.74
	L -2.495 55.74
	L -2.287 56.72
	M -2.495 55.74
	L -2.495 56.74
	M -2.495 53.74
	L -2.703 54.72
	L -3.11 55.63
	M -2.703 54.72
	L -2.911 55.69
	L -2.911 56.69
	M -2.911 55.69
	L -3.119 56.67
	L -3.525 57.59
	L -3.733 58.56
	M -3.525 57.59
	L -3.932 58.5
	L -4.52 59.31
	L -4.927 60.22
	M -4.52 59.31
	L -5.108 60.12
	M -3.932 58.5
	L -4.339 59.41
	L -4.927 60.22
	M -4.339 59.41
	L -4.746 60.33
	M -3.119 56.67
	L -3.327 57.65
	L -3.327 58.65
	M -3.327 57.65
	L -3.534 58.63
	L -3.941 59.54
	L -4.529 60.35
	M -3.941 59.54
	L -4.348 60.46
	L -4.556 61.43
	M -4.348 60.46
	L -4.755 61.37
	M -3.534 58.63
	L -3.742 59.61
	L -4.149 60.52
	M -3.742 59.61
	L -3.95 60.58
	L -3.95 61.58
	M -3.95 60.58
	L -4.158 61.56
	L -4.158 62.56
	L -3.95 63.54
	M -4.158 62.56
	L -4.158 63.56
	M -4.158 61.56
	L -4.366 62.54
	L -4.366 63.54
	M -4.366 62.54
	L -4.574 63.52
	L -4.574 64.52
	L -4.782 65.5
	M -4.574 64.52
	L -4.574 65.52
	L -4.366 66.5
	M -4.574 65.52
	L -4.574 66.52
	L -4.782 67.5
	L -5.189 68.41
	M -4.782 67.5
	L -4.99 68.48
	L -4.99 69.48
	M -4.99 68.48
	L -5.198 69.45
	M -4.574 66.52
	L -4.574 67.52
	L -4.366 68.5
	M -4.574 67.52
	L -4.574 68.52
	M -4.574 63.52
	L -4.782 64.5
	L -4.782 65.5
	M -4.782 64.5
	L -4.99 65.48
	L -5.397 66.39
	L -5.984 67.2
	M -5.397 66.39
	L -5.803 67.3
	M -4.99 65.48
	L -5.198 66.45
	L -5.605 67.37
	M -5.198 66.45
	L -5.406 67.43
	L -5.406 68.43
	M -5.406 67.43
	L -5.614 68.41
	M 0 42
	L 0 43
	L 0.2079 43.98
	M 0 43
	L 0 44
	L 0.2079 44.98
	L 0.2079 45.98
	M 0.2079 44.98
	L 0.4158 45.96
	M 0 44
	L 0 45
	L 0.2079 45.98
	M 0 45
	L 0 46
	L 0.2079 46.98
	L 0.2079 47.98
	M 0.2079 46.98
	L 0.4158 47.96
	L 0.8226 48.87
	M 0.4158 47.96
	L 0.6237 48.93
	L 0.6237 49.93
	L 0.4158 50.91
	M 0.6237 49.93
	L 0.6237 50.93
	M 0.6237 48.93
	L 0.8316 49.91
	L 0.8316 50.91
	M 0.8316 49.91
	L 1.04 50.89
	L 1.446 51.8
	L 1.654 52.78
	M 1.446 51.8
	L 1.853 52.72
	L 2.441 53.53
	M 1.853 52.72
	L 2.26 53.63
	M 1.04 50.89
	L 1.247 51.87
	L 1.247 52.87
	M 1.247 51.87
	L 1.455 52.85
	L 1.862 53.76
	M 1.455 52.85
	L 1.663 53.83
	M 0 46
	L 0 47
	L -0.2079 47.98
	M 0 47
	L 0 48
	L 0.2079 48.98
	L 0.6146 49.89
	M 0.2079 48.98
	L 0.4158 49.96
	M 0 48
	L 0 49
	L -0.2079 49.98
	M 0 49
	L 0 50
	L 0.2079 50.98
	L 0.2079 51.98
	M 0.2079 50.98
	L 0.4158 51.96
	L 0.8226 52.87
	M 0.4158 51.96
	L 0.6237 52.93
	L 1.03 53.85
	L 1.238 54.83
	M 1.03 53.85
	L 1.437 54.76
	M 0.6237 52.93
	L 0.8316 53.91
	L 1.238 54.83
	M 0.8316 53.91
	L 1.04 54.89
	L 1.04 55.89
	L 1.247 56.87
	M 1.04 55.89
	L 1.04 56.89
	L 0.8316 57.87
	L 0.8316 58.87
	M 0.8316 57.87
	L 0.6237 58.85
	M 1.04 56.89
	L 1.04 57.89
	L 0.8316 58.87
	M 1.04 57.89
	L 1.04 58.89
	L 1.247 59.87
	M 1.04 58.89
	L 1.04 59.89
	M 1.04 54.89
	L 1.247 55.87
	L 1.247 56.87
	M 1.247 55.87
	L 1.455 56.85
	L 1.455 57.85
	L 1.247 58.83
	M 1.455 57.85
	L 1.455 58.85
	L 1.663 59.83
	M 1.455 58.85
	L 1.455 59.85
	M 1.455 56.85
	L 1.663 57.83
	L 1.663 58.83
	M 1.663 57.83
	L 1.871 58.8
	M 0 50
	L 0 51
	L 0.2079 51.98
	M 0 51
	L 0 52
	L 0.2079 52.98
	L 0.2079 53.98
	M 0.2079 52.98
	L 0.4158 53.96
	M 0 52
	L 0 53
	L -0.2079 53.98
	M 0 53
	L 0 54
	L 0.2079 54.98
	L 0.6146 55.89
	M 0.2079 54.98
	L 0.4158 55.96
	L 0.4158 56.96
	L 0.2079 57.93
	M 0.4158 56.96
	L 0.4158 57.96
	M 0.4158 55.96
	L 0.6237 56.93
	L 1.03 57.85
	M 0.6237 56.93
	L 0.8316 57.91
	L 1.238 58.83
	L 1.826 59.64
	M 1.238 58.83
	L 1.645 59.74
	M 0.8316 57.91
	L 1.04 58.89
	L 1.04 59.89
	M 1.04 58.89
	L 1.247 59.87
	M 0 54
	L 0 55
	L 0.2079 55.98
	M 0 55
	L 0 56
	L -0.2079 56.98
	L -0.6146 57.89
	M -0.2079 56.98
	L -0.4158 57.96
	M 0 56
	L 0 57
	L -0.2079 57.98
	M 0 57
	L 0 58
	L 0.2079 58.98
	L 0.6146 59.89
	M 0.2079 58.98
	L 0.4158 59.96
	M 0 58
	L 0 59
	L -0.2079 59.98
	M 0 59
	L 0 60
	L 0.2079 60.98
	L 0.2079 61.98
	M 0.2079 60.98
	L 0.4158 61.96
	L 0.8226 62.87
	M 0.4158 61.96
	L 0.6237 62.93
	L 0.6237 63.93
	L 0.4158 64.91
	M 0.6237 63.93
	L 0.6237 64.93
	L 0.8316 65.91
	M 0.6237 64.93
	L 0.6237 65.93
	M 0.6237 62.93
	L 0.8316 63.91
	L 0.8316 64.91
	M 0.8316 63.91
	L 1.04 64.89
	L 1.446 65.8
	M 1.04 64.89
	L 1.247 65.87
	L 1.247 66.87
	L 1.04 67.85
	M 1.247 66.87
	L 1.247 67.87
	L 1.455 68.85
	L 1.862 69.76
	M 1.455 68.85
	L 1.663 69.83
	M 1.247 67.87
	L 1.247 68.87
	L 1.455 69.85
	M 1.247 68.87
	L 1.247 69.87
	M 1.247 65.87
	L 1.455 66.85
	L 1.862 67.76
	M 1.455 66.85
	L 1.663 67.83
	L 2.07 68.74
	L 2.278 69.72
	M 2.07 68.74
	L 2.477 69.65
	L 3.065 70.46
	M 2.477 69.65
	L 2.884 70.57
	M 1.663 67.83
	L 1.871 68.8
	L 2.278 69.72
	M 1.871 68.8
	L 2.079 69.78
	L 2.486 70.7
	L 3.074 71.5
	M 2.486 70.7
	L 2.893 71.61
	L 3.48 72.42
	L 3.887 73.33
	M 3.48 72.42
	L 4.068 73.23
	M 2.893 71.61
	L 3.299 72.52
	L 3.507 73.5
	M 3.299 72.52
	L 3.706 73.44
	L 4.294 74.24
	M 3.706 73.44
	L 4.113 74.35
	M 2.079 69.78
	L 2.287 70.76
	L 2.287 71.76
	M 2.287 70.76
	L 2.495 71.74
	L 2.902 72.65
	M 2.495 71.74
	L 2.703 72.72
	L 3.11 73.63
	L 3.697 74.44
	M 3.11 73.63
	L 3.516 74.54
	M 2.703 72.72
	L 2.911 73.69
	L 3.318 74.61
	M 2.911 73.69
	L 3.119 74.67
	L 3.525 75.59
	L 4.113 76.39
	M 3.525 75.59
	L 3.932 76.5
	L 4.52 77.31
	L 4.927 78.22
	M 4.52 77.31
	L 5.108 78.12
	M 3.932 76.5
	L 4.339 77.41
	L 4.927 78.22
	M 4.339 77.41
	L 4.746 78.33
	L 4.954 79.3
	L 5.36 80.22
	M 4.954 79.3
	L 5.161 80.28
	L 5.161 81.28
	L 4.954 82.26
	M 5.161 81.28
	L 5.161 82.28
	M 5.161 80.28
	L 5.369 81.26
	L 5.369 82.26
	M 5.369 81.26
	L 5.577 82.24
	L 5.984 83.15
	M 5.577 82.24
	L 5.785 83.22
	M 4.746 78.33
	L 5.152 79.24
	L 5.36 80.22
	M 5.152 79.24
	L 5.559 80.15
	L 6.147 80.96
	M 5.559 80.15
	L 5.966 81.07
	L 6.174 82.05
	L 6.174 83.05
	M 6.174 82.05
	L 6.382 83.02
	L 6.788 83.94
	M 6.382 83.02
	L 6.59 84
	M 5.966 81.07
	L 6.373 81.98
	L 6.58 82.96
	M 6.373 81.98
	L 6.779 82.89
	L 7.367 83.7
	M 6.779 82.89
	L 7.186 83.81
	L 7.774 84.62
	L 8.181 85.53
	M 7.774 84.62
	L 8.362 85.43
	L 9.105 86.09
	M 8.362 85.43
	L 8.949 86.23
	L 9.356 87.15
	L 9.944 87.96
	M 9.356 87.15
	L 9.763 88.06
	M 8.949 86.23
	L 9.537 87.04
	L 9.944 87.96
	M 9.537 87.04
	L 10.12 87.85
	L 10.87 88.52
	M 10.12 87.85
	L 10.71 88.66
	M 7.186 83.81
	L 7.593 84.72
	L 7.801 85.7
	M 7.593 84.72
	L 8 85.63
	L 8.207 86.61
	L 8.614 87.53
	M 8.207 86.61
	L 8.415 87.59
	M 8 85.63
	L 8.406 86.55
	L 8.994 87.36
	M 8.406 86.55
	L 8.813 87.46
	L 9.401 88.27
	L 9.808 89.18
	M 9.401 88.27
	L 9.989 89.08
	L 10.73 89.75
	M 9.989 89.08
	L 10.58 89.89
	M 8.813 87.46
	L 9.22 88.38
	L 9.808 89.18
	M 9.22 88.38
	L 9.626 89.29
	M 3.119 74.67
	L 3.327 75.65
	L 3.327 76.65
	M 3.327 75.65
	L 3.534 76.63
	L 3.941 77.54
	M 3.534 76.63
	L 3.742 77.61
	L 3.742 78.61
	L 3.95 79.58
	M 3.742 78.61
	L 3.742 79.61
	M 3.742 77.61
	L 3.95 78.58
	L 3.95 79.58
	M 3.95 78.58
	L 4.158 79.56
	L 4.565 80.48
	M 4.158 79.56
	L 4.366 80.54
	L 4.366 81.54
	L 4.158 82.52
	M 4.366 81.54
	L 4.366 82.54
	L 4.158 83.52
	L 3.751 84.43
	M 4.158 83.52
	L 3.95 84.5
	M 4.366 82.54
	L 4.366 83.54
	L 4.574 84.52
	M 4.366 83.54
	L 4.366 84.54
	L 4.574 85.52
	L 4.574 86.52
	M 4.574 85.52
	L 4.782 86.5
	L 5.189 87.41
	M 4.782 86.5
	L 4.99 87.48
	M 4.366 84.54
	L 4.366 85.54
	L 4.158 86.52
	M 4.366 85.54
	L 4.366 86.54
	L 4.574 87.52
	M 4.366 86.54
	L 4.366 87.54
	M 4.366 80.54
	L 4.574 81.52
	L 4.574 82.52
	M 4.574 81.52
	L 4.782 82.5
	L 5.189 83.41
	M 4.782 82.5
	L 4.99 83.48
	L 4.99 84.48
	L 5.198 85.45
	M 4.99 84.48
	L 4.99 85.48
	M 4.99 83.48
	L 5.198 84.45
	L 5.198 85.45
	M 5.198 84.45
	L 5.406 85.43
	L 5.812 86.35
	M 5.406 85.43
	L 5.614 86.41
	L 6.02 87.32
	L 6.228 88.3
	M 6.02 87.32
	L 6.427 88.24
	L 7.015 89.05
	M 6.427 88.24
	L 6.834 89.15
	M 5.614 86.41
	L 5.822 87.39
	L 5.822 88.39
	M 5.822 87.39
	L 6.029 88.37
	L 6.436 89.28
	L 6.644 90.26
	M 6.436 89.28
	L 6.843 90.19
	L 7.431 91
	M 6.843 90.19
	L 7.25 91.11
	L 7.837 91.92
	L 8.581 92.59
	M 7.837 91.92
	L 8.425 92.72
	M 7.25 91.11
	L 7.656 92.02
	L 7.864 93
	M 7.656 92.02
	L 8.063 92.93
	M 6.029 88.37
	L 6.237 89.34
	L 6.237 90.34
	M 6.237 89.34
	L 6.445 90.32
	L 6.445 91.32
	L 6.653 92.3
	M 6.445 91.32
	L 6.445 92.32
	M 6.445 90.32
	L 6.653 91.3
	L 6.653 92.3
	M 6.653 91.3
	L 6.861 92.28
	L 7.268 93.19
	L 7.476 94.17
	M 7.268 93.19
	L 7.675 94.11
	M 6.861 92.28
	L 7.069 93.26
	L 7.069 94.26
	M 7.069 93.26
	L 7.277 94.24
	M 0 60
	L 0 61
	L 0.2079 61.98
	M 0 61
	L 0 62
	L -0.2079 62.98
	L -0.6146 63.89
	M -0.2079 62.98
	L -0.4158 63.96
	L -0.4158 64.96
	M -0.4158 63.96
	L -0.6237 64.93
	M 0 62
	L 0 63
	L -0.2079 63.98
	M 0 63
	L 0 64
	L 0.2079 64.98
	M 0 64
	L 0 65
	L 0.2079 65.98
	L 0.6146 66.89
	M 0.2079 65.98
	L 0.4158 66.96
	M 0 65
	L 0 66
	L 0.2079 66.98
	M 0 66
	L 0 67
	L -0.2079 67.98
	L -0.6146 68.89
	M -0.2079 67.98
	L -0.4158 68.96
	L -0.4158 69.96
	M -0.4158 68.96
	L -0.6237 69.93
	L -1.03 70.85
	L -1.238 71.83
	M -1.03 70.85
	L -1.437 71.76
	M -0.6237 69.93
	L -0.8316 70.91
	L -1.238 71.83
	M -0.8316 70.91
	L -1.04 71.89
	L -1.04 72.89
	M -1.04 71.89
	L -1.247 72.87
	M 0 67
	L 0 68
	L -0.2079 68.98
	M 0 68
	L 0 69
	L -0.2079 69.98
	L -0.6146 70.89
	M -0.2079 69.98
	L -0.4158 70.96
	M 0 69
	L 0 70
	L -0.2079 70.98
	M 0 70
	L 0 71
	L 0.2079 71.98
	L 0.6146 72.89
	M 0.2079 71.98
	L 0.4158 72.96
	M 0 71
	L 0 72
	L -0.2079 72.98
	M 0 72
	L 0 73
	L 0.2079 73.98
	L 0.2079 74.98
	M 0.2079 73.98
	L 0.4158 74.96
	L 0.8226 75.87
	M 0.4158 74.96
	L 0.6237 75.93
	L 0.6237 76.93
	L 0.4158 77.91
	M 0.6237 76.93
	L 0.6237 77.93
	L 0.8316 78.91
	M 0.6237 77.93
	L 0.6237 78.93
	M 0.6237 75.93
	L 0.8316 76.91
	L 0.8316 77.91
	M 0.8316 76.91
	L 1.04 77.89
	L 1.446 78.8
	M 1.04 77.89
	L 1.247 78.87
	L 1.654 79.78
	L 1.862 80.76
	M 1.654 79.78
	L 2.061 80.7
	L 2.649 81.5
	M 2.061 80.7
	L 2.468 81.61
	M 1.247 78.87
	L 1.455 79.85
	L 1.862 80.76
	M 1.455 79.85
	L 1.663 80.83
	M 0 73
	L 0 74
	L 0.2079 74.98
	M 0 74
	L 0 75
	L 0.2079 75.98
	L 0.2079 76.98
	M 0.2079 75.98
	L 0.4158 76.96
	M 0 75
	L 0 76
	L -0.2079 76.98
	M 0 76
	L 0 77
	L -0.2079 77.98
	L -0.2079 78.98
	M -0.2079 77.98
	L -0.4158 78.96
	L -0.8226 79.87
	L -1.41 80.68
	M -0.8226 79.87
	L -1.229 80.78
	L -1.437 81.76
	M -1.229 80.78
	L -1.636 81.7
	M -0.4158 78.96
	L -0.6237 79.93
	L -1.03 80.85
	M -0.6237 79.93
	L -0.8316 80.91
	L -1.238 81.83
	L -1.826 82.64
	M -1.238 81.83
	L -1.645 82.74
	L -1.853 83.72
	M -1.645 82.74
	L -2.052 83.65
	L -2.64 84.46
	L -3.046 85.38
	M -2.64 84.46
	L -3.227 85.27
	M -2.052 83.65
	L -2.459 84.57
	L -2.667 85.54
	M -2.459 84.57
	L -2.865 85.48
	L -3.073 86.46
	L -3.073 87.46
	M -3.073 86.46
	L -3.281 87.44
	M -2.865 85.48
	L -3.272 86.39
	L -3.86 87.2
	M -3.272 86.39
	L -3.679 87.31
	L -3.887 88.29
	M -3.679 87.31
	L -4.086 88.22
	M -0.8316 80.91
	L -1.04 81.89
	L -1.446 82.8
	M -1.04 81.89
	L -1.247 82.87
	L -1.247 83.87
	M -1.247 82.87
	L -1.455 83.85
	L -1.862 84.76
	L -2.45 85.57
	M -1.862 84.76
	L -2.269 85.67
	L -2.477 86.65
	M -2.269 85.67
	L -2.676 86.59
	M -1.455 83.85
	L -1.663 84.83
	L -1.663 85.83
	M -1.663 84.83
	L -1.871 85.8
	L -1.871 86.8
	L -2.079 87.78
	M -1.871 86.8
	L -1.871 87.8
	M -1.871 85.8
	L -2.079 86.78
	L -2.486 87.7
	M -2.079 86.78
	L -2.287 87.76
	L -2.287 88.76
	M -2.287 87.76
	L -2.495 88.74
	M 0 77
	L 0 78
	L -0.2079 78.98
	M 0 78
	L 0 79
	L -0.2079 79.98
	L -0.6146 80.89
	M -0.2079 79.98
	L -0.4158 80.96
	L -0.4158 81.96
	M -0.4158 80.96
	L -0.6237 81.93
	M 0 79
	L 0 80
	L -0.2079 80.98
	M 0 80
	L 0 81
	L -0.2079 81.98
	L -0.6146 82.89
	M -0.2079 81.98
	L -0.4158 82.96
	L -0.4158 83.96
	L -0.6237 84.93
	M -0.4158 83.96
	L -0.4158 84.96
	M -0.4158 82.96
	L -0.6237 83.93
	L -1.03 84.85
	M -0.6237 83.93
	L -0.8316 84.91
	M 0 81
	L 0 82
	L 0.2079 82.98
	M 0 82
	L 0 83
	L 0.2079 83.98
	L 0.6146 84.89
	M 0.2079 83.98
	L 0.4158 84.96
	M 0 83
	L 0 84
	L -0.2079 84.98
	M 0 84
	L 0 85
	L 0.2079 85.98
	M 0 85
	L 0 86
"/>
</svg>
